G04 #@! TF.GenerationSoftware,KiCad,Pcbnew,(5.1.6)-1*
G04 #@! TF.CreationDate,2020-06-11T17:33:57+01:00*
G04 #@! TF.ProjectId,nrfmicro,6e72666d-6963-4726-9f2e-6b696361645f,rev?*
G04 #@! TF.SameCoordinates,Original*
G04 #@! TF.FileFunction,Legend,Bot*
G04 #@! TF.FilePolarity,Positive*
%FSLAX46Y46*%
G04 Gerber Fmt 4.6, Leading zero omitted, Abs format (unit mm)*
G04 Created by KiCad (PCBNEW (5.1.6)-1) date 2020-06-11 17:33:57*
%MOMM*%
%LPD*%
G01*
G04 APERTURE LIST*
%ADD10C,0.100000*%
%ADD11C,0.010000*%
%ADD12C,0.120000*%
%ADD13C,0.150000*%
%ADD14C,0.070000*%
G04 APERTURE END LIST*
D10*
X105468199Y-113239441D02*
X105334866Y-113239441D01*
X105268199Y-113272775D01*
X105201533Y-113339441D01*
X105168199Y-113472775D01*
X105168199Y-113706108D01*
X105201533Y-113839441D01*
X105268199Y-113906108D01*
X105334866Y-113939441D01*
X105468199Y-113939441D01*
X105534866Y-113906108D01*
X105601533Y-113839441D01*
X105634866Y-113706108D01*
X105634866Y-113472775D01*
X105601533Y-113339441D01*
X105534866Y-113272775D01*
X105468199Y-113239441D01*
X104868199Y-113939441D02*
X104868199Y-113239441D01*
X104468199Y-113939441D01*
X104468199Y-113239441D01*
X103468199Y-113239441D02*
X103334866Y-113239441D01*
X103268199Y-113272775D01*
X103201533Y-113339441D01*
X103168199Y-113472775D01*
X103168199Y-113706108D01*
X103201533Y-113839441D01*
X103268199Y-113906108D01*
X103334866Y-113939441D01*
X103468199Y-113939441D01*
X103534866Y-113906108D01*
X103601533Y-113839441D01*
X103634866Y-113706108D01*
X103634866Y-113472775D01*
X103601533Y-113339441D01*
X103534866Y-113272775D01*
X103468199Y-113239441D01*
X102634866Y-113572775D02*
X102868199Y-113572775D01*
X102868199Y-113939441D02*
X102868199Y-113239441D01*
X102534866Y-113239441D01*
X102034866Y-113572775D02*
X102268199Y-113572775D01*
X102268199Y-113939441D02*
X102268199Y-113239441D01*
X101934866Y-113239441D01*
D11*
G36*
X97725533Y-123557775D02*
G01*
X97725533Y-123307775D01*
X97475533Y-123307775D01*
X97475533Y-123557775D01*
X97725533Y-123557775D01*
G37*
X97725533Y-123557775D02*
X97725533Y-123307775D01*
X97475533Y-123307775D01*
X97475533Y-123557775D01*
X97725533Y-123557775D01*
G36*
X97725533Y-124057775D02*
G01*
X97725533Y-123807775D01*
X97475533Y-123807775D01*
X97475533Y-124057775D01*
X97725533Y-124057775D01*
G37*
X97725533Y-124057775D02*
X97725533Y-123807775D01*
X97475533Y-123807775D01*
X97475533Y-124057775D01*
X97725533Y-124057775D01*
G36*
X97725533Y-124307775D02*
G01*
X97725533Y-124057775D01*
X97475533Y-124057775D01*
X97475533Y-124307775D01*
X97725533Y-124307775D01*
G37*
X97725533Y-124307775D02*
X97725533Y-124057775D01*
X97475533Y-124057775D01*
X97475533Y-124307775D01*
X97725533Y-124307775D01*
G36*
X97725533Y-124807775D02*
G01*
X97725533Y-124557775D01*
X97475533Y-124557775D01*
X97475533Y-124807775D01*
X97725533Y-124807775D01*
G37*
X97725533Y-124807775D02*
X97725533Y-124557775D01*
X97475533Y-124557775D01*
X97475533Y-124807775D01*
X97725533Y-124807775D01*
G36*
X97725533Y-125057775D02*
G01*
X97725533Y-124807775D01*
X97475533Y-124807775D01*
X97475533Y-125057775D01*
X97725533Y-125057775D01*
G37*
X97725533Y-125057775D02*
X97725533Y-124807775D01*
X97475533Y-124807775D01*
X97475533Y-125057775D01*
X97725533Y-125057775D01*
G36*
X97725533Y-125807775D02*
G01*
X97725533Y-125557775D01*
X97475533Y-125557775D01*
X97475533Y-125807775D01*
X97725533Y-125807775D01*
G37*
X97725533Y-125807775D02*
X97725533Y-125557775D01*
X97475533Y-125557775D01*
X97475533Y-125807775D01*
X97725533Y-125807775D01*
G36*
X97725533Y-126307775D02*
G01*
X97725533Y-126057775D01*
X97475533Y-126057775D01*
X97475533Y-126307775D01*
X97725533Y-126307775D01*
G37*
X97725533Y-126307775D02*
X97725533Y-126057775D01*
X97475533Y-126057775D01*
X97475533Y-126307775D01*
X97725533Y-126307775D01*
G36*
X97725533Y-126557775D02*
G01*
X97725533Y-126307775D01*
X97475533Y-126307775D01*
X97475533Y-126557775D01*
X97725533Y-126557775D01*
G37*
X97725533Y-126557775D02*
X97725533Y-126307775D01*
X97475533Y-126307775D01*
X97475533Y-126557775D01*
X97725533Y-126557775D01*
G36*
X97725533Y-127307775D02*
G01*
X97725533Y-127057775D01*
X97475533Y-127057775D01*
X97475533Y-127307775D01*
X97725533Y-127307775D01*
G37*
X97725533Y-127307775D02*
X97725533Y-127057775D01*
X97475533Y-127057775D01*
X97475533Y-127307775D01*
X97725533Y-127307775D01*
G36*
X97725533Y-127807775D02*
G01*
X97725533Y-127557775D01*
X97475533Y-127557775D01*
X97475533Y-127807775D01*
X97725533Y-127807775D01*
G37*
X97725533Y-127807775D02*
X97725533Y-127557775D01*
X97475533Y-127557775D01*
X97475533Y-127807775D01*
X97725533Y-127807775D01*
G36*
X97725533Y-128557775D02*
G01*
X97725533Y-128307775D01*
X97475533Y-128307775D01*
X97475533Y-128557775D01*
X97725533Y-128557775D01*
G37*
X97725533Y-128557775D02*
X97725533Y-128307775D01*
X97475533Y-128307775D01*
X97475533Y-128557775D01*
X97725533Y-128557775D01*
G36*
X97725533Y-128807775D02*
G01*
X97725533Y-128557775D01*
X97475533Y-128557775D01*
X97475533Y-128807775D01*
X97725533Y-128807775D01*
G37*
X97725533Y-128807775D02*
X97725533Y-128557775D01*
X97475533Y-128557775D01*
X97475533Y-128807775D01*
X97725533Y-128807775D01*
G36*
X97725533Y-129307775D02*
G01*
X97725533Y-129057775D01*
X97475533Y-129057775D01*
X97475533Y-129307775D01*
X97725533Y-129307775D01*
G37*
X97725533Y-129307775D02*
X97725533Y-129057775D01*
X97475533Y-129057775D01*
X97475533Y-129307775D01*
X97725533Y-129307775D01*
G36*
X97725533Y-129807775D02*
G01*
X97725533Y-129557775D01*
X97475533Y-129557775D01*
X97475533Y-129807775D01*
X97725533Y-129807775D01*
G37*
X97725533Y-129807775D02*
X97725533Y-129557775D01*
X97475533Y-129557775D01*
X97475533Y-129807775D01*
X97725533Y-129807775D01*
G36*
X97725533Y-130057775D02*
G01*
X97725533Y-129807775D01*
X97475533Y-129807775D01*
X97475533Y-130057775D01*
X97725533Y-130057775D01*
G37*
X97725533Y-130057775D02*
X97725533Y-129807775D01*
X97475533Y-129807775D01*
X97475533Y-130057775D01*
X97725533Y-130057775D01*
G36*
X97725533Y-130807775D02*
G01*
X97725533Y-130557775D01*
X97475533Y-130557775D01*
X97475533Y-130807775D01*
X97725533Y-130807775D01*
G37*
X97725533Y-130807775D02*
X97725533Y-130557775D01*
X97475533Y-130557775D01*
X97475533Y-130807775D01*
X97725533Y-130807775D01*
G36*
X97725533Y-131307775D02*
G01*
X97725533Y-131057775D01*
X97475533Y-131057775D01*
X97475533Y-131307775D01*
X97725533Y-131307775D01*
G37*
X97725533Y-131307775D02*
X97725533Y-131057775D01*
X97475533Y-131057775D01*
X97475533Y-131307775D01*
X97725533Y-131307775D01*
G36*
X97725533Y-131807775D02*
G01*
X97725533Y-131557775D01*
X97475533Y-131557775D01*
X97475533Y-131807775D01*
X97725533Y-131807775D01*
G37*
X97725533Y-131807775D02*
X97725533Y-131557775D01*
X97475533Y-131557775D01*
X97475533Y-131807775D01*
X97725533Y-131807775D01*
G36*
X97725533Y-132557775D02*
G01*
X97725533Y-132307775D01*
X97475533Y-132307775D01*
X97475533Y-132557775D01*
X97725533Y-132557775D01*
G37*
X97725533Y-132557775D02*
X97725533Y-132307775D01*
X97475533Y-132307775D01*
X97475533Y-132557775D01*
X97725533Y-132557775D01*
G36*
X97725533Y-133057775D02*
G01*
X97725533Y-132807775D01*
X97475533Y-132807775D01*
X97475533Y-133057775D01*
X97725533Y-133057775D01*
G37*
X97725533Y-133057775D02*
X97725533Y-132807775D01*
X97475533Y-132807775D01*
X97475533Y-133057775D01*
X97725533Y-133057775D01*
G36*
X98225533Y-122557775D02*
G01*
X98225533Y-122307775D01*
X97975533Y-122307775D01*
X97975533Y-122557775D01*
X98225533Y-122557775D01*
G37*
X98225533Y-122557775D02*
X98225533Y-122307775D01*
X97975533Y-122307775D01*
X97975533Y-122557775D01*
X98225533Y-122557775D01*
G36*
X98225533Y-122807775D02*
G01*
X98225533Y-122557775D01*
X97975533Y-122557775D01*
X97975533Y-122807775D01*
X98225533Y-122807775D01*
G37*
X98225533Y-122807775D02*
X98225533Y-122557775D01*
X97975533Y-122557775D01*
X97975533Y-122807775D01*
X98225533Y-122807775D01*
G36*
X98225533Y-123307775D02*
G01*
X98225533Y-123057775D01*
X97975533Y-123057775D01*
X97975533Y-123307775D01*
X98225533Y-123307775D01*
G37*
X98225533Y-123307775D02*
X98225533Y-123057775D01*
X97975533Y-123057775D01*
X97975533Y-123307775D01*
X98225533Y-123307775D01*
G36*
X98225533Y-123557775D02*
G01*
X98225533Y-123307775D01*
X97975533Y-123307775D01*
X97975533Y-123557775D01*
X98225533Y-123557775D01*
G37*
X98225533Y-123557775D02*
X98225533Y-123307775D01*
X97975533Y-123307775D01*
X97975533Y-123557775D01*
X98225533Y-123557775D01*
G36*
X98225533Y-124057775D02*
G01*
X98225533Y-123807775D01*
X97975533Y-123807775D01*
X97975533Y-124057775D01*
X98225533Y-124057775D01*
G37*
X98225533Y-124057775D02*
X98225533Y-123807775D01*
X97975533Y-123807775D01*
X97975533Y-124057775D01*
X98225533Y-124057775D01*
G36*
X98225533Y-124307775D02*
G01*
X98225533Y-124057775D01*
X97975533Y-124057775D01*
X97975533Y-124307775D01*
X98225533Y-124307775D01*
G37*
X98225533Y-124307775D02*
X98225533Y-124057775D01*
X97975533Y-124057775D01*
X97975533Y-124307775D01*
X98225533Y-124307775D01*
G36*
X98225533Y-124807775D02*
G01*
X98225533Y-124557775D01*
X97975533Y-124557775D01*
X97975533Y-124807775D01*
X98225533Y-124807775D01*
G37*
X98225533Y-124807775D02*
X98225533Y-124557775D01*
X97975533Y-124557775D01*
X97975533Y-124807775D01*
X98225533Y-124807775D01*
G36*
X98225533Y-125057775D02*
G01*
X98225533Y-124807775D01*
X97975533Y-124807775D01*
X97975533Y-125057775D01*
X98225533Y-125057775D01*
G37*
X98225533Y-125057775D02*
X98225533Y-124807775D01*
X97975533Y-124807775D01*
X97975533Y-125057775D01*
X98225533Y-125057775D01*
G36*
X98225533Y-125557775D02*
G01*
X98225533Y-125307775D01*
X97975533Y-125307775D01*
X97975533Y-125557775D01*
X98225533Y-125557775D01*
G37*
X98225533Y-125557775D02*
X98225533Y-125307775D01*
X97975533Y-125307775D01*
X97975533Y-125557775D01*
X98225533Y-125557775D01*
G36*
X98225533Y-125807775D02*
G01*
X98225533Y-125557775D01*
X97975533Y-125557775D01*
X97975533Y-125807775D01*
X98225533Y-125807775D01*
G37*
X98225533Y-125807775D02*
X98225533Y-125557775D01*
X97975533Y-125557775D01*
X97975533Y-125807775D01*
X98225533Y-125807775D01*
G36*
X98225533Y-126557775D02*
G01*
X98225533Y-126307775D01*
X97975533Y-126307775D01*
X97975533Y-126557775D01*
X98225533Y-126557775D01*
G37*
X98225533Y-126557775D02*
X98225533Y-126307775D01*
X97975533Y-126307775D01*
X97975533Y-126557775D01*
X98225533Y-126557775D01*
G36*
X98225533Y-127057775D02*
G01*
X98225533Y-126807775D01*
X97975533Y-126807775D01*
X97975533Y-127057775D01*
X98225533Y-127057775D01*
G37*
X98225533Y-127057775D02*
X98225533Y-126807775D01*
X97975533Y-126807775D01*
X97975533Y-127057775D01*
X98225533Y-127057775D01*
G36*
X98225533Y-127307775D02*
G01*
X98225533Y-127057775D01*
X97975533Y-127057775D01*
X97975533Y-127307775D01*
X98225533Y-127307775D01*
G37*
X98225533Y-127307775D02*
X98225533Y-127057775D01*
X97975533Y-127057775D01*
X97975533Y-127307775D01*
X98225533Y-127307775D01*
G36*
X98225533Y-127807775D02*
G01*
X98225533Y-127557775D01*
X97975533Y-127557775D01*
X97975533Y-127807775D01*
X98225533Y-127807775D01*
G37*
X98225533Y-127807775D02*
X98225533Y-127557775D01*
X97975533Y-127557775D01*
X97975533Y-127807775D01*
X98225533Y-127807775D01*
G36*
X98225533Y-128307775D02*
G01*
X98225533Y-128057775D01*
X97975533Y-128057775D01*
X97975533Y-128307775D01*
X98225533Y-128307775D01*
G37*
X98225533Y-128307775D02*
X98225533Y-128057775D01*
X97975533Y-128057775D01*
X97975533Y-128307775D01*
X98225533Y-128307775D01*
G36*
X98225533Y-128807775D02*
G01*
X98225533Y-128557775D01*
X97975533Y-128557775D01*
X97975533Y-128807775D01*
X98225533Y-128807775D01*
G37*
X98225533Y-128807775D02*
X98225533Y-128557775D01*
X97975533Y-128557775D01*
X97975533Y-128807775D01*
X98225533Y-128807775D01*
G36*
X98225533Y-129057775D02*
G01*
X98225533Y-128807775D01*
X97975533Y-128807775D01*
X97975533Y-129057775D01*
X98225533Y-129057775D01*
G37*
X98225533Y-129057775D02*
X98225533Y-128807775D01*
X97975533Y-128807775D01*
X97975533Y-129057775D01*
X98225533Y-129057775D01*
G36*
X98225533Y-129807775D02*
G01*
X98225533Y-129557775D01*
X97975533Y-129557775D01*
X97975533Y-129807775D01*
X98225533Y-129807775D01*
G37*
X98225533Y-129807775D02*
X98225533Y-129557775D01*
X97975533Y-129557775D01*
X97975533Y-129807775D01*
X98225533Y-129807775D01*
G36*
X98225533Y-130057775D02*
G01*
X98225533Y-129807775D01*
X97975533Y-129807775D01*
X97975533Y-130057775D01*
X98225533Y-130057775D01*
G37*
X98225533Y-130057775D02*
X98225533Y-129807775D01*
X97975533Y-129807775D01*
X97975533Y-130057775D01*
X98225533Y-130057775D01*
G36*
X98225533Y-130557775D02*
G01*
X98225533Y-130307775D01*
X97975533Y-130307775D01*
X97975533Y-130557775D01*
X98225533Y-130557775D01*
G37*
X98225533Y-130557775D02*
X98225533Y-130307775D01*
X97975533Y-130307775D01*
X97975533Y-130557775D01*
X98225533Y-130557775D01*
G36*
X98225533Y-130807775D02*
G01*
X98225533Y-130557775D01*
X97975533Y-130557775D01*
X97975533Y-130807775D01*
X98225533Y-130807775D01*
G37*
X98225533Y-130807775D02*
X98225533Y-130557775D01*
X97975533Y-130557775D01*
X97975533Y-130807775D01*
X98225533Y-130807775D01*
G36*
X98225533Y-131307775D02*
G01*
X98225533Y-131057775D01*
X97975533Y-131057775D01*
X97975533Y-131307775D01*
X98225533Y-131307775D01*
G37*
X98225533Y-131307775D02*
X98225533Y-131057775D01*
X97975533Y-131057775D01*
X97975533Y-131307775D01*
X98225533Y-131307775D01*
G36*
X98225533Y-131557775D02*
G01*
X98225533Y-131307775D01*
X97975533Y-131307775D01*
X97975533Y-131557775D01*
X98225533Y-131557775D01*
G37*
X98225533Y-131557775D02*
X98225533Y-131307775D01*
X97975533Y-131307775D01*
X97975533Y-131557775D01*
X98225533Y-131557775D01*
G36*
X98225533Y-132057775D02*
G01*
X98225533Y-131807775D01*
X97975533Y-131807775D01*
X97975533Y-132057775D01*
X98225533Y-132057775D01*
G37*
X98225533Y-132057775D02*
X98225533Y-131807775D01*
X97975533Y-131807775D01*
X97975533Y-132057775D01*
X98225533Y-132057775D01*
G36*
X98225533Y-132307775D02*
G01*
X98225533Y-132057775D01*
X97975533Y-132057775D01*
X97975533Y-132307775D01*
X98225533Y-132307775D01*
G37*
X98225533Y-132307775D02*
X98225533Y-132057775D01*
X97975533Y-132057775D01*
X97975533Y-132307775D01*
X98225533Y-132307775D01*
G36*
X98225533Y-132807775D02*
G01*
X98225533Y-132557775D01*
X97975533Y-132557775D01*
X97975533Y-132807775D01*
X98225533Y-132807775D01*
G37*
X98225533Y-132807775D02*
X98225533Y-132557775D01*
X97975533Y-132557775D01*
X97975533Y-132807775D01*
X98225533Y-132807775D01*
G36*
X98225533Y-133057775D02*
G01*
X98225533Y-132807775D01*
X97975533Y-132807775D01*
X97975533Y-133057775D01*
X98225533Y-133057775D01*
G37*
X98225533Y-133057775D02*
X98225533Y-132807775D01*
X97975533Y-132807775D01*
X97975533Y-133057775D01*
X98225533Y-133057775D01*
G36*
X98725533Y-126807775D02*
G01*
X98725533Y-126557775D01*
X98475533Y-126557775D01*
X98475533Y-126807775D01*
X98725533Y-126807775D01*
G37*
X98725533Y-126807775D02*
X98725533Y-126557775D01*
X98475533Y-126557775D01*
X98475533Y-126807775D01*
X98725533Y-126807775D01*
G36*
X98725533Y-127057775D02*
G01*
X98725533Y-126807775D01*
X98475533Y-126807775D01*
X98475533Y-127057775D01*
X98725533Y-127057775D01*
G37*
X98725533Y-127057775D02*
X98725533Y-126807775D01*
X98475533Y-126807775D01*
X98475533Y-127057775D01*
X98725533Y-127057775D01*
G36*
X98725533Y-127557775D02*
G01*
X98725533Y-127307775D01*
X98475533Y-127307775D01*
X98475533Y-127557775D01*
X98725533Y-127557775D01*
G37*
X98725533Y-127557775D02*
X98725533Y-127307775D01*
X98475533Y-127307775D01*
X98475533Y-127557775D01*
X98725533Y-127557775D01*
G36*
X98725533Y-127807775D02*
G01*
X98725533Y-127557775D01*
X98475533Y-127557775D01*
X98475533Y-127807775D01*
X98725533Y-127807775D01*
G37*
X98725533Y-127807775D02*
X98725533Y-127557775D01*
X98475533Y-127557775D01*
X98475533Y-127807775D01*
X98725533Y-127807775D01*
G36*
X98725533Y-128307775D02*
G01*
X98725533Y-128057775D01*
X98475533Y-128057775D01*
X98475533Y-128307775D01*
X98725533Y-128307775D01*
G37*
X98725533Y-128307775D02*
X98725533Y-128057775D01*
X98475533Y-128057775D01*
X98475533Y-128307775D01*
X98725533Y-128307775D01*
G36*
X98725533Y-128557775D02*
G01*
X98725533Y-128307775D01*
X98475533Y-128307775D01*
X98475533Y-128557775D01*
X98725533Y-128557775D01*
G37*
X98725533Y-128557775D02*
X98725533Y-128307775D01*
X98475533Y-128307775D01*
X98475533Y-128557775D01*
X98725533Y-128557775D01*
G36*
X98725533Y-129057775D02*
G01*
X98725533Y-128807775D01*
X98475533Y-128807775D01*
X98475533Y-129057775D01*
X98725533Y-129057775D01*
G37*
X98725533Y-129057775D02*
X98725533Y-128807775D01*
X98475533Y-128807775D01*
X98475533Y-129057775D01*
X98725533Y-129057775D01*
G36*
X98725533Y-129307775D02*
G01*
X98725533Y-129057775D01*
X98475533Y-129057775D01*
X98475533Y-129307775D01*
X98725533Y-129307775D01*
G37*
X98725533Y-129307775D02*
X98725533Y-129057775D01*
X98475533Y-129057775D01*
X98475533Y-129307775D01*
X98725533Y-129307775D01*
G36*
X98725533Y-129807775D02*
G01*
X98725533Y-129557775D01*
X98475533Y-129557775D01*
X98475533Y-129807775D01*
X98725533Y-129807775D01*
G37*
X98725533Y-129807775D02*
X98725533Y-129557775D01*
X98475533Y-129557775D01*
X98475533Y-129807775D01*
X98725533Y-129807775D01*
G36*
X98725533Y-130057775D02*
G01*
X98725533Y-129807775D01*
X98475533Y-129807775D01*
X98475533Y-130057775D01*
X98725533Y-130057775D01*
G37*
X98725533Y-130057775D02*
X98725533Y-129807775D01*
X98475533Y-129807775D01*
X98475533Y-130057775D01*
X98725533Y-130057775D01*
G36*
X98725533Y-130807775D02*
G01*
X98725533Y-130557775D01*
X98475533Y-130557775D01*
X98475533Y-130807775D01*
X98725533Y-130807775D01*
G37*
X98725533Y-130807775D02*
X98725533Y-130557775D01*
X98475533Y-130557775D01*
X98475533Y-130807775D01*
X98725533Y-130807775D01*
G36*
X98725533Y-131057775D02*
G01*
X98725533Y-130807775D01*
X98475533Y-130807775D01*
X98475533Y-131057775D01*
X98725533Y-131057775D01*
G37*
X98725533Y-131057775D02*
X98725533Y-130807775D01*
X98475533Y-130807775D01*
X98475533Y-131057775D01*
X98725533Y-131057775D01*
G36*
X98725533Y-131557775D02*
G01*
X98725533Y-131307775D01*
X98475533Y-131307775D01*
X98475533Y-131557775D01*
X98725533Y-131557775D01*
G37*
X98725533Y-131557775D02*
X98725533Y-131307775D01*
X98475533Y-131307775D01*
X98475533Y-131557775D01*
X98725533Y-131557775D01*
G36*
X98725533Y-132057775D02*
G01*
X98725533Y-131807775D01*
X98475533Y-131807775D01*
X98475533Y-132057775D01*
X98725533Y-132057775D01*
G37*
X98725533Y-132057775D02*
X98725533Y-131807775D01*
X98475533Y-131807775D01*
X98475533Y-132057775D01*
X98725533Y-132057775D01*
G36*
X98725533Y-132557775D02*
G01*
X98725533Y-132307775D01*
X98475533Y-132307775D01*
X98475533Y-132557775D01*
X98725533Y-132557775D01*
G37*
X98725533Y-132557775D02*
X98725533Y-132307775D01*
X98475533Y-132307775D01*
X98475533Y-132557775D01*
X98725533Y-132557775D01*
G36*
X98725533Y-133057775D02*
G01*
X98725533Y-132807775D01*
X98475533Y-132807775D01*
X98475533Y-133057775D01*
X98725533Y-133057775D01*
G37*
X98725533Y-133057775D02*
X98725533Y-132807775D01*
X98475533Y-132807775D01*
X98475533Y-133057775D01*
X98725533Y-133057775D01*
G36*
X98143533Y-141260775D02*
G01*
X97893533Y-141260775D01*
X97893533Y-141510775D01*
X98143533Y-141510775D01*
X98143533Y-141260775D01*
G37*
X98143533Y-141260775D02*
X97893533Y-141260775D01*
X97893533Y-141510775D01*
X98143533Y-141510775D01*
X98143533Y-141260775D01*
G36*
X98393533Y-141260775D02*
G01*
X98143533Y-141260775D01*
X98143533Y-141510775D01*
X98393533Y-141510775D01*
X98393533Y-141260775D01*
G37*
X98393533Y-141260775D02*
X98143533Y-141260775D01*
X98143533Y-141510775D01*
X98393533Y-141510775D01*
X98393533Y-141260775D01*
G36*
X98643533Y-141260775D02*
G01*
X98393533Y-141260775D01*
X98393533Y-141510775D01*
X98643533Y-141510775D01*
X98643533Y-141260775D01*
G37*
X98643533Y-141260775D02*
X98393533Y-141260775D01*
X98393533Y-141510775D01*
X98643533Y-141510775D01*
X98643533Y-141260775D01*
G36*
X98893533Y-141260775D02*
G01*
X98643533Y-141260775D01*
X98643533Y-141510775D01*
X98893533Y-141510775D01*
X98893533Y-141260775D01*
G37*
X98893533Y-141260775D02*
X98643533Y-141260775D01*
X98643533Y-141510775D01*
X98893533Y-141510775D01*
X98893533Y-141260775D01*
G36*
X99143533Y-141260775D02*
G01*
X98893533Y-141260775D01*
X98893533Y-141510775D01*
X99143533Y-141510775D01*
X99143533Y-141260775D01*
G37*
X99143533Y-141260775D02*
X98893533Y-141260775D01*
X98893533Y-141510775D01*
X99143533Y-141510775D01*
X99143533Y-141260775D01*
G36*
X99393533Y-141260775D02*
G01*
X99143533Y-141260775D01*
X99143533Y-141510775D01*
X99393533Y-141510775D01*
X99393533Y-141260775D01*
G37*
X99393533Y-141260775D02*
X99143533Y-141260775D01*
X99143533Y-141510775D01*
X99393533Y-141510775D01*
X99393533Y-141260775D01*
G36*
X99643533Y-141260775D02*
G01*
X99393533Y-141260775D01*
X99393533Y-141510775D01*
X99643533Y-141510775D01*
X99643533Y-141260775D01*
G37*
X99643533Y-141260775D02*
X99393533Y-141260775D01*
X99393533Y-141510775D01*
X99643533Y-141510775D01*
X99643533Y-141260775D01*
G36*
X99893533Y-141260775D02*
G01*
X99643533Y-141260775D01*
X99643533Y-141510775D01*
X99893533Y-141510775D01*
X99893533Y-141260775D01*
G37*
X99893533Y-141260775D02*
X99643533Y-141260775D01*
X99643533Y-141510775D01*
X99893533Y-141510775D01*
X99893533Y-141260775D01*
G36*
X100143533Y-141260775D02*
G01*
X99893533Y-141260775D01*
X99893533Y-141510775D01*
X100143533Y-141510775D01*
X100143533Y-141260775D01*
G37*
X100143533Y-141260775D02*
X99893533Y-141260775D01*
X99893533Y-141510775D01*
X100143533Y-141510775D01*
X100143533Y-141260775D01*
G36*
X100393533Y-141260775D02*
G01*
X100143533Y-141260775D01*
X100143533Y-141510775D01*
X100393533Y-141510775D01*
X100393533Y-141260775D01*
G37*
X100393533Y-141260775D02*
X100143533Y-141260775D01*
X100143533Y-141510775D01*
X100393533Y-141510775D01*
X100393533Y-141260775D01*
G36*
X100643533Y-141260775D02*
G01*
X100393533Y-141260775D01*
X100393533Y-141510775D01*
X100643533Y-141510775D01*
X100643533Y-141260775D01*
G37*
X100643533Y-141260775D02*
X100393533Y-141260775D01*
X100393533Y-141510775D01*
X100643533Y-141510775D01*
X100643533Y-141260775D01*
G36*
X100893533Y-141260775D02*
G01*
X100643533Y-141260775D01*
X100643533Y-141510775D01*
X100893533Y-141510775D01*
X100893533Y-141260775D01*
G37*
X100893533Y-141260775D02*
X100643533Y-141260775D01*
X100643533Y-141510775D01*
X100893533Y-141510775D01*
X100893533Y-141260775D01*
G36*
X101143533Y-141260775D02*
G01*
X100893533Y-141260775D01*
X100893533Y-141510775D01*
X101143533Y-141510775D01*
X101143533Y-141260775D01*
G37*
X101143533Y-141260775D02*
X100893533Y-141260775D01*
X100893533Y-141510775D01*
X101143533Y-141510775D01*
X101143533Y-141260775D01*
G36*
X101393533Y-141260775D02*
G01*
X101143533Y-141260775D01*
X101143533Y-141510775D01*
X101393533Y-141510775D01*
X101393533Y-141260775D01*
G37*
X101393533Y-141260775D02*
X101143533Y-141260775D01*
X101143533Y-141510775D01*
X101393533Y-141510775D01*
X101393533Y-141260775D01*
G36*
X101643533Y-141260775D02*
G01*
X101393533Y-141260775D01*
X101393533Y-141510775D01*
X101643533Y-141510775D01*
X101643533Y-141260775D01*
G37*
X101643533Y-141260775D02*
X101393533Y-141260775D01*
X101393533Y-141510775D01*
X101643533Y-141510775D01*
X101643533Y-141260775D01*
G36*
X101893533Y-141260775D02*
G01*
X101643533Y-141260775D01*
X101643533Y-141510775D01*
X101893533Y-141510775D01*
X101893533Y-141260775D01*
G37*
X101893533Y-141260775D02*
X101643533Y-141260775D01*
X101643533Y-141510775D01*
X101893533Y-141510775D01*
X101893533Y-141260775D01*
G36*
X102143533Y-141260775D02*
G01*
X101893533Y-141260775D01*
X101893533Y-141510775D01*
X102143533Y-141510775D01*
X102143533Y-141260775D01*
G37*
X102143533Y-141260775D02*
X101893533Y-141260775D01*
X101893533Y-141510775D01*
X102143533Y-141510775D01*
X102143533Y-141260775D01*
G36*
X102393533Y-141260775D02*
G01*
X102143533Y-141260775D01*
X102143533Y-141510775D01*
X102393533Y-141510775D01*
X102393533Y-141260775D01*
G37*
X102393533Y-141260775D02*
X102143533Y-141260775D01*
X102143533Y-141510775D01*
X102393533Y-141510775D01*
X102393533Y-141260775D01*
G36*
X102643533Y-141260775D02*
G01*
X102393533Y-141260775D01*
X102393533Y-141510775D01*
X102643533Y-141510775D01*
X102643533Y-141260775D01*
G37*
X102643533Y-141260775D02*
X102393533Y-141260775D01*
X102393533Y-141510775D01*
X102643533Y-141510775D01*
X102643533Y-141260775D01*
G36*
X102893533Y-141260775D02*
G01*
X102643533Y-141260775D01*
X102643533Y-141510775D01*
X102893533Y-141510775D01*
X102893533Y-141260775D01*
G37*
X102893533Y-141260775D02*
X102643533Y-141260775D01*
X102643533Y-141510775D01*
X102893533Y-141510775D01*
X102893533Y-141260775D01*
G36*
X103143533Y-141260775D02*
G01*
X102893533Y-141260775D01*
X102893533Y-141510775D01*
X103143533Y-141510775D01*
X103143533Y-141260775D01*
G37*
X103143533Y-141260775D02*
X102893533Y-141260775D01*
X102893533Y-141510775D01*
X103143533Y-141510775D01*
X103143533Y-141260775D01*
G36*
X103393533Y-141260775D02*
G01*
X103143533Y-141260775D01*
X103143533Y-141510775D01*
X103393533Y-141510775D01*
X103393533Y-141260775D01*
G37*
X103393533Y-141260775D02*
X103143533Y-141260775D01*
X103143533Y-141510775D01*
X103393533Y-141510775D01*
X103393533Y-141260775D01*
G36*
X103643533Y-141260775D02*
G01*
X103393533Y-141260775D01*
X103393533Y-141510775D01*
X103643533Y-141510775D01*
X103643533Y-141260775D01*
G37*
X103643533Y-141260775D02*
X103393533Y-141260775D01*
X103393533Y-141510775D01*
X103643533Y-141510775D01*
X103643533Y-141260775D01*
G36*
X103893533Y-141260775D02*
G01*
X103643533Y-141260775D01*
X103643533Y-141510775D01*
X103893533Y-141510775D01*
X103893533Y-141260775D01*
G37*
X103893533Y-141260775D02*
X103643533Y-141260775D01*
X103643533Y-141510775D01*
X103893533Y-141510775D01*
X103893533Y-141260775D01*
G36*
X104143533Y-141260775D02*
G01*
X103893533Y-141260775D01*
X103893533Y-141510775D01*
X104143533Y-141510775D01*
X104143533Y-141260775D01*
G37*
X104143533Y-141260775D02*
X103893533Y-141260775D01*
X103893533Y-141510775D01*
X104143533Y-141510775D01*
X104143533Y-141260775D01*
G36*
X104393533Y-141260775D02*
G01*
X104143533Y-141260775D01*
X104143533Y-141510775D01*
X104393533Y-141510775D01*
X104393533Y-141260775D01*
G37*
X104393533Y-141260775D02*
X104143533Y-141260775D01*
X104143533Y-141510775D01*
X104393533Y-141510775D01*
X104393533Y-141260775D01*
G36*
X104643533Y-141260775D02*
G01*
X104393533Y-141260775D01*
X104393533Y-141510775D01*
X104643533Y-141510775D01*
X104643533Y-141260775D01*
G37*
X104643533Y-141260775D02*
X104393533Y-141260775D01*
X104393533Y-141510775D01*
X104643533Y-141510775D01*
X104643533Y-141260775D01*
G36*
X104893533Y-141260775D02*
G01*
X104643533Y-141260775D01*
X104643533Y-141510775D01*
X104893533Y-141510775D01*
X104893533Y-141260775D01*
G37*
X104893533Y-141260775D02*
X104643533Y-141260775D01*
X104643533Y-141510775D01*
X104893533Y-141510775D01*
X104893533Y-141260775D01*
G36*
X105143533Y-141260775D02*
G01*
X104893533Y-141260775D01*
X104893533Y-141510775D01*
X105143533Y-141510775D01*
X105143533Y-141260775D01*
G37*
X105143533Y-141260775D02*
X104893533Y-141260775D01*
X104893533Y-141510775D01*
X105143533Y-141510775D01*
X105143533Y-141260775D01*
G36*
X105393533Y-141260775D02*
G01*
X105143533Y-141260775D01*
X105143533Y-141510775D01*
X105393533Y-141510775D01*
X105393533Y-141260775D01*
G37*
X105393533Y-141260775D02*
X105143533Y-141260775D01*
X105143533Y-141510775D01*
X105393533Y-141510775D01*
X105393533Y-141260775D01*
G36*
X105643533Y-141260775D02*
G01*
X105393533Y-141260775D01*
X105393533Y-141510775D01*
X105643533Y-141510775D01*
X105643533Y-141260775D01*
G37*
X105643533Y-141260775D02*
X105393533Y-141260775D01*
X105393533Y-141510775D01*
X105643533Y-141510775D01*
X105643533Y-141260775D01*
G36*
X105893533Y-141260775D02*
G01*
X105643533Y-141260775D01*
X105643533Y-141510775D01*
X105893533Y-141510775D01*
X105893533Y-141260775D01*
G37*
X105893533Y-141260775D02*
X105643533Y-141260775D01*
X105643533Y-141510775D01*
X105893533Y-141510775D01*
X105893533Y-141260775D01*
G36*
X106143533Y-141260775D02*
G01*
X105893533Y-141260775D01*
X105893533Y-141510775D01*
X106143533Y-141510775D01*
X106143533Y-141260775D01*
G37*
X106143533Y-141260775D02*
X105893533Y-141260775D01*
X105893533Y-141510775D01*
X106143533Y-141510775D01*
X106143533Y-141260775D01*
G36*
X106393533Y-141260775D02*
G01*
X106143533Y-141260775D01*
X106143533Y-141510775D01*
X106393533Y-141510775D01*
X106393533Y-141260775D01*
G37*
X106393533Y-141260775D02*
X106143533Y-141260775D01*
X106143533Y-141510775D01*
X106393533Y-141510775D01*
X106393533Y-141260775D01*
G36*
X106643533Y-141260775D02*
G01*
X106393533Y-141260775D01*
X106393533Y-141510775D01*
X106643533Y-141510775D01*
X106643533Y-141260775D01*
G37*
X106643533Y-141260775D02*
X106393533Y-141260775D01*
X106393533Y-141510775D01*
X106643533Y-141510775D01*
X106643533Y-141260775D01*
G36*
X106893533Y-141260775D02*
G01*
X106643533Y-141260775D01*
X106643533Y-141510775D01*
X106893533Y-141510775D01*
X106893533Y-141260775D01*
G37*
X106893533Y-141260775D02*
X106643533Y-141260775D01*
X106643533Y-141510775D01*
X106893533Y-141510775D01*
X106893533Y-141260775D01*
G36*
X107143533Y-141260775D02*
G01*
X106893533Y-141260775D01*
X106893533Y-141510775D01*
X107143533Y-141510775D01*
X107143533Y-141260775D01*
G37*
X107143533Y-141260775D02*
X106893533Y-141260775D01*
X106893533Y-141510775D01*
X107143533Y-141510775D01*
X107143533Y-141260775D01*
G36*
X107393533Y-141260775D02*
G01*
X107143533Y-141260775D01*
X107143533Y-141510775D01*
X107393533Y-141510775D01*
X107393533Y-141260775D01*
G37*
X107393533Y-141260775D02*
X107143533Y-141260775D01*
X107143533Y-141510775D01*
X107393533Y-141510775D01*
X107393533Y-141260775D01*
G36*
X107643533Y-141260775D02*
G01*
X107393533Y-141260775D01*
X107393533Y-141510775D01*
X107643533Y-141510775D01*
X107643533Y-141260775D01*
G37*
X107643533Y-141260775D02*
X107393533Y-141260775D01*
X107393533Y-141510775D01*
X107643533Y-141510775D01*
X107643533Y-141260775D01*
G36*
X107893533Y-141260775D02*
G01*
X107643533Y-141260775D01*
X107643533Y-141510775D01*
X107893533Y-141510775D01*
X107893533Y-141260775D01*
G37*
X107893533Y-141260775D02*
X107643533Y-141260775D01*
X107643533Y-141510775D01*
X107893533Y-141510775D01*
X107893533Y-141260775D01*
G36*
X108143533Y-141260775D02*
G01*
X107893533Y-141260775D01*
X107893533Y-141510775D01*
X108143533Y-141510775D01*
X108143533Y-141260775D01*
G37*
X108143533Y-141260775D02*
X107893533Y-141260775D01*
X107893533Y-141510775D01*
X108143533Y-141510775D01*
X108143533Y-141260775D01*
G36*
X108393533Y-141260775D02*
G01*
X108143533Y-141260775D01*
X108143533Y-141510775D01*
X108393533Y-141510775D01*
X108393533Y-141260775D01*
G37*
X108393533Y-141260775D02*
X108143533Y-141260775D01*
X108143533Y-141510775D01*
X108393533Y-141510775D01*
X108393533Y-141260775D01*
G36*
X108643533Y-141260775D02*
G01*
X108393533Y-141260775D01*
X108393533Y-141510775D01*
X108643533Y-141510775D01*
X108643533Y-141260775D01*
G37*
X108643533Y-141260775D02*
X108393533Y-141260775D01*
X108393533Y-141510775D01*
X108643533Y-141510775D01*
X108643533Y-141260775D01*
G36*
X108893533Y-141260775D02*
G01*
X108643533Y-141260775D01*
X108643533Y-141510775D01*
X108893533Y-141510775D01*
X108893533Y-141260775D01*
G37*
X108893533Y-141260775D02*
X108643533Y-141260775D01*
X108643533Y-141510775D01*
X108893533Y-141510775D01*
X108893533Y-141260775D01*
G36*
X109143533Y-141260775D02*
G01*
X108893533Y-141260775D01*
X108893533Y-141510775D01*
X109143533Y-141510775D01*
X109143533Y-141260775D01*
G37*
X109143533Y-141260775D02*
X108893533Y-141260775D01*
X108893533Y-141510775D01*
X109143533Y-141510775D01*
X109143533Y-141260775D01*
G36*
X109393533Y-141260775D02*
G01*
X109143533Y-141260775D01*
X109143533Y-141510775D01*
X109393533Y-141510775D01*
X109393533Y-141260775D01*
G37*
X109393533Y-141260775D02*
X109143533Y-141260775D01*
X109143533Y-141510775D01*
X109393533Y-141510775D01*
X109393533Y-141260775D01*
G36*
X109643533Y-141260775D02*
G01*
X109393533Y-141260775D01*
X109393533Y-141510775D01*
X109643533Y-141510775D01*
X109643533Y-141260775D01*
G37*
X109643533Y-141260775D02*
X109393533Y-141260775D01*
X109393533Y-141510775D01*
X109643533Y-141510775D01*
X109643533Y-141260775D01*
G36*
X98143533Y-141010775D02*
G01*
X97893533Y-141010775D01*
X97893533Y-141260775D01*
X98143533Y-141260775D01*
X98143533Y-141010775D01*
G37*
X98143533Y-141010775D02*
X97893533Y-141010775D01*
X97893533Y-141260775D01*
X98143533Y-141260775D01*
X98143533Y-141010775D01*
G36*
X109643533Y-141010775D02*
G01*
X109393533Y-141010775D01*
X109393533Y-141260775D01*
X109643533Y-141260775D01*
X109643533Y-141010775D01*
G37*
X109643533Y-141010775D02*
X109393533Y-141010775D01*
X109393533Y-141260775D01*
X109643533Y-141260775D01*
X109643533Y-141010775D01*
G36*
X98143533Y-140760775D02*
G01*
X97893533Y-140760775D01*
X97893533Y-141010775D01*
X98143533Y-141010775D01*
X98143533Y-140760775D01*
G37*
X98143533Y-140760775D02*
X97893533Y-140760775D01*
X97893533Y-141010775D01*
X98143533Y-141010775D01*
X98143533Y-140760775D01*
G36*
X100643533Y-140760775D02*
G01*
X100393533Y-140760775D01*
X100393533Y-141010775D01*
X100643533Y-141010775D01*
X100643533Y-140760775D01*
G37*
X100643533Y-140760775D02*
X100393533Y-140760775D01*
X100393533Y-141010775D01*
X100643533Y-141010775D01*
X100643533Y-140760775D01*
G36*
X101143533Y-140760775D02*
G01*
X100893533Y-140760775D01*
X100893533Y-141010775D01*
X101143533Y-141010775D01*
X101143533Y-140760775D01*
G37*
X101143533Y-140760775D02*
X100893533Y-140760775D01*
X100893533Y-141010775D01*
X101143533Y-141010775D01*
X101143533Y-140760775D01*
G36*
X101393533Y-140760775D02*
G01*
X101143533Y-140760775D01*
X101143533Y-141010775D01*
X101393533Y-141010775D01*
X101393533Y-140760775D01*
G37*
X101393533Y-140760775D02*
X101143533Y-140760775D01*
X101143533Y-141010775D01*
X101393533Y-141010775D01*
X101393533Y-140760775D01*
G36*
X101893533Y-140760775D02*
G01*
X101643533Y-140760775D01*
X101643533Y-141010775D01*
X101893533Y-141010775D01*
X101893533Y-140760775D01*
G37*
X101893533Y-140760775D02*
X101643533Y-140760775D01*
X101643533Y-141010775D01*
X101893533Y-141010775D01*
X101893533Y-140760775D01*
G36*
X102143533Y-140760775D02*
G01*
X101893533Y-140760775D01*
X101893533Y-141010775D01*
X102143533Y-141010775D01*
X102143533Y-140760775D01*
G37*
X102143533Y-140760775D02*
X101893533Y-140760775D01*
X101893533Y-141010775D01*
X102143533Y-141010775D01*
X102143533Y-140760775D01*
G36*
X102893533Y-140760775D02*
G01*
X102643533Y-140760775D01*
X102643533Y-141010775D01*
X102893533Y-141010775D01*
X102893533Y-140760775D01*
G37*
X102893533Y-140760775D02*
X102643533Y-140760775D01*
X102643533Y-141010775D01*
X102893533Y-141010775D01*
X102893533Y-140760775D01*
G36*
X103393533Y-140760775D02*
G01*
X103143533Y-140760775D01*
X103143533Y-141010775D01*
X103393533Y-141010775D01*
X103393533Y-140760775D01*
G37*
X103393533Y-140760775D02*
X103143533Y-140760775D01*
X103143533Y-141010775D01*
X103393533Y-141010775D01*
X103393533Y-140760775D01*
G36*
X103643533Y-140760775D02*
G01*
X103393533Y-140760775D01*
X103393533Y-141010775D01*
X103643533Y-141010775D01*
X103643533Y-140760775D01*
G37*
X103643533Y-140760775D02*
X103393533Y-140760775D01*
X103393533Y-141010775D01*
X103643533Y-141010775D01*
X103643533Y-140760775D01*
G36*
X104393533Y-140760775D02*
G01*
X104143533Y-140760775D01*
X104143533Y-141010775D01*
X104393533Y-141010775D01*
X104393533Y-140760775D01*
G37*
X104393533Y-140760775D02*
X104143533Y-140760775D01*
X104143533Y-141010775D01*
X104393533Y-141010775D01*
X104393533Y-140760775D01*
G36*
X104643533Y-140760775D02*
G01*
X104393533Y-140760775D01*
X104393533Y-141010775D01*
X104643533Y-141010775D01*
X104643533Y-140760775D01*
G37*
X104643533Y-140760775D02*
X104393533Y-140760775D01*
X104393533Y-141010775D01*
X104643533Y-141010775D01*
X104643533Y-140760775D01*
G36*
X105143533Y-140760775D02*
G01*
X104893533Y-140760775D01*
X104893533Y-141010775D01*
X105143533Y-141010775D01*
X105143533Y-140760775D01*
G37*
X105143533Y-140760775D02*
X104893533Y-140760775D01*
X104893533Y-141010775D01*
X105143533Y-141010775D01*
X105143533Y-140760775D01*
G36*
X105893533Y-140760775D02*
G01*
X105643533Y-140760775D01*
X105643533Y-141010775D01*
X105893533Y-141010775D01*
X105893533Y-140760775D01*
G37*
X105893533Y-140760775D02*
X105643533Y-140760775D01*
X105643533Y-141010775D01*
X105893533Y-141010775D01*
X105893533Y-140760775D01*
G36*
X106393533Y-140760775D02*
G01*
X106143533Y-140760775D01*
X106143533Y-141010775D01*
X106393533Y-141010775D01*
X106393533Y-140760775D01*
G37*
X106393533Y-140760775D02*
X106143533Y-140760775D01*
X106143533Y-141010775D01*
X106393533Y-141010775D01*
X106393533Y-140760775D01*
G36*
X106643533Y-140760775D02*
G01*
X106393533Y-140760775D01*
X106393533Y-141010775D01*
X106643533Y-141010775D01*
X106643533Y-140760775D01*
G37*
X106643533Y-140760775D02*
X106393533Y-140760775D01*
X106393533Y-141010775D01*
X106643533Y-141010775D01*
X106643533Y-140760775D01*
G36*
X107143533Y-140760775D02*
G01*
X106893533Y-140760775D01*
X106893533Y-141010775D01*
X107143533Y-141010775D01*
X107143533Y-140760775D01*
G37*
X107143533Y-140760775D02*
X106893533Y-140760775D01*
X106893533Y-141010775D01*
X107143533Y-141010775D01*
X107143533Y-140760775D01*
G36*
X107393533Y-140760775D02*
G01*
X107143533Y-140760775D01*
X107143533Y-141010775D01*
X107393533Y-141010775D01*
X107393533Y-140760775D01*
G37*
X107393533Y-140760775D02*
X107143533Y-140760775D01*
X107143533Y-141010775D01*
X107393533Y-141010775D01*
X107393533Y-140760775D01*
G36*
X109643533Y-140760775D02*
G01*
X109393533Y-140760775D01*
X109393533Y-141010775D01*
X109643533Y-141010775D01*
X109643533Y-140760775D01*
G37*
X109643533Y-140760775D02*
X109393533Y-140760775D01*
X109393533Y-141010775D01*
X109643533Y-141010775D01*
X109643533Y-140760775D01*
G36*
X98143533Y-140510775D02*
G01*
X97893533Y-140510775D01*
X97893533Y-140760775D01*
X98143533Y-140760775D01*
X98143533Y-140510775D01*
G37*
X98143533Y-140510775D02*
X97893533Y-140510775D01*
X97893533Y-140760775D01*
X98143533Y-140760775D01*
X98143533Y-140510775D01*
G36*
X109643533Y-140510775D02*
G01*
X109393533Y-140510775D01*
X109393533Y-140760775D01*
X109643533Y-140760775D01*
X109643533Y-140510775D01*
G37*
X109643533Y-140510775D02*
X109393533Y-140510775D01*
X109393533Y-140760775D01*
X109643533Y-140760775D01*
X109643533Y-140510775D01*
G36*
X98143533Y-140260775D02*
G01*
X97893533Y-140260775D01*
X97893533Y-140510775D01*
X98143533Y-140510775D01*
X98143533Y-140260775D01*
G37*
X98143533Y-140260775D02*
X97893533Y-140260775D01*
X97893533Y-140510775D01*
X98143533Y-140510775D01*
X98143533Y-140260775D01*
G36*
X99143533Y-140260775D02*
G01*
X98893533Y-140260775D01*
X98893533Y-140510775D01*
X99143533Y-140510775D01*
X99143533Y-140260775D01*
G37*
X99143533Y-140260775D02*
X98893533Y-140260775D01*
X98893533Y-140510775D01*
X99143533Y-140510775D01*
X99143533Y-140260775D01*
G36*
X99643533Y-140260775D02*
G01*
X99393533Y-140260775D01*
X99393533Y-140510775D01*
X99643533Y-140510775D01*
X99643533Y-140260775D01*
G37*
X99643533Y-140260775D02*
X99393533Y-140260775D01*
X99393533Y-140510775D01*
X99643533Y-140510775D01*
X99643533Y-140260775D01*
G36*
X100893533Y-140260775D02*
G01*
X100643533Y-140260775D01*
X100643533Y-140510775D01*
X100893533Y-140510775D01*
X100893533Y-140260775D01*
G37*
X100893533Y-140260775D02*
X100643533Y-140260775D01*
X100643533Y-140510775D01*
X100893533Y-140510775D01*
X100893533Y-140260775D01*
G36*
X101143533Y-140260775D02*
G01*
X100893533Y-140260775D01*
X100893533Y-140510775D01*
X101143533Y-140510775D01*
X101143533Y-140260775D01*
G37*
X101143533Y-140260775D02*
X100893533Y-140260775D01*
X100893533Y-140510775D01*
X101143533Y-140510775D01*
X101143533Y-140260775D01*
G36*
X101393533Y-140260775D02*
G01*
X101143533Y-140260775D01*
X101143533Y-140510775D01*
X101393533Y-140510775D01*
X101393533Y-140260775D01*
G37*
X101393533Y-140260775D02*
X101143533Y-140260775D01*
X101143533Y-140510775D01*
X101393533Y-140510775D01*
X101393533Y-140260775D01*
G36*
X101893533Y-140260775D02*
G01*
X101643533Y-140260775D01*
X101643533Y-140510775D01*
X101893533Y-140510775D01*
X101893533Y-140260775D01*
G37*
X101893533Y-140260775D02*
X101643533Y-140260775D01*
X101643533Y-140510775D01*
X101893533Y-140510775D01*
X101893533Y-140260775D01*
G36*
X102393533Y-140260775D02*
G01*
X102143533Y-140260775D01*
X102143533Y-140510775D01*
X102393533Y-140510775D01*
X102393533Y-140260775D01*
G37*
X102393533Y-140260775D02*
X102143533Y-140260775D01*
X102143533Y-140510775D01*
X102393533Y-140510775D01*
X102393533Y-140260775D01*
G36*
X102893533Y-140260775D02*
G01*
X102643533Y-140260775D01*
X102643533Y-140510775D01*
X102893533Y-140510775D01*
X102893533Y-140260775D01*
G37*
X102893533Y-140260775D02*
X102643533Y-140260775D01*
X102643533Y-140510775D01*
X102893533Y-140510775D01*
X102893533Y-140260775D01*
G36*
X103143533Y-140260775D02*
G01*
X102893533Y-140260775D01*
X102893533Y-140510775D01*
X103143533Y-140510775D01*
X103143533Y-140260775D01*
G37*
X103143533Y-140260775D02*
X102893533Y-140260775D01*
X102893533Y-140510775D01*
X103143533Y-140510775D01*
X103143533Y-140260775D01*
G36*
X103393533Y-140260775D02*
G01*
X103143533Y-140260775D01*
X103143533Y-140510775D01*
X103393533Y-140510775D01*
X103393533Y-140260775D01*
G37*
X103393533Y-140260775D02*
X103143533Y-140260775D01*
X103143533Y-140510775D01*
X103393533Y-140510775D01*
X103393533Y-140260775D01*
G36*
X103893533Y-140260775D02*
G01*
X103643533Y-140260775D01*
X103643533Y-140510775D01*
X103893533Y-140510775D01*
X103893533Y-140260775D01*
G37*
X103893533Y-140260775D02*
X103643533Y-140260775D01*
X103643533Y-140510775D01*
X103893533Y-140510775D01*
X103893533Y-140260775D01*
G36*
X104143533Y-140260775D02*
G01*
X103893533Y-140260775D01*
X103893533Y-140510775D01*
X104143533Y-140510775D01*
X104143533Y-140260775D01*
G37*
X104143533Y-140260775D02*
X103893533Y-140260775D01*
X103893533Y-140510775D01*
X104143533Y-140510775D01*
X104143533Y-140260775D01*
G36*
X104393533Y-140260775D02*
G01*
X104143533Y-140260775D01*
X104143533Y-140510775D01*
X104393533Y-140510775D01*
X104393533Y-140260775D01*
G37*
X104393533Y-140260775D02*
X104143533Y-140260775D01*
X104143533Y-140510775D01*
X104393533Y-140510775D01*
X104393533Y-140260775D01*
G36*
X104893533Y-140260775D02*
G01*
X104643533Y-140260775D01*
X104643533Y-140510775D01*
X104893533Y-140510775D01*
X104893533Y-140260775D01*
G37*
X104893533Y-140260775D02*
X104643533Y-140260775D01*
X104643533Y-140510775D01*
X104893533Y-140510775D01*
X104893533Y-140260775D01*
G36*
X105893533Y-140260775D02*
G01*
X105643533Y-140260775D01*
X105643533Y-140510775D01*
X105893533Y-140510775D01*
X105893533Y-140260775D01*
G37*
X105893533Y-140260775D02*
X105643533Y-140260775D01*
X105643533Y-140510775D01*
X105893533Y-140510775D01*
X105893533Y-140260775D01*
G36*
X106893533Y-140260775D02*
G01*
X106643533Y-140260775D01*
X106643533Y-140510775D01*
X106893533Y-140510775D01*
X106893533Y-140260775D01*
G37*
X106893533Y-140260775D02*
X106643533Y-140260775D01*
X106643533Y-140510775D01*
X106893533Y-140510775D01*
X106893533Y-140260775D01*
G36*
X107393533Y-140260775D02*
G01*
X107143533Y-140260775D01*
X107143533Y-140510775D01*
X107393533Y-140510775D01*
X107393533Y-140260775D01*
G37*
X107393533Y-140260775D02*
X107143533Y-140260775D01*
X107143533Y-140510775D01*
X107393533Y-140510775D01*
X107393533Y-140260775D01*
G36*
X107893533Y-140260775D02*
G01*
X107643533Y-140260775D01*
X107643533Y-140510775D01*
X107893533Y-140510775D01*
X107893533Y-140260775D01*
G37*
X107893533Y-140260775D02*
X107643533Y-140260775D01*
X107643533Y-140510775D01*
X107893533Y-140510775D01*
X107893533Y-140260775D01*
G36*
X108393533Y-140260775D02*
G01*
X108143533Y-140260775D01*
X108143533Y-140510775D01*
X108393533Y-140510775D01*
X108393533Y-140260775D01*
G37*
X108393533Y-140260775D02*
X108143533Y-140260775D01*
X108143533Y-140510775D01*
X108393533Y-140510775D01*
X108393533Y-140260775D01*
G36*
X109143533Y-140260775D02*
G01*
X108893533Y-140260775D01*
X108893533Y-140510775D01*
X109143533Y-140510775D01*
X109143533Y-140260775D01*
G37*
X109143533Y-140260775D02*
X108893533Y-140260775D01*
X108893533Y-140510775D01*
X109143533Y-140510775D01*
X109143533Y-140260775D01*
G36*
X109643533Y-140260775D02*
G01*
X109393533Y-140260775D01*
X109393533Y-140510775D01*
X109643533Y-140510775D01*
X109643533Y-140260775D01*
G37*
X109643533Y-140260775D02*
X109393533Y-140260775D01*
X109393533Y-140510775D01*
X109643533Y-140510775D01*
X109643533Y-140260775D01*
G36*
X98143533Y-140010775D02*
G01*
X97893533Y-140010775D01*
X97893533Y-140260775D01*
X98143533Y-140260775D01*
X98143533Y-140010775D01*
G37*
X98143533Y-140010775D02*
X97893533Y-140010775D01*
X97893533Y-140260775D01*
X98143533Y-140260775D01*
X98143533Y-140010775D01*
G36*
X99143533Y-140010775D02*
G01*
X98893533Y-140010775D01*
X98893533Y-140260775D01*
X99143533Y-140260775D01*
X99143533Y-140010775D01*
G37*
X99143533Y-140010775D02*
X98893533Y-140010775D01*
X98893533Y-140260775D01*
X99143533Y-140260775D01*
X99143533Y-140010775D01*
G36*
X99643533Y-140010775D02*
G01*
X99393533Y-140010775D01*
X99393533Y-140260775D01*
X99643533Y-140260775D01*
X99643533Y-140010775D01*
G37*
X99643533Y-140010775D02*
X99393533Y-140010775D01*
X99393533Y-140260775D01*
X99643533Y-140260775D01*
X99643533Y-140010775D01*
G36*
X100893533Y-140010775D02*
G01*
X100643533Y-140010775D01*
X100643533Y-140260775D01*
X100893533Y-140260775D01*
X100893533Y-140010775D01*
G37*
X100893533Y-140010775D02*
X100643533Y-140010775D01*
X100643533Y-140260775D01*
X100893533Y-140260775D01*
X100893533Y-140010775D01*
G36*
X101393533Y-140010775D02*
G01*
X101143533Y-140010775D01*
X101143533Y-140260775D01*
X101393533Y-140260775D01*
X101393533Y-140010775D01*
G37*
X101393533Y-140010775D02*
X101143533Y-140010775D01*
X101143533Y-140260775D01*
X101393533Y-140260775D01*
X101393533Y-140010775D01*
G36*
X101893533Y-140010775D02*
G01*
X101643533Y-140010775D01*
X101643533Y-140260775D01*
X101893533Y-140260775D01*
X101893533Y-140010775D01*
G37*
X101893533Y-140010775D02*
X101643533Y-140010775D01*
X101643533Y-140260775D01*
X101893533Y-140260775D01*
X101893533Y-140010775D01*
G36*
X102393533Y-140010775D02*
G01*
X102143533Y-140010775D01*
X102143533Y-140260775D01*
X102393533Y-140260775D01*
X102393533Y-140010775D01*
G37*
X102393533Y-140010775D02*
X102143533Y-140010775D01*
X102143533Y-140260775D01*
X102393533Y-140260775D01*
X102393533Y-140010775D01*
G36*
X103393533Y-140010775D02*
G01*
X103143533Y-140010775D01*
X103143533Y-140260775D01*
X103393533Y-140260775D01*
X103393533Y-140010775D01*
G37*
X103393533Y-140010775D02*
X103143533Y-140010775D01*
X103143533Y-140260775D01*
X103393533Y-140260775D01*
X103393533Y-140010775D01*
G36*
X104143533Y-140010775D02*
G01*
X103893533Y-140010775D01*
X103893533Y-140260775D01*
X104143533Y-140260775D01*
X104143533Y-140010775D01*
G37*
X104143533Y-140010775D02*
X103893533Y-140010775D01*
X103893533Y-140260775D01*
X104143533Y-140260775D01*
X104143533Y-140010775D01*
G36*
X104893533Y-140010775D02*
G01*
X104643533Y-140010775D01*
X104643533Y-140260775D01*
X104893533Y-140260775D01*
X104893533Y-140010775D01*
G37*
X104893533Y-140010775D02*
X104643533Y-140010775D01*
X104643533Y-140260775D01*
X104893533Y-140260775D01*
X104893533Y-140010775D01*
G36*
X105893533Y-140010775D02*
G01*
X105643533Y-140010775D01*
X105643533Y-140260775D01*
X105893533Y-140260775D01*
X105893533Y-140010775D01*
G37*
X105893533Y-140010775D02*
X105643533Y-140010775D01*
X105643533Y-140260775D01*
X105893533Y-140260775D01*
X105893533Y-140010775D01*
G36*
X106893533Y-140010775D02*
G01*
X106643533Y-140010775D01*
X106643533Y-140260775D01*
X106893533Y-140260775D01*
X106893533Y-140010775D01*
G37*
X106893533Y-140010775D02*
X106643533Y-140010775D01*
X106643533Y-140260775D01*
X106893533Y-140260775D01*
X106893533Y-140010775D01*
G36*
X107393533Y-140010775D02*
G01*
X107143533Y-140010775D01*
X107143533Y-140260775D01*
X107393533Y-140260775D01*
X107393533Y-140010775D01*
G37*
X107393533Y-140010775D02*
X107143533Y-140010775D01*
X107143533Y-140260775D01*
X107393533Y-140260775D01*
X107393533Y-140010775D01*
G36*
X107893533Y-140010775D02*
G01*
X107643533Y-140010775D01*
X107643533Y-140260775D01*
X107893533Y-140260775D01*
X107893533Y-140010775D01*
G37*
X107893533Y-140010775D02*
X107643533Y-140010775D01*
X107643533Y-140260775D01*
X107893533Y-140260775D01*
X107893533Y-140010775D01*
G36*
X108393533Y-140010775D02*
G01*
X108143533Y-140010775D01*
X108143533Y-140260775D01*
X108393533Y-140260775D01*
X108393533Y-140010775D01*
G37*
X108393533Y-140010775D02*
X108143533Y-140010775D01*
X108143533Y-140260775D01*
X108393533Y-140260775D01*
X108393533Y-140010775D01*
G36*
X109143533Y-140010775D02*
G01*
X108893533Y-140010775D01*
X108893533Y-140260775D01*
X109143533Y-140260775D01*
X109143533Y-140010775D01*
G37*
X109143533Y-140010775D02*
X108893533Y-140010775D01*
X108893533Y-140260775D01*
X109143533Y-140260775D01*
X109143533Y-140010775D01*
G36*
X109643533Y-140010775D02*
G01*
X109393533Y-140010775D01*
X109393533Y-140260775D01*
X109643533Y-140260775D01*
X109643533Y-140010775D01*
G37*
X109643533Y-140010775D02*
X109393533Y-140010775D01*
X109393533Y-140260775D01*
X109643533Y-140260775D01*
X109643533Y-140010775D01*
G36*
X98143533Y-139760775D02*
G01*
X97893533Y-139760775D01*
X97893533Y-140010775D01*
X98143533Y-140010775D01*
X98143533Y-139760775D01*
G37*
X98143533Y-139760775D02*
X97893533Y-139760775D01*
X97893533Y-140010775D01*
X98143533Y-140010775D01*
X98143533Y-139760775D01*
G36*
X98893533Y-139760775D02*
G01*
X98643533Y-139760775D01*
X98643533Y-140010775D01*
X98893533Y-140010775D01*
X98893533Y-139760775D01*
G37*
X98893533Y-139760775D02*
X98643533Y-139760775D01*
X98643533Y-140010775D01*
X98893533Y-140010775D01*
X98893533Y-139760775D01*
G36*
X99143533Y-139760775D02*
G01*
X98893533Y-139760775D01*
X98893533Y-140010775D01*
X99143533Y-140010775D01*
X99143533Y-139760775D01*
G37*
X99143533Y-139760775D02*
X98893533Y-139760775D01*
X98893533Y-140010775D01*
X99143533Y-140010775D01*
X99143533Y-139760775D01*
G36*
X99393533Y-139760775D02*
G01*
X99143533Y-139760775D01*
X99143533Y-140010775D01*
X99393533Y-140010775D01*
X99393533Y-139760775D01*
G37*
X99393533Y-139760775D02*
X99143533Y-139760775D01*
X99143533Y-140010775D01*
X99393533Y-140010775D01*
X99393533Y-139760775D01*
G36*
X99643533Y-139760775D02*
G01*
X99393533Y-139760775D01*
X99393533Y-140010775D01*
X99643533Y-140010775D01*
X99643533Y-139760775D01*
G37*
X99643533Y-139760775D02*
X99393533Y-139760775D01*
X99393533Y-140010775D01*
X99643533Y-140010775D01*
X99643533Y-139760775D01*
G36*
X100143533Y-139760775D02*
G01*
X99893533Y-139760775D01*
X99893533Y-140010775D01*
X100143533Y-140010775D01*
X100143533Y-139760775D01*
G37*
X100143533Y-139760775D02*
X99893533Y-139760775D01*
X99893533Y-140010775D01*
X100143533Y-140010775D01*
X100143533Y-139760775D01*
G36*
X100393533Y-139760775D02*
G01*
X100143533Y-139760775D01*
X100143533Y-140010775D01*
X100393533Y-140010775D01*
X100393533Y-139760775D01*
G37*
X100393533Y-139760775D02*
X100143533Y-139760775D01*
X100143533Y-140010775D01*
X100393533Y-140010775D01*
X100393533Y-139760775D01*
G36*
X100893533Y-139760775D02*
G01*
X100643533Y-139760775D01*
X100643533Y-140010775D01*
X100893533Y-140010775D01*
X100893533Y-139760775D01*
G37*
X100893533Y-139760775D02*
X100643533Y-139760775D01*
X100643533Y-140010775D01*
X100893533Y-140010775D01*
X100893533Y-139760775D01*
G36*
X101393533Y-139760775D02*
G01*
X101143533Y-139760775D01*
X101143533Y-140010775D01*
X101393533Y-140010775D01*
X101393533Y-139760775D01*
G37*
X101393533Y-139760775D02*
X101143533Y-139760775D01*
X101143533Y-140010775D01*
X101393533Y-140010775D01*
X101393533Y-139760775D01*
G36*
X102143533Y-139760775D02*
G01*
X101893533Y-139760775D01*
X101893533Y-140010775D01*
X102143533Y-140010775D01*
X102143533Y-139760775D01*
G37*
X102143533Y-139760775D02*
X101893533Y-139760775D01*
X101893533Y-140010775D01*
X102143533Y-140010775D01*
X102143533Y-139760775D01*
G36*
X102393533Y-139760775D02*
G01*
X102143533Y-139760775D01*
X102143533Y-140010775D01*
X102393533Y-140010775D01*
X102393533Y-139760775D01*
G37*
X102393533Y-139760775D02*
X102143533Y-139760775D01*
X102143533Y-140010775D01*
X102393533Y-140010775D01*
X102393533Y-139760775D01*
G36*
X103393533Y-139760775D02*
G01*
X103143533Y-139760775D01*
X103143533Y-140010775D01*
X103393533Y-140010775D01*
X103393533Y-139760775D01*
G37*
X103393533Y-139760775D02*
X103143533Y-139760775D01*
X103143533Y-140010775D01*
X103393533Y-140010775D01*
X103393533Y-139760775D01*
G36*
X104143533Y-139760775D02*
G01*
X103893533Y-139760775D01*
X103893533Y-140010775D01*
X104143533Y-140010775D01*
X104143533Y-139760775D01*
G37*
X104143533Y-139760775D02*
X103893533Y-139760775D01*
X103893533Y-140010775D01*
X104143533Y-140010775D01*
X104143533Y-139760775D01*
G36*
X104893533Y-139760775D02*
G01*
X104643533Y-139760775D01*
X104643533Y-140010775D01*
X104893533Y-140010775D01*
X104893533Y-139760775D01*
G37*
X104893533Y-139760775D02*
X104643533Y-139760775D01*
X104643533Y-140010775D01*
X104893533Y-140010775D01*
X104893533Y-139760775D01*
G36*
X105393533Y-139760775D02*
G01*
X105143533Y-139760775D01*
X105143533Y-140010775D01*
X105393533Y-140010775D01*
X105393533Y-139760775D01*
G37*
X105393533Y-139760775D02*
X105143533Y-139760775D01*
X105143533Y-140010775D01*
X105393533Y-140010775D01*
X105393533Y-139760775D01*
G36*
X105893533Y-139760775D02*
G01*
X105643533Y-139760775D01*
X105643533Y-140010775D01*
X105893533Y-140010775D01*
X105893533Y-139760775D01*
G37*
X105893533Y-139760775D02*
X105643533Y-139760775D01*
X105643533Y-140010775D01*
X105893533Y-140010775D01*
X105893533Y-139760775D01*
G36*
X106643533Y-139760775D02*
G01*
X106393533Y-139760775D01*
X106393533Y-140010775D01*
X106643533Y-140010775D01*
X106643533Y-139760775D01*
G37*
X106643533Y-139760775D02*
X106393533Y-139760775D01*
X106393533Y-140010775D01*
X106643533Y-140010775D01*
X106643533Y-139760775D01*
G36*
X106893533Y-139760775D02*
G01*
X106643533Y-139760775D01*
X106643533Y-140010775D01*
X106893533Y-140010775D01*
X106893533Y-139760775D01*
G37*
X106893533Y-139760775D02*
X106643533Y-139760775D01*
X106643533Y-140010775D01*
X106893533Y-140010775D01*
X106893533Y-139760775D01*
G36*
X107643533Y-139760775D02*
G01*
X107393533Y-139760775D01*
X107393533Y-140010775D01*
X107643533Y-140010775D01*
X107643533Y-139760775D01*
G37*
X107643533Y-139760775D02*
X107393533Y-139760775D01*
X107393533Y-140010775D01*
X107643533Y-140010775D01*
X107643533Y-139760775D01*
G36*
X107893533Y-139760775D02*
G01*
X107643533Y-139760775D01*
X107643533Y-140010775D01*
X107893533Y-140010775D01*
X107893533Y-139760775D01*
G37*
X107893533Y-139760775D02*
X107643533Y-139760775D01*
X107643533Y-140010775D01*
X107893533Y-140010775D01*
X107893533Y-139760775D01*
G36*
X108393533Y-139760775D02*
G01*
X108143533Y-139760775D01*
X108143533Y-140010775D01*
X108393533Y-140010775D01*
X108393533Y-139760775D01*
G37*
X108393533Y-139760775D02*
X108143533Y-139760775D01*
X108143533Y-140010775D01*
X108393533Y-140010775D01*
X108393533Y-139760775D01*
G36*
X108643533Y-139760775D02*
G01*
X108393533Y-139760775D01*
X108393533Y-140010775D01*
X108643533Y-140010775D01*
X108643533Y-139760775D01*
G37*
X108643533Y-139760775D02*
X108393533Y-139760775D01*
X108393533Y-140010775D01*
X108643533Y-140010775D01*
X108643533Y-139760775D01*
G36*
X109143533Y-139760775D02*
G01*
X108893533Y-139760775D01*
X108893533Y-140010775D01*
X109143533Y-140010775D01*
X109143533Y-139760775D01*
G37*
X109143533Y-139760775D02*
X108893533Y-139760775D01*
X108893533Y-140010775D01*
X109143533Y-140010775D01*
X109143533Y-139760775D01*
G36*
X109643533Y-139760775D02*
G01*
X109393533Y-139760775D01*
X109393533Y-140010775D01*
X109643533Y-140010775D01*
X109643533Y-139760775D01*
G37*
X109643533Y-139760775D02*
X109393533Y-139760775D01*
X109393533Y-140010775D01*
X109643533Y-140010775D01*
X109643533Y-139760775D01*
G36*
X98143533Y-139510775D02*
G01*
X97893533Y-139510775D01*
X97893533Y-139760775D01*
X98143533Y-139760775D01*
X98143533Y-139510775D01*
G37*
X98143533Y-139510775D02*
X97893533Y-139510775D01*
X97893533Y-139760775D01*
X98143533Y-139760775D01*
X98143533Y-139510775D01*
G36*
X99143533Y-139510775D02*
G01*
X98893533Y-139510775D01*
X98893533Y-139760775D01*
X99143533Y-139760775D01*
X99143533Y-139510775D01*
G37*
X99143533Y-139510775D02*
X98893533Y-139510775D01*
X98893533Y-139760775D01*
X99143533Y-139760775D01*
X99143533Y-139510775D01*
G36*
X99643533Y-139510775D02*
G01*
X99393533Y-139510775D01*
X99393533Y-139760775D01*
X99643533Y-139760775D01*
X99643533Y-139510775D01*
G37*
X99643533Y-139510775D02*
X99393533Y-139510775D01*
X99393533Y-139760775D01*
X99643533Y-139760775D01*
X99643533Y-139510775D01*
G36*
X100893533Y-139510775D02*
G01*
X100643533Y-139510775D01*
X100643533Y-139760775D01*
X100893533Y-139760775D01*
X100893533Y-139510775D01*
G37*
X100893533Y-139510775D02*
X100643533Y-139510775D01*
X100643533Y-139760775D01*
X100893533Y-139760775D01*
X100893533Y-139510775D01*
G36*
X101393533Y-139510775D02*
G01*
X101143533Y-139510775D01*
X101143533Y-139760775D01*
X101393533Y-139760775D01*
X101393533Y-139510775D01*
G37*
X101393533Y-139510775D02*
X101143533Y-139510775D01*
X101143533Y-139760775D01*
X101393533Y-139760775D01*
X101393533Y-139510775D01*
G36*
X101893533Y-139510775D02*
G01*
X101643533Y-139510775D01*
X101643533Y-139760775D01*
X101893533Y-139760775D01*
X101893533Y-139510775D01*
G37*
X101893533Y-139510775D02*
X101643533Y-139510775D01*
X101643533Y-139760775D01*
X101893533Y-139760775D01*
X101893533Y-139510775D01*
G36*
X102393533Y-139510775D02*
G01*
X102143533Y-139510775D01*
X102143533Y-139760775D01*
X102393533Y-139760775D01*
X102393533Y-139510775D01*
G37*
X102393533Y-139510775D02*
X102143533Y-139510775D01*
X102143533Y-139760775D01*
X102393533Y-139760775D01*
X102393533Y-139510775D01*
G36*
X103393533Y-139510775D02*
G01*
X103143533Y-139510775D01*
X103143533Y-139760775D01*
X103393533Y-139760775D01*
X103393533Y-139510775D01*
G37*
X103393533Y-139510775D02*
X103143533Y-139510775D01*
X103143533Y-139760775D01*
X103393533Y-139760775D01*
X103393533Y-139510775D01*
G36*
X104143533Y-139510775D02*
G01*
X103893533Y-139510775D01*
X103893533Y-139760775D01*
X104143533Y-139760775D01*
X104143533Y-139510775D01*
G37*
X104143533Y-139510775D02*
X103893533Y-139510775D01*
X103893533Y-139760775D01*
X104143533Y-139760775D01*
X104143533Y-139510775D01*
G36*
X104893533Y-139510775D02*
G01*
X104643533Y-139510775D01*
X104643533Y-139760775D01*
X104893533Y-139760775D01*
X104893533Y-139510775D01*
G37*
X104893533Y-139510775D02*
X104643533Y-139510775D01*
X104643533Y-139760775D01*
X104893533Y-139760775D01*
X104893533Y-139510775D01*
G36*
X105393533Y-139510775D02*
G01*
X105143533Y-139510775D01*
X105143533Y-139760775D01*
X105393533Y-139760775D01*
X105393533Y-139510775D01*
G37*
X105393533Y-139510775D02*
X105143533Y-139510775D01*
X105143533Y-139760775D01*
X105393533Y-139760775D01*
X105393533Y-139510775D01*
G36*
X105893533Y-139510775D02*
G01*
X105643533Y-139510775D01*
X105643533Y-139760775D01*
X105893533Y-139760775D01*
X105893533Y-139510775D01*
G37*
X105893533Y-139510775D02*
X105643533Y-139510775D01*
X105643533Y-139760775D01*
X105893533Y-139760775D01*
X105893533Y-139510775D01*
G36*
X106893533Y-139510775D02*
G01*
X106643533Y-139510775D01*
X106643533Y-139760775D01*
X106893533Y-139760775D01*
X106893533Y-139510775D01*
G37*
X106893533Y-139510775D02*
X106643533Y-139510775D01*
X106643533Y-139760775D01*
X106893533Y-139760775D01*
X106893533Y-139510775D01*
G36*
X107393533Y-139510775D02*
G01*
X107143533Y-139510775D01*
X107143533Y-139760775D01*
X107393533Y-139760775D01*
X107393533Y-139510775D01*
G37*
X107393533Y-139510775D02*
X107143533Y-139510775D01*
X107143533Y-139760775D01*
X107393533Y-139760775D01*
X107393533Y-139510775D01*
G36*
X107893533Y-139510775D02*
G01*
X107643533Y-139510775D01*
X107643533Y-139760775D01*
X107893533Y-139760775D01*
X107893533Y-139510775D01*
G37*
X107893533Y-139510775D02*
X107643533Y-139510775D01*
X107643533Y-139760775D01*
X107893533Y-139760775D01*
X107893533Y-139510775D01*
G36*
X108393533Y-139510775D02*
G01*
X108143533Y-139510775D01*
X108143533Y-139760775D01*
X108393533Y-139760775D01*
X108393533Y-139510775D01*
G37*
X108393533Y-139510775D02*
X108143533Y-139510775D01*
X108143533Y-139760775D01*
X108393533Y-139760775D01*
X108393533Y-139510775D01*
G36*
X108893533Y-139510775D02*
G01*
X108643533Y-139510775D01*
X108643533Y-139760775D01*
X108893533Y-139760775D01*
X108893533Y-139510775D01*
G37*
X108893533Y-139510775D02*
X108643533Y-139510775D01*
X108643533Y-139760775D01*
X108893533Y-139760775D01*
X108893533Y-139510775D01*
G36*
X109143533Y-139510775D02*
G01*
X108893533Y-139510775D01*
X108893533Y-139760775D01*
X109143533Y-139760775D01*
X109143533Y-139510775D01*
G37*
X109143533Y-139510775D02*
X108893533Y-139510775D01*
X108893533Y-139760775D01*
X109143533Y-139760775D01*
X109143533Y-139510775D01*
G36*
X109643533Y-139510775D02*
G01*
X109393533Y-139510775D01*
X109393533Y-139760775D01*
X109643533Y-139760775D01*
X109643533Y-139510775D01*
G37*
X109643533Y-139510775D02*
X109393533Y-139510775D01*
X109393533Y-139760775D01*
X109643533Y-139760775D01*
X109643533Y-139510775D01*
G36*
X98143533Y-139260775D02*
G01*
X97893533Y-139260775D01*
X97893533Y-139510775D01*
X98143533Y-139510775D01*
X98143533Y-139260775D01*
G37*
X98143533Y-139260775D02*
X97893533Y-139260775D01*
X97893533Y-139510775D01*
X98143533Y-139510775D01*
X98143533Y-139260775D01*
G36*
X98643533Y-139260775D02*
G01*
X98393533Y-139260775D01*
X98393533Y-139510775D01*
X98643533Y-139510775D01*
X98643533Y-139260775D01*
G37*
X98643533Y-139260775D02*
X98393533Y-139260775D01*
X98393533Y-139510775D01*
X98643533Y-139510775D01*
X98643533Y-139260775D01*
G36*
X98893533Y-139260775D02*
G01*
X98643533Y-139260775D01*
X98643533Y-139510775D01*
X98893533Y-139510775D01*
X98893533Y-139260775D01*
G37*
X98893533Y-139260775D02*
X98643533Y-139260775D01*
X98643533Y-139510775D01*
X98893533Y-139510775D01*
X98893533Y-139260775D01*
G36*
X99143533Y-139260775D02*
G01*
X98893533Y-139260775D01*
X98893533Y-139510775D01*
X99143533Y-139510775D01*
X99143533Y-139260775D01*
G37*
X99143533Y-139260775D02*
X98893533Y-139260775D01*
X98893533Y-139510775D01*
X99143533Y-139510775D01*
X99143533Y-139260775D01*
G36*
X99643533Y-139260775D02*
G01*
X99393533Y-139260775D01*
X99393533Y-139510775D01*
X99643533Y-139510775D01*
X99643533Y-139260775D01*
G37*
X99643533Y-139260775D02*
X99393533Y-139260775D01*
X99393533Y-139510775D01*
X99643533Y-139510775D01*
X99643533Y-139260775D01*
G36*
X100893533Y-139260775D02*
G01*
X100643533Y-139260775D01*
X100643533Y-139510775D01*
X100893533Y-139510775D01*
X100893533Y-139260775D01*
G37*
X100893533Y-139260775D02*
X100643533Y-139260775D01*
X100643533Y-139510775D01*
X100893533Y-139510775D01*
X100893533Y-139260775D01*
G36*
X101143533Y-139260775D02*
G01*
X100893533Y-139260775D01*
X100893533Y-139510775D01*
X101143533Y-139510775D01*
X101143533Y-139260775D01*
G37*
X101143533Y-139260775D02*
X100893533Y-139260775D01*
X100893533Y-139510775D01*
X101143533Y-139510775D01*
X101143533Y-139260775D01*
G36*
X101393533Y-139260775D02*
G01*
X101143533Y-139260775D01*
X101143533Y-139510775D01*
X101393533Y-139510775D01*
X101393533Y-139260775D01*
G37*
X101393533Y-139260775D02*
X101143533Y-139260775D01*
X101143533Y-139510775D01*
X101393533Y-139510775D01*
X101393533Y-139260775D01*
G36*
X101893533Y-139260775D02*
G01*
X101643533Y-139260775D01*
X101643533Y-139510775D01*
X101893533Y-139510775D01*
X101893533Y-139260775D01*
G37*
X101893533Y-139260775D02*
X101643533Y-139260775D01*
X101643533Y-139510775D01*
X101893533Y-139510775D01*
X101893533Y-139260775D01*
G36*
X102143533Y-139260775D02*
G01*
X101893533Y-139260775D01*
X101893533Y-139510775D01*
X102143533Y-139510775D01*
X102143533Y-139260775D01*
G37*
X102143533Y-139260775D02*
X101893533Y-139260775D01*
X101893533Y-139510775D01*
X102143533Y-139510775D01*
X102143533Y-139260775D01*
G36*
X102393533Y-139260775D02*
G01*
X102143533Y-139260775D01*
X102143533Y-139510775D01*
X102393533Y-139510775D01*
X102393533Y-139260775D01*
G37*
X102393533Y-139260775D02*
X102143533Y-139260775D01*
X102143533Y-139510775D01*
X102393533Y-139510775D01*
X102393533Y-139260775D01*
G36*
X102893533Y-139260775D02*
G01*
X102643533Y-139260775D01*
X102643533Y-139510775D01*
X102893533Y-139510775D01*
X102893533Y-139260775D01*
G37*
X102893533Y-139260775D02*
X102643533Y-139260775D01*
X102643533Y-139510775D01*
X102893533Y-139510775D01*
X102893533Y-139260775D01*
G36*
X103143533Y-139260775D02*
G01*
X102893533Y-139260775D01*
X102893533Y-139510775D01*
X103143533Y-139510775D01*
X103143533Y-139260775D01*
G37*
X103143533Y-139260775D02*
X102893533Y-139260775D01*
X102893533Y-139510775D01*
X103143533Y-139510775D01*
X103143533Y-139260775D01*
G36*
X103393533Y-139260775D02*
G01*
X103143533Y-139260775D01*
X103143533Y-139510775D01*
X103393533Y-139510775D01*
X103393533Y-139260775D01*
G37*
X103393533Y-139260775D02*
X103143533Y-139260775D01*
X103143533Y-139510775D01*
X103393533Y-139510775D01*
X103393533Y-139260775D01*
G36*
X103893533Y-139260775D02*
G01*
X103643533Y-139260775D01*
X103643533Y-139510775D01*
X103893533Y-139510775D01*
X103893533Y-139260775D01*
G37*
X103893533Y-139260775D02*
X103643533Y-139260775D01*
X103643533Y-139510775D01*
X103893533Y-139510775D01*
X103893533Y-139260775D01*
G36*
X104143533Y-139260775D02*
G01*
X103893533Y-139260775D01*
X103893533Y-139510775D01*
X104143533Y-139510775D01*
X104143533Y-139260775D01*
G37*
X104143533Y-139260775D02*
X103893533Y-139260775D01*
X103893533Y-139510775D01*
X104143533Y-139510775D01*
X104143533Y-139260775D01*
G36*
X104393533Y-139260775D02*
G01*
X104143533Y-139260775D01*
X104143533Y-139510775D01*
X104393533Y-139510775D01*
X104393533Y-139260775D01*
G37*
X104393533Y-139260775D02*
X104143533Y-139260775D01*
X104143533Y-139510775D01*
X104393533Y-139510775D01*
X104393533Y-139260775D01*
G36*
X104893533Y-139260775D02*
G01*
X104643533Y-139260775D01*
X104643533Y-139510775D01*
X104893533Y-139510775D01*
X104893533Y-139260775D01*
G37*
X104893533Y-139260775D02*
X104643533Y-139260775D01*
X104643533Y-139510775D01*
X104893533Y-139510775D01*
X104893533Y-139260775D01*
G36*
X105143533Y-139260775D02*
G01*
X104893533Y-139260775D01*
X104893533Y-139510775D01*
X105143533Y-139510775D01*
X105143533Y-139260775D01*
G37*
X105143533Y-139260775D02*
X104893533Y-139260775D01*
X104893533Y-139510775D01*
X105143533Y-139510775D01*
X105143533Y-139260775D01*
G36*
X105643533Y-139260775D02*
G01*
X105393533Y-139260775D01*
X105393533Y-139510775D01*
X105643533Y-139510775D01*
X105643533Y-139260775D01*
G37*
X105643533Y-139260775D02*
X105393533Y-139260775D01*
X105393533Y-139510775D01*
X105643533Y-139510775D01*
X105643533Y-139260775D01*
G36*
X105893533Y-139260775D02*
G01*
X105643533Y-139260775D01*
X105643533Y-139510775D01*
X105893533Y-139510775D01*
X105893533Y-139260775D01*
G37*
X105893533Y-139260775D02*
X105643533Y-139260775D01*
X105643533Y-139510775D01*
X105893533Y-139510775D01*
X105893533Y-139260775D01*
G36*
X106393533Y-139260775D02*
G01*
X106143533Y-139260775D01*
X106143533Y-139510775D01*
X106393533Y-139510775D01*
X106393533Y-139260775D01*
G37*
X106393533Y-139260775D02*
X106143533Y-139260775D01*
X106143533Y-139510775D01*
X106393533Y-139510775D01*
X106393533Y-139260775D01*
G36*
X106643533Y-139260775D02*
G01*
X106393533Y-139260775D01*
X106393533Y-139510775D01*
X106643533Y-139510775D01*
X106643533Y-139260775D01*
G37*
X106643533Y-139260775D02*
X106393533Y-139260775D01*
X106393533Y-139510775D01*
X106643533Y-139510775D01*
X106643533Y-139260775D01*
G36*
X106893533Y-139260775D02*
G01*
X106643533Y-139260775D01*
X106643533Y-139510775D01*
X106893533Y-139510775D01*
X106893533Y-139260775D01*
G37*
X106893533Y-139260775D02*
X106643533Y-139260775D01*
X106643533Y-139510775D01*
X106893533Y-139510775D01*
X106893533Y-139260775D01*
G36*
X107393533Y-139260775D02*
G01*
X107143533Y-139260775D01*
X107143533Y-139510775D01*
X107393533Y-139510775D01*
X107393533Y-139260775D01*
G37*
X107393533Y-139260775D02*
X107143533Y-139260775D01*
X107143533Y-139510775D01*
X107393533Y-139510775D01*
X107393533Y-139260775D01*
G36*
X107643533Y-139260775D02*
G01*
X107393533Y-139260775D01*
X107393533Y-139510775D01*
X107643533Y-139510775D01*
X107643533Y-139260775D01*
G37*
X107643533Y-139260775D02*
X107393533Y-139260775D01*
X107393533Y-139510775D01*
X107643533Y-139510775D01*
X107643533Y-139260775D01*
G36*
X107893533Y-139260775D02*
G01*
X107643533Y-139260775D01*
X107643533Y-139510775D01*
X107893533Y-139510775D01*
X107893533Y-139260775D01*
G37*
X107893533Y-139260775D02*
X107643533Y-139260775D01*
X107643533Y-139510775D01*
X107893533Y-139510775D01*
X107893533Y-139260775D01*
G36*
X108393533Y-139260775D02*
G01*
X108143533Y-139260775D01*
X108143533Y-139510775D01*
X108393533Y-139510775D01*
X108393533Y-139260775D01*
G37*
X108393533Y-139260775D02*
X108143533Y-139260775D01*
X108143533Y-139510775D01*
X108393533Y-139510775D01*
X108393533Y-139260775D01*
G36*
X109143533Y-139260775D02*
G01*
X108893533Y-139260775D01*
X108893533Y-139510775D01*
X109143533Y-139510775D01*
X109143533Y-139260775D01*
G37*
X109143533Y-139260775D02*
X108893533Y-139260775D01*
X108893533Y-139510775D01*
X109143533Y-139510775D01*
X109143533Y-139260775D01*
G36*
X109643533Y-139260775D02*
G01*
X109393533Y-139260775D01*
X109393533Y-139510775D01*
X109643533Y-139510775D01*
X109643533Y-139260775D01*
G37*
X109643533Y-139260775D02*
X109393533Y-139260775D01*
X109393533Y-139510775D01*
X109643533Y-139510775D01*
X109643533Y-139260775D01*
G36*
X98143533Y-139010775D02*
G01*
X97893533Y-139010775D01*
X97893533Y-139260775D01*
X98143533Y-139260775D01*
X98143533Y-139010775D01*
G37*
X98143533Y-139010775D02*
X97893533Y-139010775D01*
X97893533Y-139260775D01*
X98143533Y-139260775D01*
X98143533Y-139010775D01*
G36*
X109643533Y-139010775D02*
G01*
X109393533Y-139010775D01*
X109393533Y-139260775D01*
X109643533Y-139260775D01*
X109643533Y-139010775D01*
G37*
X109643533Y-139010775D02*
X109393533Y-139010775D01*
X109393533Y-139260775D01*
X109643533Y-139260775D01*
X109643533Y-139010775D01*
G36*
X98143533Y-138760775D02*
G01*
X97893533Y-138760775D01*
X97893533Y-139010775D01*
X98143533Y-139010775D01*
X98143533Y-138760775D01*
G37*
X98143533Y-138760775D02*
X97893533Y-138760775D01*
X97893533Y-139010775D01*
X98143533Y-139010775D01*
X98143533Y-138760775D01*
G36*
X99143533Y-138760775D02*
G01*
X98893533Y-138760775D01*
X98893533Y-139010775D01*
X99143533Y-139010775D01*
X99143533Y-138760775D01*
G37*
X99143533Y-138760775D02*
X98893533Y-138760775D01*
X98893533Y-139010775D01*
X99143533Y-139010775D01*
X99143533Y-138760775D01*
G36*
X99893533Y-138760775D02*
G01*
X99643533Y-138760775D01*
X99643533Y-139010775D01*
X99893533Y-139010775D01*
X99893533Y-138760775D01*
G37*
X99893533Y-138760775D02*
X99643533Y-138760775D01*
X99643533Y-139010775D01*
X99893533Y-139010775D01*
X99893533Y-138760775D01*
G36*
X100393533Y-138760775D02*
G01*
X100143533Y-138760775D01*
X100143533Y-139010775D01*
X100393533Y-139010775D01*
X100393533Y-138760775D01*
G37*
X100393533Y-138760775D02*
X100143533Y-138760775D01*
X100143533Y-139010775D01*
X100393533Y-139010775D01*
X100393533Y-138760775D01*
G36*
X100643533Y-138760775D02*
G01*
X100393533Y-138760775D01*
X100393533Y-139010775D01*
X100643533Y-139010775D01*
X100643533Y-138760775D01*
G37*
X100643533Y-138760775D02*
X100393533Y-138760775D01*
X100393533Y-139010775D01*
X100643533Y-139010775D01*
X100643533Y-138760775D01*
G36*
X101143533Y-138760775D02*
G01*
X100893533Y-138760775D01*
X100893533Y-139010775D01*
X101143533Y-139010775D01*
X101143533Y-138760775D01*
G37*
X101143533Y-138760775D02*
X100893533Y-138760775D01*
X100893533Y-139010775D01*
X101143533Y-139010775D01*
X101143533Y-138760775D01*
G36*
X101893533Y-138760775D02*
G01*
X101643533Y-138760775D01*
X101643533Y-139010775D01*
X101893533Y-139010775D01*
X101893533Y-138760775D01*
G37*
X101893533Y-138760775D02*
X101643533Y-138760775D01*
X101643533Y-139010775D01*
X101893533Y-139010775D01*
X101893533Y-138760775D01*
G36*
X102393533Y-138760775D02*
G01*
X102143533Y-138760775D01*
X102143533Y-139010775D01*
X102393533Y-139010775D01*
X102393533Y-138760775D01*
G37*
X102393533Y-138760775D02*
X102143533Y-138760775D01*
X102143533Y-139010775D01*
X102393533Y-139010775D01*
X102393533Y-138760775D01*
G36*
X103143533Y-138760775D02*
G01*
X102893533Y-138760775D01*
X102893533Y-139010775D01*
X103143533Y-139010775D01*
X103143533Y-138760775D01*
G37*
X103143533Y-138760775D02*
X102893533Y-138760775D01*
X102893533Y-139010775D01*
X103143533Y-139010775D01*
X103143533Y-138760775D01*
G36*
X103393533Y-138760775D02*
G01*
X103143533Y-138760775D01*
X103143533Y-139010775D01*
X103393533Y-139010775D01*
X103393533Y-138760775D01*
G37*
X103393533Y-138760775D02*
X103143533Y-138760775D01*
X103143533Y-139010775D01*
X103393533Y-139010775D01*
X103393533Y-138760775D01*
G36*
X103893533Y-138760775D02*
G01*
X103643533Y-138760775D01*
X103643533Y-139010775D01*
X103893533Y-139010775D01*
X103893533Y-138760775D01*
G37*
X103893533Y-138760775D02*
X103643533Y-138760775D01*
X103643533Y-139010775D01*
X103893533Y-139010775D01*
X103893533Y-138760775D01*
G36*
X104143533Y-138760775D02*
G01*
X103893533Y-138760775D01*
X103893533Y-139010775D01*
X104143533Y-139010775D01*
X104143533Y-138760775D01*
G37*
X104143533Y-138760775D02*
X103893533Y-138760775D01*
X103893533Y-139010775D01*
X104143533Y-139010775D01*
X104143533Y-138760775D01*
G36*
X104643533Y-138760775D02*
G01*
X104393533Y-138760775D01*
X104393533Y-139010775D01*
X104643533Y-139010775D01*
X104643533Y-138760775D01*
G37*
X104643533Y-138760775D02*
X104393533Y-138760775D01*
X104393533Y-139010775D01*
X104643533Y-139010775D01*
X104643533Y-138760775D01*
G36*
X105393533Y-138760775D02*
G01*
X105143533Y-138760775D01*
X105143533Y-139010775D01*
X105393533Y-139010775D01*
X105393533Y-138760775D01*
G37*
X105393533Y-138760775D02*
X105143533Y-138760775D01*
X105143533Y-139010775D01*
X105393533Y-139010775D01*
X105393533Y-138760775D01*
G36*
X105643533Y-138760775D02*
G01*
X105393533Y-138760775D01*
X105393533Y-139010775D01*
X105643533Y-139010775D01*
X105643533Y-138760775D01*
G37*
X105643533Y-138760775D02*
X105393533Y-138760775D01*
X105393533Y-139010775D01*
X105643533Y-139010775D01*
X105643533Y-138760775D01*
G36*
X106143533Y-138760775D02*
G01*
X105893533Y-138760775D01*
X105893533Y-139010775D01*
X106143533Y-139010775D01*
X106143533Y-138760775D01*
G37*
X106143533Y-138760775D02*
X105893533Y-138760775D01*
X105893533Y-139010775D01*
X106143533Y-139010775D01*
X106143533Y-138760775D01*
G36*
X106393533Y-138760775D02*
G01*
X106143533Y-138760775D01*
X106143533Y-139010775D01*
X106393533Y-139010775D01*
X106393533Y-138760775D01*
G37*
X106393533Y-138760775D02*
X106143533Y-138760775D01*
X106143533Y-139010775D01*
X106393533Y-139010775D01*
X106393533Y-138760775D01*
G36*
X106893533Y-138760775D02*
G01*
X106643533Y-138760775D01*
X106643533Y-139010775D01*
X106893533Y-139010775D01*
X106893533Y-138760775D01*
G37*
X106893533Y-138760775D02*
X106643533Y-138760775D01*
X106643533Y-139010775D01*
X106893533Y-139010775D01*
X106893533Y-138760775D01*
G36*
X107143533Y-138760775D02*
G01*
X106893533Y-138760775D01*
X106893533Y-139010775D01*
X107143533Y-139010775D01*
X107143533Y-138760775D01*
G37*
X107143533Y-138760775D02*
X106893533Y-138760775D01*
X106893533Y-139010775D01*
X107143533Y-139010775D01*
X107143533Y-138760775D01*
G36*
X107893533Y-138760775D02*
G01*
X107643533Y-138760775D01*
X107643533Y-139010775D01*
X107893533Y-139010775D01*
X107893533Y-138760775D01*
G37*
X107893533Y-138760775D02*
X107643533Y-138760775D01*
X107643533Y-139010775D01*
X107893533Y-139010775D01*
X107893533Y-138760775D01*
G36*
X108393533Y-138760775D02*
G01*
X108143533Y-138760775D01*
X108143533Y-139010775D01*
X108393533Y-139010775D01*
X108393533Y-138760775D01*
G37*
X108393533Y-138760775D02*
X108143533Y-138760775D01*
X108143533Y-139010775D01*
X108393533Y-139010775D01*
X108393533Y-138760775D01*
G36*
X108643533Y-138760775D02*
G01*
X108393533Y-138760775D01*
X108393533Y-139010775D01*
X108643533Y-139010775D01*
X108643533Y-138760775D01*
G37*
X108643533Y-138760775D02*
X108393533Y-138760775D01*
X108393533Y-139010775D01*
X108643533Y-139010775D01*
X108643533Y-138760775D01*
G36*
X109643533Y-138760775D02*
G01*
X109393533Y-138760775D01*
X109393533Y-139010775D01*
X109643533Y-139010775D01*
X109643533Y-138760775D01*
G37*
X109643533Y-138760775D02*
X109393533Y-138760775D01*
X109393533Y-139010775D01*
X109643533Y-139010775D01*
X109643533Y-138760775D01*
G36*
X98143533Y-138510775D02*
G01*
X97893533Y-138510775D01*
X97893533Y-138760775D01*
X98143533Y-138760775D01*
X98143533Y-138510775D01*
G37*
X98143533Y-138510775D02*
X97893533Y-138510775D01*
X97893533Y-138760775D01*
X98143533Y-138760775D01*
X98143533Y-138510775D01*
G36*
X109643533Y-138510775D02*
G01*
X109393533Y-138510775D01*
X109393533Y-138760775D01*
X109643533Y-138760775D01*
X109643533Y-138510775D01*
G37*
X109643533Y-138510775D02*
X109393533Y-138510775D01*
X109393533Y-138760775D01*
X109643533Y-138760775D01*
X109643533Y-138510775D01*
G36*
X98143533Y-138260775D02*
G01*
X97893533Y-138260775D01*
X97893533Y-138510775D01*
X98143533Y-138510775D01*
X98143533Y-138260775D01*
G37*
X98143533Y-138260775D02*
X97893533Y-138260775D01*
X97893533Y-138510775D01*
X98143533Y-138510775D01*
X98143533Y-138260775D01*
G36*
X98393533Y-138260775D02*
G01*
X98143533Y-138260775D01*
X98143533Y-138510775D01*
X98393533Y-138510775D01*
X98393533Y-138260775D01*
G37*
X98393533Y-138260775D02*
X98143533Y-138260775D01*
X98143533Y-138510775D01*
X98393533Y-138510775D01*
X98393533Y-138260775D01*
G36*
X98643533Y-138260775D02*
G01*
X98393533Y-138260775D01*
X98393533Y-138510775D01*
X98643533Y-138510775D01*
X98643533Y-138260775D01*
G37*
X98643533Y-138260775D02*
X98393533Y-138260775D01*
X98393533Y-138510775D01*
X98643533Y-138510775D01*
X98643533Y-138260775D01*
G36*
X98893533Y-138260775D02*
G01*
X98643533Y-138260775D01*
X98643533Y-138510775D01*
X98893533Y-138510775D01*
X98893533Y-138260775D01*
G37*
X98893533Y-138260775D02*
X98643533Y-138260775D01*
X98643533Y-138510775D01*
X98893533Y-138510775D01*
X98893533Y-138260775D01*
G36*
X99143533Y-138260775D02*
G01*
X98893533Y-138260775D01*
X98893533Y-138510775D01*
X99143533Y-138510775D01*
X99143533Y-138260775D01*
G37*
X99143533Y-138260775D02*
X98893533Y-138260775D01*
X98893533Y-138510775D01*
X99143533Y-138510775D01*
X99143533Y-138260775D01*
G36*
X99393533Y-138260775D02*
G01*
X99143533Y-138260775D01*
X99143533Y-138510775D01*
X99393533Y-138510775D01*
X99393533Y-138260775D01*
G37*
X99393533Y-138260775D02*
X99143533Y-138260775D01*
X99143533Y-138510775D01*
X99393533Y-138510775D01*
X99393533Y-138260775D01*
G36*
X99643533Y-138260775D02*
G01*
X99393533Y-138260775D01*
X99393533Y-138510775D01*
X99643533Y-138510775D01*
X99643533Y-138260775D01*
G37*
X99643533Y-138260775D02*
X99393533Y-138260775D01*
X99393533Y-138510775D01*
X99643533Y-138510775D01*
X99643533Y-138260775D01*
G36*
X99893533Y-138260775D02*
G01*
X99643533Y-138260775D01*
X99643533Y-138510775D01*
X99893533Y-138510775D01*
X99893533Y-138260775D01*
G37*
X99893533Y-138260775D02*
X99643533Y-138260775D01*
X99643533Y-138510775D01*
X99893533Y-138510775D01*
X99893533Y-138260775D01*
G36*
X100143533Y-138260775D02*
G01*
X99893533Y-138260775D01*
X99893533Y-138510775D01*
X100143533Y-138510775D01*
X100143533Y-138260775D01*
G37*
X100143533Y-138260775D02*
X99893533Y-138260775D01*
X99893533Y-138510775D01*
X100143533Y-138510775D01*
X100143533Y-138260775D01*
G36*
X100393533Y-138260775D02*
G01*
X100143533Y-138260775D01*
X100143533Y-138510775D01*
X100393533Y-138510775D01*
X100393533Y-138260775D01*
G37*
X100393533Y-138260775D02*
X100143533Y-138260775D01*
X100143533Y-138510775D01*
X100393533Y-138510775D01*
X100393533Y-138260775D01*
G36*
X100643533Y-138260775D02*
G01*
X100393533Y-138260775D01*
X100393533Y-138510775D01*
X100643533Y-138510775D01*
X100643533Y-138260775D01*
G37*
X100643533Y-138260775D02*
X100393533Y-138260775D01*
X100393533Y-138510775D01*
X100643533Y-138510775D01*
X100643533Y-138260775D01*
G36*
X100893533Y-138260775D02*
G01*
X100643533Y-138260775D01*
X100643533Y-138510775D01*
X100893533Y-138510775D01*
X100893533Y-138260775D01*
G37*
X100893533Y-138260775D02*
X100643533Y-138260775D01*
X100643533Y-138510775D01*
X100893533Y-138510775D01*
X100893533Y-138260775D01*
G36*
X101143533Y-138260775D02*
G01*
X100893533Y-138260775D01*
X100893533Y-138510775D01*
X101143533Y-138510775D01*
X101143533Y-138260775D01*
G37*
X101143533Y-138260775D02*
X100893533Y-138260775D01*
X100893533Y-138510775D01*
X101143533Y-138510775D01*
X101143533Y-138260775D01*
G36*
X101393533Y-138260775D02*
G01*
X101143533Y-138260775D01*
X101143533Y-138510775D01*
X101393533Y-138510775D01*
X101393533Y-138260775D01*
G37*
X101393533Y-138260775D02*
X101143533Y-138260775D01*
X101143533Y-138510775D01*
X101393533Y-138510775D01*
X101393533Y-138260775D01*
G36*
X101643533Y-138260775D02*
G01*
X101393533Y-138260775D01*
X101393533Y-138510775D01*
X101643533Y-138510775D01*
X101643533Y-138260775D01*
G37*
X101643533Y-138260775D02*
X101393533Y-138260775D01*
X101393533Y-138510775D01*
X101643533Y-138510775D01*
X101643533Y-138260775D01*
G36*
X101893533Y-138260775D02*
G01*
X101643533Y-138260775D01*
X101643533Y-138510775D01*
X101893533Y-138510775D01*
X101893533Y-138260775D01*
G37*
X101893533Y-138260775D02*
X101643533Y-138260775D01*
X101643533Y-138510775D01*
X101893533Y-138510775D01*
X101893533Y-138260775D01*
G36*
X102143533Y-138260775D02*
G01*
X101893533Y-138260775D01*
X101893533Y-138510775D01*
X102143533Y-138510775D01*
X102143533Y-138260775D01*
G37*
X102143533Y-138260775D02*
X101893533Y-138260775D01*
X101893533Y-138510775D01*
X102143533Y-138510775D01*
X102143533Y-138260775D01*
G36*
X102393533Y-138260775D02*
G01*
X102143533Y-138260775D01*
X102143533Y-138510775D01*
X102393533Y-138510775D01*
X102393533Y-138260775D01*
G37*
X102393533Y-138260775D02*
X102143533Y-138260775D01*
X102143533Y-138510775D01*
X102393533Y-138510775D01*
X102393533Y-138260775D01*
G36*
X102643533Y-138260775D02*
G01*
X102393533Y-138260775D01*
X102393533Y-138510775D01*
X102643533Y-138510775D01*
X102643533Y-138260775D01*
G37*
X102643533Y-138260775D02*
X102393533Y-138260775D01*
X102393533Y-138510775D01*
X102643533Y-138510775D01*
X102643533Y-138260775D01*
G36*
X102893533Y-138260775D02*
G01*
X102643533Y-138260775D01*
X102643533Y-138510775D01*
X102893533Y-138510775D01*
X102893533Y-138260775D01*
G37*
X102893533Y-138260775D02*
X102643533Y-138260775D01*
X102643533Y-138510775D01*
X102893533Y-138510775D01*
X102893533Y-138260775D01*
G36*
X103143533Y-138260775D02*
G01*
X102893533Y-138260775D01*
X102893533Y-138510775D01*
X103143533Y-138510775D01*
X103143533Y-138260775D01*
G37*
X103143533Y-138260775D02*
X102893533Y-138260775D01*
X102893533Y-138510775D01*
X103143533Y-138510775D01*
X103143533Y-138260775D01*
G36*
X103393533Y-138260775D02*
G01*
X103143533Y-138260775D01*
X103143533Y-138510775D01*
X103393533Y-138510775D01*
X103393533Y-138260775D01*
G37*
X103393533Y-138260775D02*
X103143533Y-138260775D01*
X103143533Y-138510775D01*
X103393533Y-138510775D01*
X103393533Y-138260775D01*
G36*
X103643533Y-138260775D02*
G01*
X103393533Y-138260775D01*
X103393533Y-138510775D01*
X103643533Y-138510775D01*
X103643533Y-138260775D01*
G37*
X103643533Y-138260775D02*
X103393533Y-138260775D01*
X103393533Y-138510775D01*
X103643533Y-138510775D01*
X103643533Y-138260775D01*
G36*
X103893533Y-138260775D02*
G01*
X103643533Y-138260775D01*
X103643533Y-138510775D01*
X103893533Y-138510775D01*
X103893533Y-138260775D01*
G37*
X103893533Y-138260775D02*
X103643533Y-138260775D01*
X103643533Y-138510775D01*
X103893533Y-138510775D01*
X103893533Y-138260775D01*
G36*
X104143533Y-138260775D02*
G01*
X103893533Y-138260775D01*
X103893533Y-138510775D01*
X104143533Y-138510775D01*
X104143533Y-138260775D01*
G37*
X104143533Y-138260775D02*
X103893533Y-138260775D01*
X103893533Y-138510775D01*
X104143533Y-138510775D01*
X104143533Y-138260775D01*
G36*
X104393533Y-138260775D02*
G01*
X104143533Y-138260775D01*
X104143533Y-138510775D01*
X104393533Y-138510775D01*
X104393533Y-138260775D01*
G37*
X104393533Y-138260775D02*
X104143533Y-138260775D01*
X104143533Y-138510775D01*
X104393533Y-138510775D01*
X104393533Y-138260775D01*
G36*
X104643533Y-138260775D02*
G01*
X104393533Y-138260775D01*
X104393533Y-138510775D01*
X104643533Y-138510775D01*
X104643533Y-138260775D01*
G37*
X104643533Y-138260775D02*
X104393533Y-138260775D01*
X104393533Y-138510775D01*
X104643533Y-138510775D01*
X104643533Y-138260775D01*
G36*
X104893533Y-138260775D02*
G01*
X104643533Y-138260775D01*
X104643533Y-138510775D01*
X104893533Y-138510775D01*
X104893533Y-138260775D01*
G37*
X104893533Y-138260775D02*
X104643533Y-138260775D01*
X104643533Y-138510775D01*
X104893533Y-138510775D01*
X104893533Y-138260775D01*
G36*
X105143533Y-138260775D02*
G01*
X104893533Y-138260775D01*
X104893533Y-138510775D01*
X105143533Y-138510775D01*
X105143533Y-138260775D01*
G37*
X105143533Y-138260775D02*
X104893533Y-138260775D01*
X104893533Y-138510775D01*
X105143533Y-138510775D01*
X105143533Y-138260775D01*
G36*
X105393533Y-138260775D02*
G01*
X105143533Y-138260775D01*
X105143533Y-138510775D01*
X105393533Y-138510775D01*
X105393533Y-138260775D01*
G37*
X105393533Y-138260775D02*
X105143533Y-138260775D01*
X105143533Y-138510775D01*
X105393533Y-138510775D01*
X105393533Y-138260775D01*
G36*
X105643533Y-138260775D02*
G01*
X105393533Y-138260775D01*
X105393533Y-138510775D01*
X105643533Y-138510775D01*
X105643533Y-138260775D01*
G37*
X105643533Y-138260775D02*
X105393533Y-138260775D01*
X105393533Y-138510775D01*
X105643533Y-138510775D01*
X105643533Y-138260775D01*
G36*
X105893533Y-138260775D02*
G01*
X105643533Y-138260775D01*
X105643533Y-138510775D01*
X105893533Y-138510775D01*
X105893533Y-138260775D01*
G37*
X105893533Y-138260775D02*
X105643533Y-138260775D01*
X105643533Y-138510775D01*
X105893533Y-138510775D01*
X105893533Y-138260775D01*
G36*
X106143533Y-138260775D02*
G01*
X105893533Y-138260775D01*
X105893533Y-138510775D01*
X106143533Y-138510775D01*
X106143533Y-138260775D01*
G37*
X106143533Y-138260775D02*
X105893533Y-138260775D01*
X105893533Y-138510775D01*
X106143533Y-138510775D01*
X106143533Y-138260775D01*
G36*
X106393533Y-138260775D02*
G01*
X106143533Y-138260775D01*
X106143533Y-138510775D01*
X106393533Y-138510775D01*
X106393533Y-138260775D01*
G37*
X106393533Y-138260775D02*
X106143533Y-138260775D01*
X106143533Y-138510775D01*
X106393533Y-138510775D01*
X106393533Y-138260775D01*
G36*
X106643533Y-138260775D02*
G01*
X106393533Y-138260775D01*
X106393533Y-138510775D01*
X106643533Y-138510775D01*
X106643533Y-138260775D01*
G37*
X106643533Y-138260775D02*
X106393533Y-138260775D01*
X106393533Y-138510775D01*
X106643533Y-138510775D01*
X106643533Y-138260775D01*
G36*
X106893533Y-138260775D02*
G01*
X106643533Y-138260775D01*
X106643533Y-138510775D01*
X106893533Y-138510775D01*
X106893533Y-138260775D01*
G37*
X106893533Y-138260775D02*
X106643533Y-138260775D01*
X106643533Y-138510775D01*
X106893533Y-138510775D01*
X106893533Y-138260775D01*
G36*
X107143533Y-138260775D02*
G01*
X106893533Y-138260775D01*
X106893533Y-138510775D01*
X107143533Y-138510775D01*
X107143533Y-138260775D01*
G37*
X107143533Y-138260775D02*
X106893533Y-138260775D01*
X106893533Y-138510775D01*
X107143533Y-138510775D01*
X107143533Y-138260775D01*
G36*
X107393533Y-138260775D02*
G01*
X107143533Y-138260775D01*
X107143533Y-138510775D01*
X107393533Y-138510775D01*
X107393533Y-138260775D01*
G37*
X107393533Y-138260775D02*
X107143533Y-138260775D01*
X107143533Y-138510775D01*
X107393533Y-138510775D01*
X107393533Y-138260775D01*
G36*
X107643533Y-138260775D02*
G01*
X107393533Y-138260775D01*
X107393533Y-138510775D01*
X107643533Y-138510775D01*
X107643533Y-138260775D01*
G37*
X107643533Y-138260775D02*
X107393533Y-138260775D01*
X107393533Y-138510775D01*
X107643533Y-138510775D01*
X107643533Y-138260775D01*
G36*
X107893533Y-138260775D02*
G01*
X107643533Y-138260775D01*
X107643533Y-138510775D01*
X107893533Y-138510775D01*
X107893533Y-138260775D01*
G37*
X107893533Y-138260775D02*
X107643533Y-138260775D01*
X107643533Y-138510775D01*
X107893533Y-138510775D01*
X107893533Y-138260775D01*
G36*
X108143533Y-138260775D02*
G01*
X107893533Y-138260775D01*
X107893533Y-138510775D01*
X108143533Y-138510775D01*
X108143533Y-138260775D01*
G37*
X108143533Y-138260775D02*
X107893533Y-138260775D01*
X107893533Y-138510775D01*
X108143533Y-138510775D01*
X108143533Y-138260775D01*
G36*
X108393533Y-138260775D02*
G01*
X108143533Y-138260775D01*
X108143533Y-138510775D01*
X108393533Y-138510775D01*
X108393533Y-138260775D01*
G37*
X108393533Y-138260775D02*
X108143533Y-138260775D01*
X108143533Y-138510775D01*
X108393533Y-138510775D01*
X108393533Y-138260775D01*
G36*
X108643533Y-138260775D02*
G01*
X108393533Y-138260775D01*
X108393533Y-138510775D01*
X108643533Y-138510775D01*
X108643533Y-138260775D01*
G37*
X108643533Y-138260775D02*
X108393533Y-138260775D01*
X108393533Y-138510775D01*
X108643533Y-138510775D01*
X108643533Y-138260775D01*
G36*
X108893533Y-138260775D02*
G01*
X108643533Y-138260775D01*
X108643533Y-138510775D01*
X108893533Y-138510775D01*
X108893533Y-138260775D01*
G37*
X108893533Y-138260775D02*
X108643533Y-138260775D01*
X108643533Y-138510775D01*
X108893533Y-138510775D01*
X108893533Y-138260775D01*
G36*
X109143533Y-138260775D02*
G01*
X108893533Y-138260775D01*
X108893533Y-138510775D01*
X109143533Y-138510775D01*
X109143533Y-138260775D01*
G37*
X109143533Y-138260775D02*
X108893533Y-138260775D01*
X108893533Y-138510775D01*
X109143533Y-138510775D01*
X109143533Y-138260775D01*
G36*
X109393533Y-138260775D02*
G01*
X109143533Y-138260775D01*
X109143533Y-138510775D01*
X109393533Y-138510775D01*
X109393533Y-138260775D01*
G37*
X109393533Y-138260775D02*
X109143533Y-138260775D01*
X109143533Y-138510775D01*
X109393533Y-138510775D01*
X109393533Y-138260775D01*
G36*
X109643533Y-138260775D02*
G01*
X109393533Y-138260775D01*
X109393533Y-138510775D01*
X109643533Y-138510775D01*
X109643533Y-138260775D01*
G37*
X109643533Y-138260775D02*
X109393533Y-138260775D01*
X109393533Y-138510775D01*
X109643533Y-138510775D01*
X109643533Y-138260775D01*
D12*
X105832000Y-129025779D02*
X105832000Y-128700221D01*
X106852000Y-129025779D02*
X106852000Y-128700221D01*
X106852000Y-132510221D02*
X106852000Y-132835779D01*
X105832000Y-132510221D02*
X105832000Y-132835779D01*
X106852000Y-136320221D02*
X106852000Y-136645779D01*
X105832000Y-136320221D02*
X105832000Y-136645779D01*
X100789779Y-118578000D02*
X100464221Y-118578000D01*
X100789779Y-117558000D02*
X100464221Y-117558000D01*
X106814221Y-117558000D02*
X107139779Y-117558000D01*
X106814221Y-118578000D02*
X107139779Y-118578000D01*
X100501500Y-121080221D02*
X100501500Y-121405779D01*
X99481500Y-121080221D02*
X99481500Y-121405779D01*
X107102000Y-121405779D02*
X107102000Y-121080221D01*
X108122000Y-121405779D02*
X108122000Y-121080221D01*
X108757000Y-128700221D02*
X108757000Y-129025779D01*
X107737000Y-128700221D02*
X107737000Y-129025779D01*
X108757000Y-132510221D02*
X108757000Y-132835779D01*
X107737000Y-132510221D02*
X107737000Y-132835779D01*
X108757000Y-136320221D02*
X108757000Y-136645779D01*
X107737000Y-136320221D02*
X107737000Y-136645779D01*
X102222000Y-119213000D02*
X102222000Y-120673000D01*
X105382000Y-119213000D02*
X105382000Y-121373000D01*
X105382000Y-119213000D02*
X104452000Y-119213000D01*
X102222000Y-119213000D02*
X103152000Y-119213000D01*
X102407000Y-130443000D02*
X102407000Y-129513000D01*
X102407000Y-127283000D02*
X102407000Y-128213000D01*
X102407000Y-127283000D02*
X104567000Y-127283000D01*
X102407000Y-130443000D02*
X103867000Y-130443000D01*
X102267000Y-131063000D02*
X104067000Y-131063000D01*
X104067000Y-134283000D02*
X101617000Y-134283000D01*
D13*
D10*
X104080866Y-136099441D02*
X104080866Y-136666108D01*
X104047533Y-136732775D01*
X104014199Y-136766108D01*
X103947533Y-136799441D01*
X103814199Y-136799441D01*
X103747533Y-136766108D01*
X103714199Y-136732775D01*
X103680866Y-136666108D01*
X103680866Y-136099441D01*
X103414199Y-136099441D02*
X102980866Y-136099441D01*
X103214199Y-136366108D01*
X103114199Y-136366108D01*
X103047533Y-136399441D01*
X103014199Y-136432775D01*
X102980866Y-136499441D01*
X102980866Y-136666108D01*
X103014199Y-136732775D01*
X103047533Y-136766108D01*
X103114199Y-136799441D01*
X103314199Y-136799441D01*
X103380866Y-136766108D01*
X103414199Y-136732775D01*
D13*
D10*
X105575533Y-128746108D02*
X105608866Y-128712775D01*
X105642199Y-128612775D01*
X105642199Y-128546108D01*
X105608866Y-128446108D01*
X105542199Y-128379441D01*
X105475533Y-128346108D01*
X105342199Y-128312775D01*
X105242199Y-128312775D01*
X105108866Y-128346108D01*
X105042199Y-128379441D01*
X104975533Y-128446108D01*
X104942199Y-128546108D01*
X104942199Y-128612775D01*
X104975533Y-128712775D01*
X105008866Y-128746108D01*
X104942199Y-128979441D02*
X104942199Y-129412775D01*
X105208866Y-129179441D01*
X105208866Y-129279441D01*
X105242199Y-129346108D01*
X105275533Y-129379441D01*
X105342199Y-129412775D01*
X105508866Y-129412775D01*
X105575533Y-129379441D01*
X105608866Y-129346108D01*
X105642199Y-129279441D01*
X105642199Y-129079441D01*
X105608866Y-129012775D01*
X105575533Y-128979441D01*
X105575533Y-132556108D02*
X105608866Y-132522775D01*
X105642199Y-132422775D01*
X105642199Y-132356108D01*
X105608866Y-132256108D01*
X105542199Y-132189441D01*
X105475533Y-132156108D01*
X105342199Y-132122775D01*
X105242199Y-132122775D01*
X105108866Y-132156108D01*
X105042199Y-132189441D01*
X104975533Y-132256108D01*
X104942199Y-132356108D01*
X104942199Y-132422775D01*
X104975533Y-132522775D01*
X105008866Y-132556108D01*
X105008866Y-132822775D02*
X104975533Y-132856108D01*
X104942199Y-132922775D01*
X104942199Y-133089441D01*
X104975533Y-133156108D01*
X105008866Y-133189441D01*
X105075533Y-133222775D01*
X105142199Y-133222775D01*
X105242199Y-133189441D01*
X105642199Y-132789441D01*
X105642199Y-133222775D01*
X105575533Y-136366108D02*
X105608866Y-136332775D01*
X105642199Y-136232775D01*
X105642199Y-136166108D01*
X105608866Y-136066108D01*
X105542199Y-135999441D01*
X105475533Y-135966108D01*
X105342199Y-135932775D01*
X105242199Y-135932775D01*
X105108866Y-135966108D01*
X105042199Y-135999441D01*
X104975533Y-136066108D01*
X104942199Y-136166108D01*
X104942199Y-136232775D01*
X104975533Y-136332775D01*
X105008866Y-136366108D01*
X105642199Y-137032775D02*
X105642199Y-136632775D01*
X105642199Y-136832775D02*
X104942199Y-136832775D01*
X105042199Y-136766108D01*
X105108866Y-136699441D01*
X105142199Y-136632775D01*
X100743199Y-117114441D02*
X100976533Y-116781108D01*
X101143199Y-117114441D02*
X101143199Y-116414441D01*
X100876533Y-116414441D01*
X100809866Y-116447775D01*
X100776533Y-116481108D01*
X100743199Y-116547775D01*
X100743199Y-116647775D01*
X100776533Y-116714441D01*
X100809866Y-116747775D01*
X100876533Y-116781108D01*
X101143199Y-116781108D01*
X100409866Y-117114441D02*
X100276533Y-117114441D01*
X100209866Y-117081108D01*
X100176533Y-117047775D01*
X100109866Y-116947775D01*
X100076533Y-116814441D01*
X100076533Y-116547775D01*
X100109866Y-116481108D01*
X100143199Y-116447775D01*
X100209866Y-116414441D01*
X100343199Y-116414441D01*
X100409866Y-116447775D01*
X100443199Y-116481108D01*
X100476533Y-116547775D01*
X100476533Y-116714441D01*
X100443199Y-116781108D01*
X100409866Y-116814441D01*
X100343199Y-116847775D01*
X100209866Y-116847775D01*
X100143199Y-116814441D01*
X100109866Y-116781108D01*
X100076533Y-116714441D01*
X107093199Y-117114441D02*
X107326533Y-116781108D01*
X107493199Y-117114441D02*
X107493199Y-116414441D01*
X107226533Y-116414441D01*
X107159866Y-116447775D01*
X107126533Y-116481108D01*
X107093199Y-116547775D01*
X107093199Y-116647775D01*
X107126533Y-116714441D01*
X107159866Y-116747775D01*
X107226533Y-116781108D01*
X107493199Y-116781108D01*
X106693199Y-116714441D02*
X106759866Y-116681108D01*
X106793199Y-116647775D01*
X106826533Y-116581108D01*
X106826533Y-116547775D01*
X106793199Y-116481108D01*
X106759866Y-116447775D01*
X106693199Y-116414441D01*
X106559866Y-116414441D01*
X106493199Y-116447775D01*
X106459866Y-116481108D01*
X106426533Y-116547775D01*
X106426533Y-116581108D01*
X106459866Y-116647775D01*
X106493199Y-116681108D01*
X106559866Y-116714441D01*
X106693199Y-116714441D01*
X106759866Y-116747775D01*
X106793199Y-116781108D01*
X106826533Y-116847775D01*
X106826533Y-116981108D01*
X106793199Y-117047775D01*
X106759866Y-117081108D01*
X106693199Y-117114441D01*
X106559866Y-117114441D01*
X106493199Y-117081108D01*
X106459866Y-117047775D01*
X106426533Y-116981108D01*
X106426533Y-116847775D01*
X106459866Y-116781108D01*
X106493199Y-116747775D01*
X106559866Y-116714441D01*
X99165199Y-121253108D02*
X98831866Y-121019775D01*
X99165199Y-120853108D02*
X98465199Y-120853108D01*
X98465199Y-121119775D01*
X98498533Y-121186441D01*
X98531866Y-121219775D01*
X98598533Y-121253108D01*
X98698533Y-121253108D01*
X98765199Y-121219775D01*
X98798533Y-121186441D01*
X98831866Y-121119775D01*
X98831866Y-120853108D01*
X98465199Y-121486441D02*
X98465199Y-121953108D01*
X99165199Y-121653108D01*
X108437866Y-121359441D02*
X108771199Y-121592775D01*
X108437866Y-121759441D02*
X109137866Y-121759441D01*
X109137866Y-121492775D01*
X109104533Y-121426108D01*
X109071199Y-121392775D01*
X109004533Y-121359441D01*
X108904533Y-121359441D01*
X108837866Y-121392775D01*
X108804533Y-121426108D01*
X108771199Y-121492775D01*
X108771199Y-121759441D01*
X109137866Y-120759441D02*
X109137866Y-120892775D01*
X109104533Y-120959441D01*
X109071199Y-120992775D01*
X108971199Y-121059441D01*
X108837866Y-121092775D01*
X108571199Y-121092775D01*
X108504533Y-121059441D01*
X108471199Y-121026108D01*
X108437866Y-120959441D01*
X108437866Y-120826108D01*
X108471199Y-120759441D01*
X108504533Y-120726108D01*
X108571199Y-120692775D01*
X108737866Y-120692775D01*
X108804533Y-120726108D01*
X108837866Y-120759441D01*
X108871199Y-120826108D01*
X108871199Y-120959441D01*
X108837866Y-121026108D01*
X108804533Y-121059441D01*
X108737866Y-121092775D01*
X109706199Y-128746333D02*
X109372866Y-128513000D01*
X109706199Y-128346333D02*
X109006199Y-128346333D01*
X109006199Y-128613000D01*
X109039533Y-128679666D01*
X109072866Y-128713000D01*
X109139533Y-128746333D01*
X109239533Y-128746333D01*
X109306199Y-128713000D01*
X109339533Y-128679666D01*
X109372866Y-128613000D01*
X109372866Y-128346333D01*
X109006199Y-128979666D02*
X109006199Y-129413000D01*
X109272866Y-129179666D01*
X109272866Y-129279666D01*
X109306199Y-129346333D01*
X109339533Y-129379666D01*
X109406199Y-129413000D01*
X109572866Y-129413000D01*
X109639533Y-129379666D01*
X109672866Y-129346333D01*
X109706199Y-129279666D01*
X109706199Y-129079666D01*
X109672866Y-129013000D01*
X109639533Y-128979666D01*
X109706199Y-132556108D02*
X109372866Y-132322775D01*
X109706199Y-132156108D02*
X109006199Y-132156108D01*
X109006199Y-132422775D01*
X109039533Y-132489441D01*
X109072866Y-132522775D01*
X109139533Y-132556108D01*
X109239533Y-132556108D01*
X109306199Y-132522775D01*
X109339533Y-132489441D01*
X109372866Y-132422775D01*
X109372866Y-132156108D01*
X109072866Y-132822775D02*
X109039533Y-132856108D01*
X109006199Y-132922775D01*
X109006199Y-133089441D01*
X109039533Y-133156108D01*
X109072866Y-133189441D01*
X109139533Y-133222775D01*
X109206199Y-133222775D01*
X109306199Y-133189441D01*
X109706199Y-132789441D01*
X109706199Y-133222775D01*
X109706199Y-136366333D02*
X109372866Y-136133000D01*
X109706199Y-135966333D02*
X109006199Y-135966333D01*
X109006199Y-136233000D01*
X109039533Y-136299666D01*
X109072866Y-136333000D01*
X109139533Y-136366333D01*
X109239533Y-136366333D01*
X109306199Y-136333000D01*
X109339533Y-136299666D01*
X109372866Y-136233000D01*
X109372866Y-135966333D01*
X109706199Y-137033000D02*
X109706199Y-136633000D01*
X109706199Y-136833000D02*
X109006199Y-136833000D01*
X109106199Y-136766333D01*
X109172866Y-136699666D01*
X109206199Y-136633000D01*
X112362833Y-110762941D02*
X112296166Y-110762941D01*
X112229499Y-110796275D01*
X112196166Y-110829608D01*
X112162833Y-110896275D01*
X112129499Y-111029608D01*
X112129499Y-111196275D01*
X112162833Y-111329608D01*
X112196166Y-111396275D01*
X112229499Y-111429608D01*
X112296166Y-111462941D01*
X112362833Y-111462941D01*
X112429499Y-111429608D01*
X112462833Y-111396275D01*
X112496166Y-111329608D01*
X112529499Y-111196275D01*
X112529499Y-111029608D01*
X112496166Y-110896275D01*
X112462833Y-110829608D01*
X112429499Y-110796275D01*
X112362833Y-110762941D01*
X111696166Y-110762941D02*
X111629499Y-110762941D01*
X111562833Y-110796275D01*
X111529499Y-110829608D01*
X111496166Y-110896275D01*
X111462833Y-111029608D01*
X111462833Y-111196275D01*
X111496166Y-111329608D01*
X111529499Y-111396275D01*
X111562833Y-111429608D01*
X111629499Y-111462941D01*
X111696166Y-111462941D01*
X111762833Y-111429608D01*
X111796166Y-111396275D01*
X111829499Y-111329608D01*
X111862833Y-111196275D01*
X111862833Y-111029608D01*
X111829499Y-110896275D01*
X111796166Y-110829608D01*
X111762833Y-110796275D01*
X111696166Y-110762941D01*
X110862833Y-110762941D02*
X110996166Y-110762941D01*
X111062833Y-110796275D01*
X111096166Y-110829608D01*
X111162833Y-110929608D01*
X111196166Y-111062941D01*
X111196166Y-111329608D01*
X111162833Y-111396275D01*
X111129499Y-111429608D01*
X111062833Y-111462941D01*
X110929499Y-111462941D01*
X110862833Y-111429608D01*
X110829499Y-111396275D01*
X110796166Y-111329608D01*
X110796166Y-111162941D01*
X110829499Y-111096275D01*
X110862833Y-111062941D01*
X110929499Y-111029608D01*
X111062833Y-111029608D01*
X111129499Y-111062941D01*
X111162833Y-111096275D01*
X111196166Y-111162941D01*
X96627533Y-136162941D02*
X96560866Y-136162941D01*
X96494199Y-136196275D01*
X96460866Y-136229608D01*
X96427533Y-136296275D01*
X96394199Y-136429608D01*
X96394199Y-136596275D01*
X96427533Y-136729608D01*
X96460866Y-136796275D01*
X96494199Y-136829608D01*
X96560866Y-136862941D01*
X96627533Y-136862941D01*
X96694199Y-136829608D01*
X96727533Y-136796275D01*
X96760866Y-136729608D01*
X96794199Y-136596275D01*
X96794199Y-136429608D01*
X96760866Y-136296275D01*
X96727533Y-136229608D01*
X96694199Y-136196275D01*
X96627533Y-136162941D01*
X95727533Y-136862941D02*
X96127533Y-136862941D01*
X95927533Y-136862941D02*
X95927533Y-136162941D01*
X95994199Y-136262941D01*
X96060866Y-136329608D01*
X96127533Y-136362941D01*
X95294199Y-136162941D02*
X95227533Y-136162941D01*
X95160866Y-136196275D01*
X95127533Y-136229608D01*
X95094199Y-136296275D01*
X95060866Y-136429608D01*
X95060866Y-136596275D01*
X95094199Y-136729608D01*
X95127533Y-136796275D01*
X95160866Y-136829608D01*
X95227533Y-136862941D01*
X95294199Y-136862941D01*
X95360866Y-136829608D01*
X95394199Y-136796275D01*
X95427533Y-136729608D01*
X95460866Y-136596275D01*
X95460866Y-136429608D01*
X95427533Y-136296275D01*
X95394199Y-136229608D01*
X95360866Y-136196275D01*
X95294199Y-136162941D01*
X96627533Y-123462941D02*
X96560866Y-123462941D01*
X96494199Y-123496275D01*
X96460866Y-123529608D01*
X96427533Y-123596275D01*
X96394199Y-123729608D01*
X96394199Y-123896275D01*
X96427533Y-124029608D01*
X96460866Y-124096275D01*
X96494199Y-124129608D01*
X96560866Y-124162941D01*
X96627533Y-124162941D01*
X96694199Y-124129608D01*
X96727533Y-124096275D01*
X96760866Y-124029608D01*
X96794199Y-123896275D01*
X96794199Y-123729608D01*
X96760866Y-123596275D01*
X96727533Y-123529608D01*
X96694199Y-123496275D01*
X96627533Y-123462941D01*
X95727533Y-124162941D02*
X96127533Y-124162941D01*
X95927533Y-124162941D02*
X95927533Y-123462941D01*
X95994199Y-123562941D01*
X96060866Y-123629608D01*
X96127533Y-123662941D01*
X95494199Y-123462941D02*
X95027533Y-123462941D01*
X95327533Y-124162941D01*
X112375533Y-113302941D02*
X112308866Y-113302941D01*
X112242199Y-113336275D01*
X112208866Y-113369608D01*
X112175533Y-113436275D01*
X112142199Y-113569608D01*
X112142199Y-113736275D01*
X112175533Y-113869608D01*
X112208866Y-113936275D01*
X112242199Y-113969608D01*
X112308866Y-114002941D01*
X112375533Y-114002941D01*
X112442199Y-113969608D01*
X112475533Y-113936275D01*
X112508866Y-113869608D01*
X112542199Y-113736275D01*
X112542199Y-113569608D01*
X112508866Y-113436275D01*
X112475533Y-113369608D01*
X112442199Y-113336275D01*
X112375533Y-113302941D01*
X111708866Y-113302941D02*
X111642199Y-113302941D01*
X111575533Y-113336275D01*
X111542199Y-113369608D01*
X111508866Y-113436275D01*
X111475533Y-113569608D01*
X111475533Y-113736275D01*
X111508866Y-113869608D01*
X111542199Y-113936275D01*
X111575533Y-113969608D01*
X111642199Y-114002941D01*
X111708866Y-114002941D01*
X111775533Y-113969608D01*
X111808866Y-113936275D01*
X111842199Y-113869608D01*
X111875533Y-113736275D01*
X111875533Y-113569608D01*
X111842199Y-113436275D01*
X111808866Y-113369608D01*
X111775533Y-113336275D01*
X111708866Y-113302941D01*
X111075533Y-113602941D02*
X111142199Y-113569608D01*
X111175533Y-113536275D01*
X111208866Y-113469608D01*
X111208866Y-113436275D01*
X111175533Y-113369608D01*
X111142199Y-113336275D01*
X111075533Y-113302941D01*
X110942199Y-113302941D01*
X110875533Y-113336275D01*
X110842199Y-113369608D01*
X110808866Y-113436275D01*
X110808866Y-113469608D01*
X110842199Y-113536275D01*
X110875533Y-113569608D01*
X110942199Y-113602941D01*
X111075533Y-113602941D01*
X111142199Y-113636275D01*
X111175533Y-113669608D01*
X111208866Y-113736275D01*
X111208866Y-113869608D01*
X111175533Y-113936275D01*
X111142199Y-113969608D01*
X111075533Y-114002941D01*
X110942199Y-114002941D01*
X110875533Y-113969608D01*
X110842199Y-113936275D01*
X110808866Y-113869608D01*
X110808866Y-113736275D01*
X110842199Y-113669608D01*
X110875533Y-113636275D01*
X110942199Y-113602941D01*
X96627533Y-126002941D02*
X96560866Y-126002941D01*
X96494199Y-126036275D01*
X96460866Y-126069608D01*
X96427533Y-126136275D01*
X96394199Y-126269608D01*
X96394199Y-126436275D01*
X96427533Y-126569608D01*
X96460866Y-126636275D01*
X96494199Y-126669608D01*
X96560866Y-126702941D01*
X96627533Y-126702941D01*
X96694199Y-126669608D01*
X96727533Y-126636275D01*
X96760866Y-126569608D01*
X96794199Y-126436275D01*
X96794199Y-126269608D01*
X96760866Y-126136275D01*
X96727533Y-126069608D01*
X96694199Y-126036275D01*
X96627533Y-126002941D01*
X96127533Y-126069608D02*
X96094199Y-126036275D01*
X96027533Y-126002941D01*
X95860866Y-126002941D01*
X95794199Y-126036275D01*
X95760866Y-126069608D01*
X95727533Y-126136275D01*
X95727533Y-126202941D01*
X95760866Y-126302941D01*
X96160866Y-126702941D01*
X95727533Y-126702941D01*
X95294199Y-126002941D02*
X95227533Y-126002941D01*
X95160866Y-126036275D01*
X95127533Y-126069608D01*
X95094199Y-126136275D01*
X95060866Y-126269608D01*
X95060866Y-126436275D01*
X95094199Y-126569608D01*
X95127533Y-126636275D01*
X95160866Y-126669608D01*
X95227533Y-126702941D01*
X95294199Y-126702941D01*
X95360866Y-126669608D01*
X95394199Y-126636275D01*
X95427533Y-126569608D01*
X95460866Y-126436275D01*
X95460866Y-126269608D01*
X95427533Y-126136275D01*
X95394199Y-126069608D01*
X95360866Y-126036275D01*
X95294199Y-126002941D01*
X96627533Y-120922941D02*
X96560866Y-120922941D01*
X96494199Y-120956275D01*
X96460866Y-120989608D01*
X96427533Y-121056275D01*
X96394199Y-121189608D01*
X96394199Y-121356275D01*
X96427533Y-121489608D01*
X96460866Y-121556275D01*
X96494199Y-121589608D01*
X96560866Y-121622941D01*
X96627533Y-121622941D01*
X96694199Y-121589608D01*
X96727533Y-121556275D01*
X96760866Y-121489608D01*
X96794199Y-121356275D01*
X96794199Y-121189608D01*
X96760866Y-121056275D01*
X96727533Y-120989608D01*
X96694199Y-120956275D01*
X96627533Y-120922941D01*
X95727533Y-121622941D02*
X96127533Y-121622941D01*
X95927533Y-121622941D02*
X95927533Y-120922941D01*
X95994199Y-121022941D01*
X96060866Y-121089608D01*
X96127533Y-121122941D01*
X95094199Y-120922941D02*
X95427533Y-120922941D01*
X95460866Y-121256275D01*
X95427533Y-121222941D01*
X95360866Y-121189608D01*
X95194199Y-121189608D01*
X95127533Y-121222941D01*
X95094199Y-121256275D01*
X95060866Y-121322941D01*
X95060866Y-121489608D01*
X95094199Y-121556275D01*
X95127533Y-121589608D01*
X95194199Y-121622941D01*
X95360866Y-121622941D01*
X95427533Y-121589608D01*
X95460866Y-121556275D01*
X112208866Y-118416275D02*
X112275533Y-118382941D01*
X112375533Y-118382941D01*
X112475533Y-118416275D01*
X112542199Y-118482941D01*
X112575533Y-118549608D01*
X112608866Y-118682941D01*
X112608866Y-118782941D01*
X112575533Y-118916275D01*
X112542199Y-118982941D01*
X112475533Y-119049608D01*
X112375533Y-119082941D01*
X112308866Y-119082941D01*
X112208866Y-119049608D01*
X112175533Y-119016275D01*
X112175533Y-118782941D01*
X112308866Y-118782941D01*
X111875533Y-119082941D02*
X111875533Y-118382941D01*
X111475533Y-119082941D01*
X111475533Y-118382941D01*
X111142199Y-119082941D02*
X111142199Y-118382941D01*
X110975533Y-118382941D01*
X110875533Y-118416275D01*
X110808866Y-118482941D01*
X110775533Y-118549608D01*
X110742199Y-118682941D01*
X110742199Y-118782941D01*
X110775533Y-118916275D01*
X110808866Y-118982941D01*
X110875533Y-119049608D01*
X110975533Y-119082941D01*
X111142199Y-119082941D01*
X96627533Y-128542941D02*
X96560866Y-128542941D01*
X96494199Y-128576275D01*
X96460866Y-128609608D01*
X96427533Y-128676275D01*
X96394199Y-128809608D01*
X96394199Y-128976275D01*
X96427533Y-129109608D01*
X96460866Y-129176275D01*
X96494199Y-129209608D01*
X96560866Y-129242941D01*
X96627533Y-129242941D01*
X96694199Y-129209608D01*
X96727533Y-129176275D01*
X96760866Y-129109608D01*
X96794199Y-128976275D01*
X96794199Y-128809608D01*
X96760866Y-128676275D01*
X96727533Y-128609608D01*
X96694199Y-128576275D01*
X96627533Y-128542941D01*
X95727533Y-129242941D02*
X96127533Y-129242941D01*
X95927533Y-129242941D02*
X95927533Y-128542941D01*
X95994199Y-128642941D01*
X96060866Y-128709608D01*
X96127533Y-128742941D01*
X95494199Y-128542941D02*
X95060866Y-128542941D01*
X95294199Y-128809608D01*
X95194199Y-128809608D01*
X95127533Y-128842941D01*
X95094199Y-128876275D01*
X95060866Y-128942941D01*
X95060866Y-129109608D01*
X95094199Y-129176275D01*
X95127533Y-129209608D01*
X95194199Y-129242941D01*
X95394199Y-129242941D01*
X95460866Y-129209608D01*
X95494199Y-129176275D01*
X112208866Y-115876275D02*
X112275533Y-115842941D01*
X112375533Y-115842941D01*
X112475533Y-115876275D01*
X112542199Y-115942941D01*
X112575533Y-116009608D01*
X112608866Y-116142941D01*
X112608866Y-116242941D01*
X112575533Y-116376275D01*
X112542199Y-116442941D01*
X112475533Y-116509608D01*
X112375533Y-116542941D01*
X112308866Y-116542941D01*
X112208866Y-116509608D01*
X112175533Y-116476275D01*
X112175533Y-116242941D01*
X112308866Y-116242941D01*
X111875533Y-116542941D02*
X111875533Y-115842941D01*
X111475533Y-116542941D01*
X111475533Y-115842941D01*
X111142199Y-116542941D02*
X111142199Y-115842941D01*
X110975533Y-115842941D01*
X110875533Y-115876275D01*
X110808866Y-115942941D01*
X110775533Y-116009608D01*
X110742199Y-116142941D01*
X110742199Y-116242941D01*
X110775533Y-116376275D01*
X110808866Y-116442941D01*
X110875533Y-116509608D01*
X110975533Y-116542941D01*
X111142199Y-116542941D01*
X96627533Y-133622941D02*
X96560866Y-133622941D01*
X96494199Y-133656275D01*
X96460866Y-133689608D01*
X96427533Y-133756275D01*
X96394199Y-133889608D01*
X96394199Y-134056275D01*
X96427533Y-134189608D01*
X96460866Y-134256275D01*
X96494199Y-134289608D01*
X96560866Y-134322941D01*
X96627533Y-134322941D01*
X96694199Y-134289608D01*
X96727533Y-134256275D01*
X96760866Y-134189608D01*
X96794199Y-134056275D01*
X96794199Y-133889608D01*
X96760866Y-133756275D01*
X96727533Y-133689608D01*
X96694199Y-133656275D01*
X96627533Y-133622941D01*
X95960866Y-133622941D02*
X95894199Y-133622941D01*
X95827533Y-133656275D01*
X95794199Y-133689608D01*
X95760866Y-133756275D01*
X95727533Y-133889608D01*
X95727533Y-134056275D01*
X95760866Y-134189608D01*
X95794199Y-134256275D01*
X95827533Y-134289608D01*
X95894199Y-134322941D01*
X95960866Y-134322941D01*
X96027533Y-134289608D01*
X96060866Y-134256275D01*
X96094199Y-134189608D01*
X96127533Y-134056275D01*
X96127533Y-133889608D01*
X96094199Y-133756275D01*
X96060866Y-133689608D01*
X96027533Y-133656275D01*
X95960866Y-133622941D01*
X95394199Y-134322941D02*
X95260866Y-134322941D01*
X95194199Y-134289608D01*
X95160866Y-134256275D01*
X95094199Y-134156275D01*
X95060866Y-134022941D01*
X95060866Y-133756275D01*
X95094199Y-133689608D01*
X95127533Y-133656275D01*
X95194199Y-133622941D01*
X95327533Y-133622941D01*
X95394199Y-133656275D01*
X95427533Y-133689608D01*
X95460866Y-133756275D01*
X95460866Y-133922941D01*
X95427533Y-133989608D01*
X95394199Y-134022941D01*
X95327533Y-134056275D01*
X95194199Y-134056275D01*
X95127533Y-134022941D01*
X95094199Y-133989608D01*
X95060866Y-133922941D01*
X96627533Y-131082941D02*
X96560866Y-131082941D01*
X96494199Y-131116275D01*
X96460866Y-131149608D01*
X96427533Y-131216275D01*
X96394199Y-131349608D01*
X96394199Y-131516275D01*
X96427533Y-131649608D01*
X96460866Y-131716275D01*
X96494199Y-131749608D01*
X96560866Y-131782941D01*
X96627533Y-131782941D01*
X96694199Y-131749608D01*
X96727533Y-131716275D01*
X96760866Y-131649608D01*
X96794199Y-131516275D01*
X96794199Y-131349608D01*
X96760866Y-131216275D01*
X96727533Y-131149608D01*
X96694199Y-131116275D01*
X96627533Y-131082941D01*
X96127533Y-131149608D02*
X96094199Y-131116275D01*
X96027533Y-131082941D01*
X95860866Y-131082941D01*
X95794199Y-131116275D01*
X95760866Y-131149608D01*
X95727533Y-131216275D01*
X95727533Y-131282941D01*
X95760866Y-131382941D01*
X96160866Y-131782941D01*
X95727533Y-131782941D01*
X95127533Y-131316275D02*
X95127533Y-131782941D01*
X95294199Y-131049608D02*
X95460866Y-131549608D01*
X95027533Y-131549608D01*
X96394199Y-139402941D02*
X96794199Y-139402941D01*
X96594199Y-139402941D02*
X96594199Y-138702941D01*
X96660866Y-138802941D01*
X96727533Y-138869608D01*
X96794199Y-138902941D01*
X95960866Y-138702941D02*
X95894199Y-138702941D01*
X95827533Y-138736275D01*
X95794199Y-138769608D01*
X95760866Y-138836275D01*
X95727533Y-138969608D01*
X95727533Y-139136275D01*
X95760866Y-139269608D01*
X95794199Y-139336275D01*
X95827533Y-139369608D01*
X95894199Y-139402941D01*
X95960866Y-139402941D01*
X96027533Y-139369608D01*
X96060866Y-139336275D01*
X96094199Y-139269608D01*
X96127533Y-139136275D01*
X96127533Y-138969608D01*
X96094199Y-138836275D01*
X96060866Y-138769608D01*
X96027533Y-138736275D01*
X95960866Y-138702941D01*
X95127533Y-138702941D02*
X95260866Y-138702941D01*
X95327533Y-138736275D01*
X95360866Y-138769608D01*
X95427533Y-138869608D01*
X95460866Y-139002941D01*
X95460866Y-139269608D01*
X95427533Y-139336275D01*
X95394199Y-139369608D01*
X95327533Y-139402941D01*
X95194199Y-139402941D01*
X95127533Y-139369608D01*
X95094199Y-139336275D01*
X95060866Y-139269608D01*
X95060866Y-139102941D01*
X95094199Y-139036275D01*
X95127533Y-139002941D01*
X95194199Y-138969608D01*
X95327533Y-138969608D01*
X95394199Y-139002941D01*
X95427533Y-139036275D01*
X95460866Y-139102941D01*
X96410866Y-111399441D02*
X96644199Y-111066108D01*
X96810866Y-111399441D02*
X96810866Y-110699441D01*
X96544199Y-110699441D01*
X96477533Y-110732775D01*
X96444199Y-110766108D01*
X96410866Y-110832775D01*
X96410866Y-110932775D01*
X96444199Y-110999441D01*
X96477533Y-111032775D01*
X96544199Y-111066108D01*
X96810866Y-111066108D01*
X96144199Y-111199441D02*
X95810866Y-111199441D01*
X96210866Y-111399441D02*
X95977533Y-110699441D01*
X95744199Y-111399441D01*
X95577533Y-110699441D02*
X95410866Y-111399441D01*
X95277533Y-110899441D01*
X95144199Y-111399441D01*
X94977533Y-110699441D01*
X112375533Y-133622941D02*
X112308866Y-133622941D01*
X112242199Y-133656275D01*
X112208866Y-133689608D01*
X112175533Y-133756275D01*
X112142199Y-133889608D01*
X112142199Y-134056275D01*
X112175533Y-134189608D01*
X112208866Y-134256275D01*
X112242199Y-134289608D01*
X112308866Y-134322941D01*
X112375533Y-134322941D01*
X112442199Y-134289608D01*
X112475533Y-134256275D01*
X112508866Y-134189608D01*
X112542199Y-134056275D01*
X112542199Y-133889608D01*
X112508866Y-133756275D01*
X112475533Y-133689608D01*
X112442199Y-133656275D01*
X112375533Y-133622941D01*
X111708866Y-133622941D02*
X111642199Y-133622941D01*
X111575533Y-133656275D01*
X111542199Y-133689608D01*
X111508866Y-133756275D01*
X111475533Y-133889608D01*
X111475533Y-134056275D01*
X111508866Y-134189608D01*
X111542199Y-134256275D01*
X111575533Y-134289608D01*
X111642199Y-134322941D01*
X111708866Y-134322941D01*
X111775533Y-134289608D01*
X111808866Y-134256275D01*
X111842199Y-134189608D01*
X111875533Y-134056275D01*
X111875533Y-133889608D01*
X111842199Y-133756275D01*
X111808866Y-133689608D01*
X111775533Y-133656275D01*
X111708866Y-133622941D01*
X111242199Y-133622941D02*
X110808866Y-133622941D01*
X111042199Y-133889608D01*
X110942199Y-133889608D01*
X110875533Y-133922941D01*
X110842199Y-133956275D01*
X110808866Y-134022941D01*
X110808866Y-134189608D01*
X110842199Y-134256275D01*
X110875533Y-134289608D01*
X110942199Y-134322941D01*
X111142199Y-134322941D01*
X111208866Y-134289608D01*
X111242199Y-134256275D01*
X112375533Y-136162941D02*
X112308866Y-136162941D01*
X112242199Y-136196275D01*
X112208866Y-136229608D01*
X112175533Y-136296275D01*
X112142199Y-136429608D01*
X112142199Y-136596275D01*
X112175533Y-136729608D01*
X112208866Y-136796275D01*
X112242199Y-136829608D01*
X112308866Y-136862941D01*
X112375533Y-136862941D01*
X112442199Y-136829608D01*
X112475533Y-136796275D01*
X112508866Y-136729608D01*
X112542199Y-136596275D01*
X112542199Y-136429608D01*
X112508866Y-136296275D01*
X112475533Y-136229608D01*
X112442199Y-136196275D01*
X112375533Y-136162941D01*
X111875533Y-136229608D02*
X111842199Y-136196275D01*
X111775533Y-136162941D01*
X111608866Y-136162941D01*
X111542199Y-136196275D01*
X111508866Y-136229608D01*
X111475533Y-136296275D01*
X111475533Y-136362941D01*
X111508866Y-136462941D01*
X111908866Y-136862941D01*
X111475533Y-136862941D01*
X111075533Y-136462941D02*
X111142199Y-136429608D01*
X111175533Y-136396275D01*
X111208866Y-136329608D01*
X111208866Y-136296275D01*
X111175533Y-136229608D01*
X111142199Y-136196275D01*
X111075533Y-136162941D01*
X110942199Y-136162941D01*
X110875533Y-136196275D01*
X110842199Y-136229608D01*
X110808866Y-136296275D01*
X110808866Y-136329608D01*
X110842199Y-136396275D01*
X110875533Y-136429608D01*
X110942199Y-136462941D01*
X111075533Y-136462941D01*
X111142199Y-136496275D01*
X111175533Y-136529608D01*
X111208866Y-136596275D01*
X111208866Y-136729608D01*
X111175533Y-136796275D01*
X111142199Y-136829608D01*
X111075533Y-136862941D01*
X110942199Y-136862941D01*
X110875533Y-136829608D01*
X110842199Y-136796275D01*
X110808866Y-136729608D01*
X110808866Y-136596275D01*
X110842199Y-136529608D01*
X110875533Y-136496275D01*
X110942199Y-136462941D01*
X96460866Y-113336275D02*
X96527533Y-113302941D01*
X96627533Y-113302941D01*
X96727533Y-113336275D01*
X96794199Y-113402941D01*
X96827533Y-113469608D01*
X96860866Y-113602941D01*
X96860866Y-113702941D01*
X96827533Y-113836275D01*
X96794199Y-113902941D01*
X96727533Y-113969608D01*
X96627533Y-114002941D01*
X96560866Y-114002941D01*
X96460866Y-113969608D01*
X96427533Y-113936275D01*
X96427533Y-113702941D01*
X96560866Y-113702941D01*
X96127533Y-114002941D02*
X96127533Y-113302941D01*
X95727533Y-114002941D01*
X95727533Y-113302941D01*
X95394199Y-114002941D02*
X95394199Y-113302941D01*
X95227533Y-113302941D01*
X95127533Y-113336275D01*
X95060866Y-113402941D01*
X95027533Y-113469608D01*
X94994199Y-113602941D01*
X94994199Y-113702941D01*
X95027533Y-113836275D01*
X95060866Y-113902941D01*
X95127533Y-113969608D01*
X95227533Y-114002941D01*
X95394199Y-114002941D01*
X96860866Y-118382941D02*
X96627533Y-119082941D01*
X96394199Y-118382941D01*
X95760866Y-119016275D02*
X95794199Y-119049608D01*
X95894199Y-119082941D01*
X95960866Y-119082941D01*
X96060866Y-119049608D01*
X96127533Y-118982941D01*
X96160866Y-118916275D01*
X96194199Y-118782941D01*
X96194199Y-118682941D01*
X96160866Y-118549608D01*
X96127533Y-118482941D01*
X96060866Y-118416275D01*
X95960866Y-118382941D01*
X95894199Y-118382941D01*
X95794199Y-118416275D01*
X95760866Y-118449608D01*
X95060866Y-119016275D02*
X95094199Y-119049608D01*
X95194199Y-119082941D01*
X95260866Y-119082941D01*
X95360866Y-119049608D01*
X95427533Y-118982941D01*
X95460866Y-118916275D01*
X95494199Y-118782941D01*
X95494199Y-118682941D01*
X95460866Y-118549608D01*
X95427533Y-118482941D01*
X95360866Y-118416275D01*
X95260866Y-118382941D01*
X95194199Y-118382941D01*
X95094199Y-118416275D01*
X95060866Y-118449608D01*
X112375533Y-120922941D02*
X112308866Y-120922941D01*
X112242199Y-120956275D01*
X112208866Y-120989608D01*
X112175533Y-121056275D01*
X112142199Y-121189608D01*
X112142199Y-121356275D01*
X112175533Y-121489608D01*
X112208866Y-121556275D01*
X112242199Y-121589608D01*
X112308866Y-121622941D01*
X112375533Y-121622941D01*
X112442199Y-121589608D01*
X112475533Y-121556275D01*
X112508866Y-121489608D01*
X112542199Y-121356275D01*
X112542199Y-121189608D01*
X112508866Y-121056275D01*
X112475533Y-120989608D01*
X112442199Y-120956275D01*
X112375533Y-120922941D01*
X111908866Y-120922941D02*
X111475533Y-120922941D01*
X111708866Y-121189608D01*
X111608866Y-121189608D01*
X111542199Y-121222941D01*
X111508866Y-121256275D01*
X111475533Y-121322941D01*
X111475533Y-121489608D01*
X111508866Y-121556275D01*
X111542199Y-121589608D01*
X111608866Y-121622941D01*
X111808866Y-121622941D01*
X111875533Y-121589608D01*
X111908866Y-121556275D01*
X111042199Y-120922941D02*
X110975533Y-120922941D01*
X110908866Y-120956275D01*
X110875533Y-120989608D01*
X110842199Y-121056275D01*
X110808866Y-121189608D01*
X110808866Y-121356275D01*
X110842199Y-121489608D01*
X110875533Y-121556275D01*
X110908866Y-121589608D01*
X110975533Y-121622941D01*
X111042199Y-121622941D01*
X111108866Y-121589608D01*
X111142199Y-121556275D01*
X111175533Y-121489608D01*
X111208866Y-121356275D01*
X111208866Y-121189608D01*
X111175533Y-121056275D01*
X111142199Y-120989608D01*
X111108866Y-120956275D01*
X111042199Y-120922941D01*
X112142199Y-131782941D02*
X112542199Y-131782941D01*
X112342199Y-131782941D02*
X112342199Y-131082941D01*
X112408866Y-131182941D01*
X112475533Y-131249608D01*
X112542199Y-131282941D01*
X111475533Y-131782941D02*
X111875533Y-131782941D01*
X111675533Y-131782941D02*
X111675533Y-131082941D01*
X111742199Y-131182941D01*
X111808866Y-131249608D01*
X111875533Y-131282941D01*
X111242199Y-131082941D02*
X110808866Y-131082941D01*
X111042199Y-131349608D01*
X110942199Y-131349608D01*
X110875533Y-131382941D01*
X110842199Y-131416275D01*
X110808866Y-131482941D01*
X110808866Y-131649608D01*
X110842199Y-131716275D01*
X110875533Y-131749608D01*
X110942199Y-131782941D01*
X111142199Y-131782941D01*
X111208866Y-131749608D01*
X111242199Y-131716275D01*
X112142199Y-139402941D02*
X112542199Y-139402941D01*
X112342199Y-139402941D02*
X112342199Y-138702941D01*
X112408866Y-138802941D01*
X112475533Y-138869608D01*
X112542199Y-138902941D01*
X111475533Y-139402941D02*
X111875533Y-139402941D01*
X111675533Y-139402941D02*
X111675533Y-138702941D01*
X111742199Y-138802941D01*
X111808866Y-138869608D01*
X111875533Y-138902941D01*
X110808866Y-139402941D02*
X111208866Y-139402941D01*
X111008866Y-139402941D02*
X111008866Y-138702941D01*
X111075533Y-138802941D01*
X111142199Y-138869608D01*
X111208866Y-138902941D01*
X112375533Y-128542941D02*
X112308866Y-128542941D01*
X112242199Y-128576275D01*
X112208866Y-128609608D01*
X112175533Y-128676275D01*
X112142199Y-128809608D01*
X112142199Y-128976275D01*
X112175533Y-129109608D01*
X112208866Y-129176275D01*
X112242199Y-129209608D01*
X112308866Y-129242941D01*
X112375533Y-129242941D01*
X112442199Y-129209608D01*
X112475533Y-129176275D01*
X112508866Y-129109608D01*
X112542199Y-128976275D01*
X112542199Y-128809608D01*
X112508866Y-128676275D01*
X112475533Y-128609608D01*
X112442199Y-128576275D01*
X112375533Y-128542941D01*
X111708866Y-128542941D02*
X111642199Y-128542941D01*
X111575533Y-128576275D01*
X111542199Y-128609608D01*
X111508866Y-128676275D01*
X111475533Y-128809608D01*
X111475533Y-128976275D01*
X111508866Y-129109608D01*
X111542199Y-129176275D01*
X111575533Y-129209608D01*
X111642199Y-129242941D01*
X111708866Y-129242941D01*
X111775533Y-129209608D01*
X111808866Y-129176275D01*
X111842199Y-129109608D01*
X111875533Y-128976275D01*
X111875533Y-128809608D01*
X111842199Y-128676275D01*
X111808866Y-128609608D01*
X111775533Y-128576275D01*
X111708866Y-128542941D01*
X111208866Y-128609608D02*
X111175533Y-128576275D01*
X111108866Y-128542941D01*
X110942199Y-128542941D01*
X110875533Y-128576275D01*
X110842199Y-128609608D01*
X110808866Y-128676275D01*
X110808866Y-128742941D01*
X110842199Y-128842941D01*
X111242199Y-129242941D01*
X110808866Y-129242941D01*
X96310866Y-116542941D02*
X96544199Y-116209608D01*
X96710866Y-116542941D02*
X96710866Y-115842941D01*
X96444199Y-115842941D01*
X96377533Y-115876275D01*
X96344199Y-115909608D01*
X96310866Y-115976275D01*
X96310866Y-116076275D01*
X96344199Y-116142941D01*
X96377533Y-116176275D01*
X96444199Y-116209608D01*
X96710866Y-116209608D01*
X96044199Y-116509608D02*
X95944199Y-116542941D01*
X95777533Y-116542941D01*
X95710866Y-116509608D01*
X95677533Y-116476275D01*
X95644199Y-116409608D01*
X95644199Y-116342941D01*
X95677533Y-116276275D01*
X95710866Y-116242941D01*
X95777533Y-116209608D01*
X95910866Y-116176275D01*
X95977533Y-116142941D01*
X96010866Y-116109608D01*
X96044199Y-116042941D01*
X96044199Y-115976275D01*
X96010866Y-115909608D01*
X95977533Y-115876275D01*
X95910866Y-115842941D01*
X95744199Y-115842941D01*
X95644199Y-115876275D01*
X95444199Y-115842941D02*
X95044199Y-115842941D01*
X95244199Y-116542941D02*
X95244199Y-115842941D01*
X112375533Y-123462941D02*
X112308866Y-123462941D01*
X112242199Y-123496275D01*
X112208866Y-123529608D01*
X112175533Y-123596275D01*
X112142199Y-123729608D01*
X112142199Y-123896275D01*
X112175533Y-124029608D01*
X112208866Y-124096275D01*
X112242199Y-124129608D01*
X112308866Y-124162941D01*
X112375533Y-124162941D01*
X112442199Y-124129608D01*
X112475533Y-124096275D01*
X112508866Y-124029608D01*
X112542199Y-123896275D01*
X112542199Y-123729608D01*
X112508866Y-123596275D01*
X112475533Y-123529608D01*
X112442199Y-123496275D01*
X112375533Y-123462941D01*
X111908866Y-123462941D02*
X111475533Y-123462941D01*
X111708866Y-123729608D01*
X111608866Y-123729608D01*
X111542199Y-123762941D01*
X111508866Y-123796275D01*
X111475533Y-123862941D01*
X111475533Y-124029608D01*
X111508866Y-124096275D01*
X111542199Y-124129608D01*
X111608866Y-124162941D01*
X111808866Y-124162941D01*
X111875533Y-124129608D01*
X111908866Y-124096275D01*
X110808866Y-124162941D02*
X111208866Y-124162941D01*
X111008866Y-124162941D02*
X111008866Y-123462941D01*
X111075533Y-123562941D01*
X111142199Y-123629608D01*
X111208866Y-123662941D01*
X112375533Y-126002941D02*
X112308866Y-126002941D01*
X112242199Y-126036275D01*
X112208866Y-126069608D01*
X112175533Y-126136275D01*
X112142199Y-126269608D01*
X112142199Y-126436275D01*
X112175533Y-126569608D01*
X112208866Y-126636275D01*
X112242199Y-126669608D01*
X112308866Y-126702941D01*
X112375533Y-126702941D01*
X112442199Y-126669608D01*
X112475533Y-126636275D01*
X112508866Y-126569608D01*
X112542199Y-126436275D01*
X112542199Y-126269608D01*
X112508866Y-126136275D01*
X112475533Y-126069608D01*
X112442199Y-126036275D01*
X112375533Y-126002941D01*
X111875533Y-126069608D02*
X111842199Y-126036275D01*
X111775533Y-126002941D01*
X111608866Y-126002941D01*
X111542199Y-126036275D01*
X111508866Y-126069608D01*
X111475533Y-126136275D01*
X111475533Y-126202941D01*
X111508866Y-126302941D01*
X111908866Y-126702941D01*
X111475533Y-126702941D01*
X111142199Y-126702941D02*
X111008866Y-126702941D01*
X110942199Y-126669608D01*
X110908866Y-126636275D01*
X110842199Y-126536275D01*
X110808866Y-126402941D01*
X110808866Y-126136275D01*
X110842199Y-126069608D01*
X110875533Y-126036275D01*
X110942199Y-126002941D01*
X111075533Y-126002941D01*
X111142199Y-126036275D01*
X111175533Y-126069608D01*
X111208866Y-126136275D01*
X111208866Y-126302941D01*
X111175533Y-126369608D01*
X111142199Y-126402941D01*
X111075533Y-126436275D01*
X110942199Y-126436275D01*
X110875533Y-126402941D01*
X110842199Y-126369608D01*
X110808866Y-126302941D01*
D14*
X98384137Y-134017930D02*
X98312708Y-134041740D01*
X98193661Y-134041740D01*
X98146042Y-134017930D01*
X98122232Y-133994121D01*
X98098423Y-133946502D01*
X98098423Y-133898883D01*
X98122232Y-133851264D01*
X98146042Y-133827454D01*
X98193661Y-133803645D01*
X98288899Y-133779835D01*
X98336518Y-133756026D01*
X98360327Y-133732216D01*
X98384137Y-133684597D01*
X98384137Y-133636978D01*
X98360327Y-133589359D01*
X98336518Y-133565550D01*
X98288899Y-133541740D01*
X98169851Y-133541740D01*
X98098423Y-133565550D01*
X97931756Y-133541740D02*
X97812708Y-134041740D01*
X97717470Y-133684597D01*
X97622232Y-134041740D01*
X97503185Y-133541740D01*
X97312708Y-134041740D02*
X97312708Y-133541740D01*
X97193661Y-133541740D01*
X97122232Y-133565550D01*
X97074613Y-133613169D01*
X97050804Y-133660788D01*
X97026994Y-133756026D01*
X97026994Y-133827454D01*
X97050804Y-133922692D01*
X97074613Y-133970311D01*
X97122232Y-134017930D01*
X97193661Y-134041740D01*
X97312708Y-134041740D01*
X98384137Y-136557930D02*
X98312708Y-136581740D01*
X98193661Y-136581740D01*
X98146042Y-136557930D01*
X98122232Y-136534121D01*
X98098423Y-136486502D01*
X98098423Y-136438883D01*
X98122232Y-136391264D01*
X98146042Y-136367454D01*
X98193661Y-136343645D01*
X98288899Y-136319835D01*
X98336518Y-136296026D01*
X98360327Y-136272216D01*
X98384137Y-136224597D01*
X98384137Y-136176978D01*
X98360327Y-136129359D01*
X98336518Y-136105550D01*
X98288899Y-136081740D01*
X98169851Y-136081740D01*
X98098423Y-136105550D01*
X97931756Y-136081740D02*
X97812708Y-136581740D01*
X97717470Y-136224597D01*
X97622232Y-136581740D01*
X97503185Y-136081740D01*
X97026994Y-136534121D02*
X97050804Y-136557930D01*
X97122232Y-136581740D01*
X97169851Y-136581740D01*
X97241280Y-136557930D01*
X97288899Y-136510311D01*
X97312708Y-136462692D01*
X97336518Y-136367454D01*
X97336518Y-136296026D01*
X97312708Y-136200788D01*
X97288899Y-136153169D01*
X97241280Y-136105550D01*
X97169851Y-136081740D01*
X97122232Y-136081740D01*
X97050804Y-136105550D01*
X97026994Y-136129359D01*
D13*
X110153866Y-109889775D02*
X110053866Y-109923108D01*
X110020533Y-109956441D01*
X109987199Y-110023108D01*
X109987199Y-110123108D01*
X110020533Y-110189775D01*
X110053866Y-110223108D01*
X110120533Y-110256441D01*
X110387199Y-110256441D01*
X110387199Y-109556441D01*
X110153866Y-109556441D01*
X110087199Y-109589775D01*
X110053866Y-109623108D01*
X110020533Y-109689775D01*
X110020533Y-109756441D01*
X110053866Y-109823108D01*
X110087199Y-109856441D01*
X110153866Y-109889775D01*
X110387199Y-109889775D01*
X109687199Y-109989775D02*
X109153866Y-109989775D01*
X109420533Y-110256441D02*
X109420533Y-109723108D01*
X98469866Y-109889775D02*
X98369866Y-109923108D01*
X98336533Y-109956441D01*
X98303199Y-110023108D01*
X98303199Y-110123108D01*
X98336533Y-110189775D01*
X98369866Y-110223108D01*
X98436533Y-110256441D01*
X98703199Y-110256441D01*
X98703199Y-109556441D01*
X98469866Y-109556441D01*
X98403199Y-109589775D01*
X98369866Y-109623108D01*
X98336533Y-109689775D01*
X98336533Y-109756441D01*
X98369866Y-109823108D01*
X98403199Y-109856441D01*
X98469866Y-109889775D01*
X98703199Y-109889775D01*
X98003199Y-109989775D02*
X97469866Y-109989775D01*
D10*
X104734866Y-109842108D02*
X104634866Y-109875441D01*
X104468199Y-109875441D01*
X104401533Y-109842108D01*
X104368199Y-109808775D01*
X104334866Y-109742108D01*
X104334866Y-109675441D01*
X104368199Y-109608775D01*
X104401533Y-109575441D01*
X104468199Y-109542108D01*
X104601533Y-109508775D01*
X104668199Y-109475441D01*
X104701533Y-109442108D01*
X104734866Y-109375441D01*
X104734866Y-109308775D01*
X104701533Y-109242108D01*
X104668199Y-109208775D01*
X104601533Y-109175441D01*
X104434866Y-109175441D01*
X104334866Y-109208775D01*
X104101533Y-109175441D02*
X103934866Y-109875441D01*
X103801533Y-109375441D01*
X103668199Y-109875441D01*
X103501533Y-109175441D01*
X102868199Y-109875441D02*
X103268199Y-109875441D01*
X103068199Y-109875441D02*
X103068199Y-109175441D01*
X103134866Y-109275441D01*
X103201533Y-109342108D01*
X103268199Y-109375441D01*
X103868199Y-118197108D02*
X103934866Y-118163775D01*
X104001533Y-118097108D01*
X104101533Y-117997108D01*
X104168199Y-117963775D01*
X104234866Y-117963775D01*
X104201533Y-118130441D02*
X104268199Y-118097108D01*
X104334866Y-118030441D01*
X104368199Y-117897108D01*
X104368199Y-117663775D01*
X104334866Y-117530441D01*
X104268199Y-117463775D01*
X104201533Y-117430441D01*
X104068199Y-117430441D01*
X104001533Y-117463775D01*
X103934866Y-117530441D01*
X103901533Y-117663775D01*
X103901533Y-117897108D01*
X103934866Y-118030441D01*
X104001533Y-118097108D01*
X104068199Y-118130441D01*
X104201533Y-118130441D01*
X103634866Y-117497108D02*
X103601533Y-117463775D01*
X103534866Y-117430441D01*
X103368199Y-117430441D01*
X103301533Y-117463775D01*
X103268199Y-117497108D01*
X103234866Y-117563775D01*
X103234866Y-117630441D01*
X103268199Y-117730441D01*
X103668199Y-118130441D01*
X103234866Y-118130441D01*
X103487199Y-129246108D02*
X103553866Y-129212775D01*
X103620533Y-129146108D01*
X103720533Y-129046108D01*
X103787199Y-129012775D01*
X103853866Y-129012775D01*
X103820533Y-129179441D02*
X103887199Y-129146108D01*
X103953866Y-129079441D01*
X103987199Y-128946108D01*
X103987199Y-128712775D01*
X103953866Y-128579441D01*
X103887199Y-128512775D01*
X103820533Y-128479441D01*
X103687199Y-128479441D01*
X103620533Y-128512775D01*
X103553866Y-128579441D01*
X103520533Y-128712775D01*
X103520533Y-128946108D01*
X103553866Y-129079441D01*
X103620533Y-129146108D01*
X103687199Y-129179441D01*
X103820533Y-129179441D01*
X102853866Y-129179441D02*
X103253866Y-129179441D01*
X103053866Y-129179441D02*
X103053866Y-128479441D01*
X103120533Y-128579441D01*
X103187199Y-128646108D01*
X103253866Y-128679441D01*
X104080866Y-132289441D02*
X104080866Y-132856108D01*
X104047533Y-132922775D01*
X104014199Y-132956108D01*
X103947533Y-132989441D01*
X103814199Y-132989441D01*
X103747533Y-132956108D01*
X103714199Y-132922775D01*
X103680866Y-132856108D01*
X103680866Y-132289441D01*
X103380866Y-132356108D02*
X103347533Y-132322775D01*
X103280866Y-132289441D01*
X103114199Y-132289441D01*
X103047533Y-132322775D01*
X103014199Y-132356108D01*
X102980866Y-132422775D01*
X102980866Y-132489441D01*
X103014199Y-132589441D01*
X103414199Y-132989441D01*
X102980866Y-132989441D01*
M02*
