G04 #@! TF.GenerationSoftware,KiCad,Pcbnew,(5.1.6)-1*
G04 #@! TF.CreationDate,2020-06-11T17:33:57+01:00*
G04 #@! TF.ProjectId,nrfmicro,6e72666d-6963-4726-9f2e-6b696361645f,rev?*
G04 #@! TF.SameCoordinates,Original*
G04 #@! TF.FileFunction,Legend,Top*
G04 #@! TF.FilePolarity,Positive*
%FSLAX46Y46*%
G04 Gerber Fmt 4.6, Leading zero omitted, Abs format (unit mm)*
G04 Created by KiCad (PCBNEW (5.1.6)-1) date 2020-06-11 17:33:57*
%MOMM*%
%LPD*%
G01*
G04 APERTURE LIST*
%ADD10C,0.100000*%
%ADD11C,0.120000*%
%ADD12C,0.150000*%
G04 APERTURE END LIST*
D10*
X99517390Y-112494917D02*
X99517390Y-113137775D01*
X99474533Y-113266346D01*
X99388818Y-113352060D01*
X99260247Y-113394917D01*
X99174533Y-113394917D01*
X100374533Y-113394917D02*
X99945961Y-113394917D01*
X99945961Y-112494917D01*
X101188818Y-113309203D02*
X101145961Y-113352060D01*
X101017390Y-113394917D01*
X100931675Y-113394917D01*
X100803104Y-113352060D01*
X100717390Y-113266346D01*
X100674533Y-113180632D01*
X100631675Y-113009203D01*
X100631675Y-112880632D01*
X100674533Y-112709203D01*
X100717390Y-112623489D01*
X100803104Y-112537775D01*
X100931675Y-112494917D01*
X101017390Y-112494917D01*
X101145961Y-112537775D01*
X101188818Y-112580632D01*
X101831675Y-112494917D02*
X101831675Y-113137775D01*
X101788818Y-113266346D01*
X101703104Y-113352060D01*
X101574533Y-113394917D01*
X101488818Y-113394917D01*
X102688818Y-113394917D02*
X102260247Y-113394917D01*
X102260247Y-112494917D01*
X103503104Y-113309203D02*
X103460247Y-113352060D01*
X103331675Y-113394917D01*
X103245961Y-113394917D01*
X103117390Y-113352060D01*
X103031675Y-113266346D01*
X102988818Y-113180632D01*
X102945961Y-113009203D01*
X102945961Y-112880632D01*
X102988818Y-112709203D01*
X103031675Y-112623489D01*
X103117390Y-112537775D01*
X103245961Y-112494917D01*
X103331675Y-112494917D01*
X103460247Y-112537775D01*
X103503104Y-112580632D01*
X104145961Y-112494917D02*
X104145961Y-113137775D01*
X104103104Y-113266346D01*
X104017390Y-113352060D01*
X103888818Y-113394917D01*
X103803104Y-113394917D01*
X105003104Y-113394917D02*
X104574533Y-113394917D01*
X104574533Y-112494917D01*
X105817390Y-113309203D02*
X105774533Y-113352060D01*
X105645961Y-113394917D01*
X105560247Y-113394917D01*
X105431675Y-113352060D01*
X105345961Y-113266346D01*
X105303104Y-113180632D01*
X105260247Y-113009203D01*
X105260247Y-112880632D01*
X105303104Y-112709203D01*
X105345961Y-112623489D01*
X105431675Y-112537775D01*
X105560247Y-112494917D01*
X105645961Y-112494917D01*
X105774533Y-112537775D01*
X105817390Y-112580632D01*
X106460247Y-112494917D02*
X106460247Y-113137775D01*
X106417390Y-113266346D01*
X106331675Y-113352060D01*
X106203104Y-113394917D01*
X106117390Y-113394917D01*
X107317390Y-113394917D02*
X106888818Y-113394917D01*
X106888818Y-112494917D01*
X108131675Y-113309203D02*
X108088818Y-113352060D01*
X107960247Y-113394917D01*
X107874533Y-113394917D01*
X107745961Y-113352060D01*
X107660247Y-113266346D01*
X107617390Y-113180632D01*
X107574533Y-113009203D01*
X107574533Y-112880632D01*
X107617390Y-112709203D01*
X107660247Y-112623489D01*
X107745961Y-112537775D01*
X107874533Y-112494917D01*
X107960247Y-112494917D01*
X108088818Y-112537775D01*
X108131675Y-112580632D01*
D11*
X106052000Y-122243000D02*
X102152000Y-122243000D01*
X106052000Y-120243000D02*
X102152000Y-120243000D01*
X106052000Y-122243000D02*
X106052000Y-120243000D01*
X106814221Y-118578000D02*
X107139779Y-118578000D01*
X106814221Y-117558000D02*
X107139779Y-117558000D01*
X100789779Y-117558000D02*
X100464221Y-117558000D01*
X100789779Y-118578000D02*
X100464221Y-118578000D01*
X100726500Y-122728000D02*
X100726500Y-120443000D01*
X99256500Y-122728000D02*
X100726500Y-122728000D01*
X99256500Y-120443000D02*
X99256500Y-122728000D01*
X108347000Y-122728000D02*
X108347000Y-120443000D01*
X106877000Y-122728000D02*
X108347000Y-122728000D01*
X106877000Y-120443000D02*
X106877000Y-122728000D01*
D10*
X103284866Y-121559441D02*
X103284866Y-120859441D01*
X103451533Y-120859441D01*
X103551533Y-120892775D01*
X103618199Y-120959441D01*
X103651533Y-121026108D01*
X103684866Y-121159441D01*
X103684866Y-121259441D01*
X103651533Y-121392775D01*
X103618199Y-121459441D01*
X103551533Y-121526108D01*
X103451533Y-121559441D01*
X103284866Y-121559441D01*
X104351533Y-121559441D02*
X103951533Y-121559441D01*
X104151533Y-121559441D02*
X104151533Y-120859441D01*
X104084866Y-120959441D01*
X104018199Y-121026108D01*
X103951533Y-121059441D01*
X107494866Y-119654441D02*
X107261533Y-119321108D01*
X107094866Y-119654441D02*
X107094866Y-118954441D01*
X107361533Y-118954441D01*
X107428199Y-118987775D01*
X107461533Y-119021108D01*
X107494866Y-119087775D01*
X107494866Y-119187775D01*
X107461533Y-119254441D01*
X107428199Y-119287775D01*
X107361533Y-119321108D01*
X107094866Y-119321108D01*
X108094866Y-119187775D02*
X108094866Y-119654441D01*
X107928199Y-118921108D02*
X107761533Y-119421108D01*
X108194866Y-119421108D01*
X99874866Y-119654441D02*
X99641533Y-119321108D01*
X99474866Y-119654441D02*
X99474866Y-118954441D01*
X99741533Y-118954441D01*
X99808199Y-118987775D01*
X99841533Y-119021108D01*
X99874866Y-119087775D01*
X99874866Y-119187775D01*
X99841533Y-119254441D01*
X99808199Y-119287775D01*
X99741533Y-119321108D01*
X99474866Y-119321108D01*
X100508199Y-118954441D02*
X100174866Y-118954441D01*
X100141533Y-119287775D01*
X100174866Y-119254441D01*
X100241533Y-119221108D01*
X100408199Y-119221108D01*
X100474866Y-119254441D01*
X100508199Y-119287775D01*
X100541533Y-119354441D01*
X100541533Y-119521108D01*
X100508199Y-119587775D01*
X100474866Y-119621108D01*
X100408199Y-119654441D01*
X100241533Y-119654441D01*
X100174866Y-119621108D01*
X100141533Y-119587775D01*
X111242999Y-111462941D02*
X111009666Y-111129608D01*
X110842999Y-111462941D02*
X110842999Y-110762941D01*
X111109666Y-110762941D01*
X111176333Y-110796275D01*
X111209666Y-110829608D01*
X111242999Y-110896275D01*
X111242999Y-110996275D01*
X111209666Y-111062941D01*
X111176333Y-111096275D01*
X111109666Y-111129608D01*
X110842999Y-111129608D01*
X111509666Y-111262941D02*
X111842999Y-111262941D01*
X111442999Y-111462941D02*
X111676333Y-110762941D01*
X111909666Y-111462941D01*
X112076333Y-110762941D02*
X112242999Y-111462941D01*
X112376333Y-110962941D01*
X112509666Y-111462941D01*
X112676333Y-110762941D01*
X95227533Y-110762941D02*
X95294199Y-110762941D01*
X95360866Y-110796275D01*
X95394199Y-110829608D01*
X95427533Y-110896275D01*
X95460866Y-111029608D01*
X95460866Y-111196275D01*
X95427533Y-111329608D01*
X95394199Y-111396275D01*
X95360866Y-111429608D01*
X95294199Y-111462941D01*
X95227533Y-111462941D01*
X95160866Y-111429608D01*
X95127533Y-111396275D01*
X95094199Y-111329608D01*
X95060866Y-111196275D01*
X95060866Y-111029608D01*
X95094199Y-110896275D01*
X95127533Y-110829608D01*
X95160866Y-110796275D01*
X95227533Y-110762941D01*
X95894199Y-110762941D02*
X95960866Y-110762941D01*
X96027533Y-110796275D01*
X96060866Y-110829608D01*
X96094199Y-110896275D01*
X96127533Y-111029608D01*
X96127533Y-111196275D01*
X96094199Y-111329608D01*
X96060866Y-111396275D01*
X96027533Y-111429608D01*
X95960866Y-111462941D01*
X95894199Y-111462941D01*
X95827533Y-111429608D01*
X95794199Y-111396275D01*
X95760866Y-111329608D01*
X95727533Y-111196275D01*
X95727533Y-111029608D01*
X95760866Y-110896275D01*
X95794199Y-110829608D01*
X95827533Y-110796275D01*
X95894199Y-110762941D01*
X96727533Y-110762941D02*
X96594199Y-110762941D01*
X96527533Y-110796275D01*
X96494199Y-110829608D01*
X96427533Y-110929608D01*
X96394199Y-111062941D01*
X96394199Y-111329608D01*
X96427533Y-111396275D01*
X96460866Y-111429608D01*
X96527533Y-111462941D01*
X96660866Y-111462941D01*
X96727533Y-111429608D01*
X96760866Y-111396275D01*
X96794199Y-111329608D01*
X96794199Y-111162941D01*
X96760866Y-111096275D01*
X96727533Y-111062941D01*
X96660866Y-111029608D01*
X96527533Y-111029608D01*
X96460866Y-111062941D01*
X96427533Y-111096275D01*
X96394199Y-111162941D01*
X95227533Y-133622941D02*
X95294199Y-133622941D01*
X95360866Y-133656275D01*
X95394199Y-133689608D01*
X95427533Y-133756275D01*
X95460866Y-133889608D01*
X95460866Y-134056275D01*
X95427533Y-134189608D01*
X95394199Y-134256275D01*
X95360866Y-134289608D01*
X95294199Y-134322941D01*
X95227533Y-134322941D01*
X95160866Y-134289608D01*
X95127533Y-134256275D01*
X95094199Y-134189608D01*
X95060866Y-134056275D01*
X95060866Y-133889608D01*
X95094199Y-133756275D01*
X95127533Y-133689608D01*
X95160866Y-133656275D01*
X95227533Y-133622941D01*
X95894199Y-133622941D02*
X95960866Y-133622941D01*
X96027533Y-133656275D01*
X96060866Y-133689608D01*
X96094199Y-133756275D01*
X96127533Y-133889608D01*
X96127533Y-134056275D01*
X96094199Y-134189608D01*
X96060866Y-134256275D01*
X96027533Y-134289608D01*
X95960866Y-134322941D01*
X95894199Y-134322941D01*
X95827533Y-134289608D01*
X95794199Y-134256275D01*
X95760866Y-134189608D01*
X95727533Y-134056275D01*
X95727533Y-133889608D01*
X95760866Y-133756275D01*
X95794199Y-133689608D01*
X95827533Y-133656275D01*
X95894199Y-133622941D01*
X96460866Y-134322941D02*
X96594199Y-134322941D01*
X96660866Y-134289608D01*
X96694199Y-134256275D01*
X96760866Y-134156275D01*
X96794199Y-134022941D01*
X96794199Y-133756275D01*
X96760866Y-133689608D01*
X96727533Y-133656275D01*
X96660866Y-133622941D01*
X96527533Y-133622941D01*
X96460866Y-133656275D01*
X96427533Y-133689608D01*
X96394199Y-133756275D01*
X96394199Y-133922941D01*
X96427533Y-133989608D01*
X96460866Y-134022941D01*
X96527533Y-134056275D01*
X96660866Y-134056275D01*
X96727533Y-134022941D01*
X96760866Y-133989608D01*
X96794199Y-133922941D01*
X95227533Y-131082941D02*
X95294199Y-131082941D01*
X95360866Y-131116275D01*
X95394199Y-131149608D01*
X95427533Y-131216275D01*
X95460866Y-131349608D01*
X95460866Y-131516275D01*
X95427533Y-131649608D01*
X95394199Y-131716275D01*
X95360866Y-131749608D01*
X95294199Y-131782941D01*
X95227533Y-131782941D01*
X95160866Y-131749608D01*
X95127533Y-131716275D01*
X95094199Y-131649608D01*
X95060866Y-131516275D01*
X95060866Y-131349608D01*
X95094199Y-131216275D01*
X95127533Y-131149608D01*
X95160866Y-131116275D01*
X95227533Y-131082941D01*
X95727533Y-131149608D02*
X95760866Y-131116275D01*
X95827533Y-131082941D01*
X95994199Y-131082941D01*
X96060866Y-131116275D01*
X96094199Y-131149608D01*
X96127533Y-131216275D01*
X96127533Y-131282941D01*
X96094199Y-131382941D01*
X95694199Y-131782941D01*
X96127533Y-131782941D01*
X96727533Y-131316275D02*
X96727533Y-131782941D01*
X96560866Y-131049608D02*
X96394199Y-131549608D01*
X96827533Y-131549608D01*
X95227533Y-113302941D02*
X95294199Y-113302941D01*
X95360866Y-113336275D01*
X95394199Y-113369608D01*
X95427533Y-113436275D01*
X95460866Y-113569608D01*
X95460866Y-113736275D01*
X95427533Y-113869608D01*
X95394199Y-113936275D01*
X95360866Y-113969608D01*
X95294199Y-114002941D01*
X95227533Y-114002941D01*
X95160866Y-113969608D01*
X95127533Y-113936275D01*
X95094199Y-113869608D01*
X95060866Y-113736275D01*
X95060866Y-113569608D01*
X95094199Y-113436275D01*
X95127533Y-113369608D01*
X95160866Y-113336275D01*
X95227533Y-113302941D01*
X95894199Y-113302941D02*
X95960866Y-113302941D01*
X96027533Y-113336275D01*
X96060866Y-113369608D01*
X96094199Y-113436275D01*
X96127533Y-113569608D01*
X96127533Y-113736275D01*
X96094199Y-113869608D01*
X96060866Y-113936275D01*
X96027533Y-113969608D01*
X95960866Y-114002941D01*
X95894199Y-114002941D01*
X95827533Y-113969608D01*
X95794199Y-113936275D01*
X95760866Y-113869608D01*
X95727533Y-113736275D01*
X95727533Y-113569608D01*
X95760866Y-113436275D01*
X95794199Y-113369608D01*
X95827533Y-113336275D01*
X95894199Y-113302941D01*
X96527533Y-113602941D02*
X96460866Y-113569608D01*
X96427533Y-113536275D01*
X96394199Y-113469608D01*
X96394199Y-113436275D01*
X96427533Y-113369608D01*
X96460866Y-113336275D01*
X96527533Y-113302941D01*
X96660866Y-113302941D01*
X96727533Y-113336275D01*
X96760866Y-113369608D01*
X96794199Y-113436275D01*
X96794199Y-113469608D01*
X96760866Y-113536275D01*
X96727533Y-113569608D01*
X96660866Y-113602941D01*
X96527533Y-113602941D01*
X96460866Y-113636275D01*
X96427533Y-113669608D01*
X96394199Y-113736275D01*
X96394199Y-113869608D01*
X96427533Y-113936275D01*
X96460866Y-113969608D01*
X96527533Y-114002941D01*
X96660866Y-114002941D01*
X96727533Y-113969608D01*
X96760866Y-113936275D01*
X96794199Y-113869608D01*
X96794199Y-113736275D01*
X96760866Y-113669608D01*
X96727533Y-113636275D01*
X96660866Y-113602941D01*
X95394199Y-115876275D02*
X95327533Y-115842941D01*
X95227533Y-115842941D01*
X95127533Y-115876275D01*
X95060866Y-115942941D01*
X95027533Y-116009608D01*
X94994199Y-116142941D01*
X94994199Y-116242941D01*
X95027533Y-116376275D01*
X95060866Y-116442941D01*
X95127533Y-116509608D01*
X95227533Y-116542941D01*
X95294199Y-116542941D01*
X95394199Y-116509608D01*
X95427533Y-116476275D01*
X95427533Y-116242941D01*
X95294199Y-116242941D01*
X95727533Y-116542941D02*
X95727533Y-115842941D01*
X96127533Y-116542941D01*
X96127533Y-115842941D01*
X96460866Y-116542941D02*
X96460866Y-115842941D01*
X96627533Y-115842941D01*
X96727533Y-115876275D01*
X96794199Y-115942941D01*
X96827533Y-116009608D01*
X96860866Y-116142941D01*
X96860866Y-116242941D01*
X96827533Y-116376275D01*
X96794199Y-116442941D01*
X96727533Y-116509608D01*
X96627533Y-116542941D01*
X96460866Y-116542941D01*
X95227533Y-120922941D02*
X95294199Y-120922941D01*
X95360866Y-120956275D01*
X95394199Y-120989608D01*
X95427533Y-121056275D01*
X95460866Y-121189608D01*
X95460866Y-121356275D01*
X95427533Y-121489608D01*
X95394199Y-121556275D01*
X95360866Y-121589608D01*
X95294199Y-121622941D01*
X95227533Y-121622941D01*
X95160866Y-121589608D01*
X95127533Y-121556275D01*
X95094199Y-121489608D01*
X95060866Y-121356275D01*
X95060866Y-121189608D01*
X95094199Y-121056275D01*
X95127533Y-120989608D01*
X95160866Y-120956275D01*
X95227533Y-120922941D01*
X96127533Y-121622941D02*
X95727533Y-121622941D01*
X95927533Y-121622941D02*
X95927533Y-120922941D01*
X95860866Y-121022941D01*
X95794199Y-121089608D01*
X95727533Y-121122941D01*
X96760866Y-120922941D02*
X96427533Y-120922941D01*
X96394199Y-121256275D01*
X96427533Y-121222941D01*
X96494199Y-121189608D01*
X96660866Y-121189608D01*
X96727533Y-121222941D01*
X96760866Y-121256275D01*
X96794199Y-121322941D01*
X96794199Y-121489608D01*
X96760866Y-121556275D01*
X96727533Y-121589608D01*
X96660866Y-121622941D01*
X96494199Y-121622941D01*
X96427533Y-121589608D01*
X96394199Y-121556275D01*
X95227533Y-128542941D02*
X95294199Y-128542941D01*
X95360866Y-128576275D01*
X95394199Y-128609608D01*
X95427533Y-128676275D01*
X95460866Y-128809608D01*
X95460866Y-128976275D01*
X95427533Y-129109608D01*
X95394199Y-129176275D01*
X95360866Y-129209608D01*
X95294199Y-129242941D01*
X95227533Y-129242941D01*
X95160866Y-129209608D01*
X95127533Y-129176275D01*
X95094199Y-129109608D01*
X95060866Y-128976275D01*
X95060866Y-128809608D01*
X95094199Y-128676275D01*
X95127533Y-128609608D01*
X95160866Y-128576275D01*
X95227533Y-128542941D01*
X96127533Y-129242941D02*
X95727533Y-129242941D01*
X95927533Y-129242941D02*
X95927533Y-128542941D01*
X95860866Y-128642941D01*
X95794199Y-128709608D01*
X95727533Y-128742941D01*
X96360866Y-128542941D02*
X96794199Y-128542941D01*
X96560866Y-128809608D01*
X96660866Y-128809608D01*
X96727533Y-128842941D01*
X96760866Y-128876275D01*
X96794199Y-128942941D01*
X96794199Y-129109608D01*
X96760866Y-129176275D01*
X96727533Y-129209608D01*
X96660866Y-129242941D01*
X96460866Y-129242941D01*
X96394199Y-129209608D01*
X96360866Y-129176275D01*
X95227533Y-123462941D02*
X95294199Y-123462941D01*
X95360866Y-123496275D01*
X95394199Y-123529608D01*
X95427533Y-123596275D01*
X95460866Y-123729608D01*
X95460866Y-123896275D01*
X95427533Y-124029608D01*
X95394199Y-124096275D01*
X95360866Y-124129608D01*
X95294199Y-124162941D01*
X95227533Y-124162941D01*
X95160866Y-124129608D01*
X95127533Y-124096275D01*
X95094199Y-124029608D01*
X95060866Y-123896275D01*
X95060866Y-123729608D01*
X95094199Y-123596275D01*
X95127533Y-123529608D01*
X95160866Y-123496275D01*
X95227533Y-123462941D01*
X96127533Y-124162941D02*
X95727533Y-124162941D01*
X95927533Y-124162941D02*
X95927533Y-123462941D01*
X95860866Y-123562941D01*
X95794199Y-123629608D01*
X95727533Y-123662941D01*
X96360866Y-123462941D02*
X96827533Y-123462941D01*
X96527533Y-124162941D01*
X95460866Y-139402941D02*
X95060866Y-139402941D01*
X95260866Y-139402941D02*
X95260866Y-138702941D01*
X95194199Y-138802941D01*
X95127533Y-138869608D01*
X95060866Y-138902941D01*
X95894199Y-138702941D02*
X95960866Y-138702941D01*
X96027533Y-138736275D01*
X96060866Y-138769608D01*
X96094199Y-138836275D01*
X96127533Y-138969608D01*
X96127533Y-139136275D01*
X96094199Y-139269608D01*
X96060866Y-139336275D01*
X96027533Y-139369608D01*
X95960866Y-139402941D01*
X95894199Y-139402941D01*
X95827533Y-139369608D01*
X95794199Y-139336275D01*
X95760866Y-139269608D01*
X95727533Y-139136275D01*
X95727533Y-138969608D01*
X95760866Y-138836275D01*
X95794199Y-138769608D01*
X95827533Y-138736275D01*
X95894199Y-138702941D01*
X96727533Y-138702941D02*
X96594199Y-138702941D01*
X96527533Y-138736275D01*
X96494199Y-138769608D01*
X96427533Y-138869608D01*
X96394199Y-139002941D01*
X96394199Y-139269608D01*
X96427533Y-139336275D01*
X96460866Y-139369608D01*
X96527533Y-139402941D01*
X96660866Y-139402941D01*
X96727533Y-139369608D01*
X96760866Y-139336275D01*
X96794199Y-139269608D01*
X96794199Y-139102941D01*
X96760866Y-139036275D01*
X96727533Y-139002941D01*
X96660866Y-138969608D01*
X96527533Y-138969608D01*
X96460866Y-139002941D01*
X96427533Y-139036275D01*
X96394199Y-139102941D01*
X95227533Y-126002941D02*
X95294199Y-126002941D01*
X95360866Y-126036275D01*
X95394199Y-126069608D01*
X95427533Y-126136275D01*
X95460866Y-126269608D01*
X95460866Y-126436275D01*
X95427533Y-126569608D01*
X95394199Y-126636275D01*
X95360866Y-126669608D01*
X95294199Y-126702941D01*
X95227533Y-126702941D01*
X95160866Y-126669608D01*
X95127533Y-126636275D01*
X95094199Y-126569608D01*
X95060866Y-126436275D01*
X95060866Y-126269608D01*
X95094199Y-126136275D01*
X95127533Y-126069608D01*
X95160866Y-126036275D01*
X95227533Y-126002941D01*
X95727533Y-126069608D02*
X95760866Y-126036275D01*
X95827533Y-126002941D01*
X95994199Y-126002941D01*
X96060866Y-126036275D01*
X96094199Y-126069608D01*
X96127533Y-126136275D01*
X96127533Y-126202941D01*
X96094199Y-126302941D01*
X95694199Y-126702941D01*
X96127533Y-126702941D01*
X96560866Y-126002941D02*
X96627533Y-126002941D01*
X96694199Y-126036275D01*
X96727533Y-126069608D01*
X96760866Y-126136275D01*
X96794199Y-126269608D01*
X96794199Y-126436275D01*
X96760866Y-126569608D01*
X96727533Y-126636275D01*
X96694199Y-126669608D01*
X96627533Y-126702941D01*
X96560866Y-126702941D01*
X96494199Y-126669608D01*
X96460866Y-126636275D01*
X96427533Y-126569608D01*
X96394199Y-126436275D01*
X96394199Y-126269608D01*
X96427533Y-126136275D01*
X96460866Y-126069608D01*
X96494199Y-126036275D01*
X96560866Y-126002941D01*
X95394199Y-118416275D02*
X95327533Y-118382941D01*
X95227533Y-118382941D01*
X95127533Y-118416275D01*
X95060866Y-118482941D01*
X95027533Y-118549608D01*
X94994199Y-118682941D01*
X94994199Y-118782941D01*
X95027533Y-118916275D01*
X95060866Y-118982941D01*
X95127533Y-119049608D01*
X95227533Y-119082941D01*
X95294199Y-119082941D01*
X95394199Y-119049608D01*
X95427533Y-119016275D01*
X95427533Y-118782941D01*
X95294199Y-118782941D01*
X95727533Y-119082941D02*
X95727533Y-118382941D01*
X96127533Y-119082941D01*
X96127533Y-118382941D01*
X96460866Y-119082941D02*
X96460866Y-118382941D01*
X96627533Y-118382941D01*
X96727533Y-118416275D01*
X96794199Y-118482941D01*
X96827533Y-118549608D01*
X96860866Y-118682941D01*
X96860866Y-118782941D01*
X96827533Y-118916275D01*
X96794199Y-118982941D01*
X96727533Y-119049608D01*
X96627533Y-119082941D01*
X96460866Y-119082941D01*
X95227533Y-136162941D02*
X95294199Y-136162941D01*
X95360866Y-136196275D01*
X95394199Y-136229608D01*
X95427533Y-136296275D01*
X95460866Y-136429608D01*
X95460866Y-136596275D01*
X95427533Y-136729608D01*
X95394199Y-136796275D01*
X95360866Y-136829608D01*
X95294199Y-136862941D01*
X95227533Y-136862941D01*
X95160866Y-136829608D01*
X95127533Y-136796275D01*
X95094199Y-136729608D01*
X95060866Y-136596275D01*
X95060866Y-136429608D01*
X95094199Y-136296275D01*
X95127533Y-136229608D01*
X95160866Y-136196275D01*
X95227533Y-136162941D01*
X96127533Y-136862941D02*
X95727533Y-136862941D01*
X95927533Y-136862941D02*
X95927533Y-136162941D01*
X95860866Y-136262941D01*
X95794199Y-136329608D01*
X95727533Y-136362941D01*
X96560866Y-136162941D02*
X96627533Y-136162941D01*
X96694199Y-136196275D01*
X96727533Y-136229608D01*
X96760866Y-136296275D01*
X96794199Y-136429608D01*
X96794199Y-136596275D01*
X96760866Y-136729608D01*
X96727533Y-136796275D01*
X96694199Y-136829608D01*
X96627533Y-136862941D01*
X96560866Y-136862941D01*
X96494199Y-136829608D01*
X96460866Y-136796275D01*
X96427533Y-136729608D01*
X96394199Y-136596275D01*
X96394199Y-136429608D01*
X96427533Y-136296275D01*
X96460866Y-136229608D01*
X96494199Y-136196275D01*
X96560866Y-136162941D01*
X111228699Y-116542941D02*
X110995366Y-116209608D01*
X110828699Y-116542941D02*
X110828699Y-115842941D01*
X111095366Y-115842941D01*
X111162033Y-115876275D01*
X111195366Y-115909608D01*
X111228699Y-115976275D01*
X111228699Y-116076275D01*
X111195366Y-116142941D01*
X111162033Y-116176275D01*
X111095366Y-116209608D01*
X110828699Y-116209608D01*
X111495366Y-116509608D02*
X111595366Y-116542941D01*
X111762033Y-116542941D01*
X111828699Y-116509608D01*
X111862033Y-116476275D01*
X111895366Y-116409608D01*
X111895366Y-116342941D01*
X111862033Y-116276275D01*
X111828699Y-116242941D01*
X111762033Y-116209608D01*
X111628699Y-116176275D01*
X111562033Y-116142941D01*
X111528699Y-116109608D01*
X111495366Y-116042941D01*
X111495366Y-115976275D01*
X111528699Y-115909608D01*
X111562033Y-115876275D01*
X111628699Y-115842941D01*
X111795366Y-115842941D01*
X111895366Y-115876275D01*
X112095366Y-115842941D02*
X112495366Y-115842941D01*
X112295366Y-116542941D02*
X112295366Y-115842941D01*
X111142199Y-113336275D02*
X111075533Y-113302941D01*
X110975533Y-113302941D01*
X110875533Y-113336275D01*
X110808866Y-113402941D01*
X110775533Y-113469608D01*
X110742199Y-113602941D01*
X110742199Y-113702941D01*
X110775533Y-113836275D01*
X110808866Y-113902941D01*
X110875533Y-113969608D01*
X110975533Y-114002941D01*
X111042199Y-114002941D01*
X111142199Y-113969608D01*
X111175533Y-113936275D01*
X111175533Y-113702941D01*
X111042199Y-113702941D01*
X111475533Y-114002941D02*
X111475533Y-113302941D01*
X111875533Y-114002941D01*
X111875533Y-113302941D01*
X112208866Y-114002941D02*
X112208866Y-113302941D01*
X112375533Y-113302941D01*
X112475533Y-113336275D01*
X112542199Y-113402941D01*
X112575533Y-113469608D01*
X112608866Y-113602941D01*
X112608866Y-113702941D01*
X112575533Y-113836275D01*
X112542199Y-113902941D01*
X112475533Y-113969608D01*
X112375533Y-114002941D01*
X112208866Y-114002941D01*
X110742199Y-118382941D02*
X110975533Y-119082941D01*
X111208866Y-118382941D01*
X111842199Y-119016275D02*
X111808866Y-119049608D01*
X111708866Y-119082941D01*
X111642199Y-119082941D01*
X111542199Y-119049608D01*
X111475533Y-118982941D01*
X111442199Y-118916275D01*
X111408866Y-118782941D01*
X111408866Y-118682941D01*
X111442199Y-118549608D01*
X111475533Y-118482941D01*
X111542199Y-118416275D01*
X111642199Y-118382941D01*
X111708866Y-118382941D01*
X111808866Y-118416275D01*
X111842199Y-118449608D01*
X112542199Y-119016275D02*
X112508866Y-119049608D01*
X112408866Y-119082941D01*
X112342199Y-119082941D01*
X112242199Y-119049608D01*
X112175533Y-118982941D01*
X112142199Y-118916275D01*
X112108866Y-118782941D01*
X112108866Y-118682941D01*
X112142199Y-118549608D01*
X112175533Y-118482941D01*
X112242199Y-118416275D01*
X112342199Y-118382941D01*
X112408866Y-118382941D01*
X112508866Y-118416275D01*
X112542199Y-118449608D01*
X110975533Y-120922941D02*
X111042199Y-120922941D01*
X111108866Y-120956275D01*
X111142199Y-120989608D01*
X111175533Y-121056275D01*
X111208866Y-121189608D01*
X111208866Y-121356275D01*
X111175533Y-121489608D01*
X111142199Y-121556275D01*
X111108866Y-121589608D01*
X111042199Y-121622941D01*
X110975533Y-121622941D01*
X110908866Y-121589608D01*
X110875533Y-121556275D01*
X110842199Y-121489608D01*
X110808866Y-121356275D01*
X110808866Y-121189608D01*
X110842199Y-121056275D01*
X110875533Y-120989608D01*
X110908866Y-120956275D01*
X110975533Y-120922941D01*
X111442199Y-120922941D02*
X111875533Y-120922941D01*
X111642199Y-121189608D01*
X111742199Y-121189608D01*
X111808866Y-121222941D01*
X111842199Y-121256275D01*
X111875533Y-121322941D01*
X111875533Y-121489608D01*
X111842199Y-121556275D01*
X111808866Y-121589608D01*
X111742199Y-121622941D01*
X111542199Y-121622941D01*
X111475533Y-121589608D01*
X111442199Y-121556275D01*
X112308866Y-120922941D02*
X112375533Y-120922941D01*
X112442199Y-120956275D01*
X112475533Y-120989608D01*
X112508866Y-121056275D01*
X112542199Y-121189608D01*
X112542199Y-121356275D01*
X112508866Y-121489608D01*
X112475533Y-121556275D01*
X112442199Y-121589608D01*
X112375533Y-121622941D01*
X112308866Y-121622941D01*
X112242199Y-121589608D01*
X112208866Y-121556275D01*
X112175533Y-121489608D01*
X112142199Y-121356275D01*
X112142199Y-121189608D01*
X112175533Y-121056275D01*
X112208866Y-120989608D01*
X112242199Y-120956275D01*
X112308866Y-120922941D01*
X110975533Y-123462941D02*
X111042199Y-123462941D01*
X111108866Y-123496275D01*
X111142199Y-123529608D01*
X111175533Y-123596275D01*
X111208866Y-123729608D01*
X111208866Y-123896275D01*
X111175533Y-124029608D01*
X111142199Y-124096275D01*
X111108866Y-124129608D01*
X111042199Y-124162941D01*
X110975533Y-124162941D01*
X110908866Y-124129608D01*
X110875533Y-124096275D01*
X110842199Y-124029608D01*
X110808866Y-123896275D01*
X110808866Y-123729608D01*
X110842199Y-123596275D01*
X110875533Y-123529608D01*
X110908866Y-123496275D01*
X110975533Y-123462941D01*
X111442199Y-123462941D02*
X111875533Y-123462941D01*
X111642199Y-123729608D01*
X111742199Y-123729608D01*
X111808866Y-123762941D01*
X111842199Y-123796275D01*
X111875533Y-123862941D01*
X111875533Y-124029608D01*
X111842199Y-124096275D01*
X111808866Y-124129608D01*
X111742199Y-124162941D01*
X111542199Y-124162941D01*
X111475533Y-124129608D01*
X111442199Y-124096275D01*
X112542199Y-124162941D02*
X112142199Y-124162941D01*
X112342199Y-124162941D02*
X112342199Y-123462941D01*
X112275533Y-123562941D01*
X112208866Y-123629608D01*
X112142199Y-123662941D01*
X110975533Y-126002941D02*
X111042199Y-126002941D01*
X111108866Y-126036275D01*
X111142199Y-126069608D01*
X111175533Y-126136275D01*
X111208866Y-126269608D01*
X111208866Y-126436275D01*
X111175533Y-126569608D01*
X111142199Y-126636275D01*
X111108866Y-126669608D01*
X111042199Y-126702941D01*
X110975533Y-126702941D01*
X110908866Y-126669608D01*
X110875533Y-126636275D01*
X110842199Y-126569608D01*
X110808866Y-126436275D01*
X110808866Y-126269608D01*
X110842199Y-126136275D01*
X110875533Y-126069608D01*
X110908866Y-126036275D01*
X110975533Y-126002941D01*
X111475533Y-126069608D02*
X111508866Y-126036275D01*
X111575533Y-126002941D01*
X111742199Y-126002941D01*
X111808866Y-126036275D01*
X111842199Y-126069608D01*
X111875533Y-126136275D01*
X111875533Y-126202941D01*
X111842199Y-126302941D01*
X111442199Y-126702941D01*
X111875533Y-126702941D01*
X112208866Y-126702941D02*
X112342199Y-126702941D01*
X112408866Y-126669608D01*
X112442199Y-126636275D01*
X112508866Y-126536275D01*
X112542199Y-126402941D01*
X112542199Y-126136275D01*
X112508866Y-126069608D01*
X112475533Y-126036275D01*
X112408866Y-126002941D01*
X112275533Y-126002941D01*
X112208866Y-126036275D01*
X112175533Y-126069608D01*
X112142199Y-126136275D01*
X112142199Y-126302941D01*
X112175533Y-126369608D01*
X112208866Y-126402941D01*
X112275533Y-126436275D01*
X112408866Y-126436275D01*
X112475533Y-126402941D01*
X112508866Y-126369608D01*
X112542199Y-126302941D01*
X110975533Y-128542941D02*
X111042199Y-128542941D01*
X111108866Y-128576275D01*
X111142199Y-128609608D01*
X111175533Y-128676275D01*
X111208866Y-128809608D01*
X111208866Y-128976275D01*
X111175533Y-129109608D01*
X111142199Y-129176275D01*
X111108866Y-129209608D01*
X111042199Y-129242941D01*
X110975533Y-129242941D01*
X110908866Y-129209608D01*
X110875533Y-129176275D01*
X110842199Y-129109608D01*
X110808866Y-128976275D01*
X110808866Y-128809608D01*
X110842199Y-128676275D01*
X110875533Y-128609608D01*
X110908866Y-128576275D01*
X110975533Y-128542941D01*
X111642199Y-128542941D02*
X111708866Y-128542941D01*
X111775533Y-128576275D01*
X111808866Y-128609608D01*
X111842199Y-128676275D01*
X111875533Y-128809608D01*
X111875533Y-128976275D01*
X111842199Y-129109608D01*
X111808866Y-129176275D01*
X111775533Y-129209608D01*
X111708866Y-129242941D01*
X111642199Y-129242941D01*
X111575533Y-129209608D01*
X111542199Y-129176275D01*
X111508866Y-129109608D01*
X111475533Y-128976275D01*
X111475533Y-128809608D01*
X111508866Y-128676275D01*
X111542199Y-128609608D01*
X111575533Y-128576275D01*
X111642199Y-128542941D01*
X112142199Y-128609608D02*
X112175533Y-128576275D01*
X112242199Y-128542941D01*
X112408866Y-128542941D01*
X112475533Y-128576275D01*
X112508866Y-128609608D01*
X112542199Y-128676275D01*
X112542199Y-128742941D01*
X112508866Y-128842941D01*
X112108866Y-129242941D01*
X112542199Y-129242941D01*
X111208866Y-131782941D02*
X110808866Y-131782941D01*
X111008866Y-131782941D02*
X111008866Y-131082941D01*
X110942199Y-131182941D01*
X110875533Y-131249608D01*
X110808866Y-131282941D01*
X111875533Y-131782941D02*
X111475533Y-131782941D01*
X111675533Y-131782941D02*
X111675533Y-131082941D01*
X111608866Y-131182941D01*
X111542199Y-131249608D01*
X111475533Y-131282941D01*
X112108866Y-131082941D02*
X112542199Y-131082941D01*
X112308866Y-131349608D01*
X112408866Y-131349608D01*
X112475533Y-131382941D01*
X112508866Y-131416275D01*
X112542199Y-131482941D01*
X112542199Y-131649608D01*
X112508866Y-131716275D01*
X112475533Y-131749608D01*
X112408866Y-131782941D01*
X112208866Y-131782941D01*
X112142199Y-131749608D01*
X112108866Y-131716275D01*
X110975533Y-133622941D02*
X111042199Y-133622941D01*
X111108866Y-133656275D01*
X111142199Y-133689608D01*
X111175533Y-133756275D01*
X111208866Y-133889608D01*
X111208866Y-134056275D01*
X111175533Y-134189608D01*
X111142199Y-134256275D01*
X111108866Y-134289608D01*
X111042199Y-134322941D01*
X110975533Y-134322941D01*
X110908866Y-134289608D01*
X110875533Y-134256275D01*
X110842199Y-134189608D01*
X110808866Y-134056275D01*
X110808866Y-133889608D01*
X110842199Y-133756275D01*
X110875533Y-133689608D01*
X110908866Y-133656275D01*
X110975533Y-133622941D01*
X111642199Y-133622941D02*
X111708866Y-133622941D01*
X111775533Y-133656275D01*
X111808866Y-133689608D01*
X111842199Y-133756275D01*
X111875533Y-133889608D01*
X111875533Y-134056275D01*
X111842199Y-134189608D01*
X111808866Y-134256275D01*
X111775533Y-134289608D01*
X111708866Y-134322941D01*
X111642199Y-134322941D01*
X111575533Y-134289608D01*
X111542199Y-134256275D01*
X111508866Y-134189608D01*
X111475533Y-134056275D01*
X111475533Y-133889608D01*
X111508866Y-133756275D01*
X111542199Y-133689608D01*
X111575533Y-133656275D01*
X111642199Y-133622941D01*
X112108866Y-133622941D02*
X112542199Y-133622941D01*
X112308866Y-133889608D01*
X112408866Y-133889608D01*
X112475533Y-133922941D01*
X112508866Y-133956275D01*
X112542199Y-134022941D01*
X112542199Y-134189608D01*
X112508866Y-134256275D01*
X112475533Y-134289608D01*
X112408866Y-134322941D01*
X112208866Y-134322941D01*
X112142199Y-134289608D01*
X112108866Y-134256275D01*
X110975533Y-136162941D02*
X111042199Y-136162941D01*
X111108866Y-136196275D01*
X111142199Y-136229608D01*
X111175533Y-136296275D01*
X111208866Y-136429608D01*
X111208866Y-136596275D01*
X111175533Y-136729608D01*
X111142199Y-136796275D01*
X111108866Y-136829608D01*
X111042199Y-136862941D01*
X110975533Y-136862941D01*
X110908866Y-136829608D01*
X110875533Y-136796275D01*
X110842199Y-136729608D01*
X110808866Y-136596275D01*
X110808866Y-136429608D01*
X110842199Y-136296275D01*
X110875533Y-136229608D01*
X110908866Y-136196275D01*
X110975533Y-136162941D01*
X111475533Y-136229608D02*
X111508866Y-136196275D01*
X111575533Y-136162941D01*
X111742199Y-136162941D01*
X111808866Y-136196275D01*
X111842199Y-136229608D01*
X111875533Y-136296275D01*
X111875533Y-136362941D01*
X111842199Y-136462941D01*
X111442199Y-136862941D01*
X111875533Y-136862941D01*
X112275533Y-136462941D02*
X112208866Y-136429608D01*
X112175533Y-136396275D01*
X112142199Y-136329608D01*
X112142199Y-136296275D01*
X112175533Y-136229608D01*
X112208866Y-136196275D01*
X112275533Y-136162941D01*
X112408866Y-136162941D01*
X112475533Y-136196275D01*
X112508866Y-136229608D01*
X112542199Y-136296275D01*
X112542199Y-136329608D01*
X112508866Y-136396275D01*
X112475533Y-136429608D01*
X112408866Y-136462941D01*
X112275533Y-136462941D01*
X112208866Y-136496275D01*
X112175533Y-136529608D01*
X112142199Y-136596275D01*
X112142199Y-136729608D01*
X112175533Y-136796275D01*
X112208866Y-136829608D01*
X112275533Y-136862941D01*
X112408866Y-136862941D01*
X112475533Y-136829608D01*
X112508866Y-136796275D01*
X112542199Y-136729608D01*
X112542199Y-136596275D01*
X112508866Y-136529608D01*
X112475533Y-136496275D01*
X112408866Y-136462941D01*
X111208866Y-139402941D02*
X110808866Y-139402941D01*
X111008866Y-139402941D02*
X111008866Y-138702941D01*
X110942199Y-138802941D01*
X110875533Y-138869608D01*
X110808866Y-138902941D01*
X111875533Y-139402941D02*
X111475533Y-139402941D01*
X111675533Y-139402941D02*
X111675533Y-138702941D01*
X111608866Y-138802941D01*
X111542199Y-138869608D01*
X111475533Y-138902941D01*
X112542199Y-139402941D02*
X112142199Y-139402941D01*
X112342199Y-139402941D02*
X112342199Y-138702941D01*
X112275533Y-138802941D01*
X112208866Y-138869608D01*
X112142199Y-138902941D01*
D12*
X97703199Y-109889775D02*
X97803199Y-109923108D01*
X97836533Y-109956441D01*
X97869866Y-110023108D01*
X97869866Y-110123108D01*
X97836533Y-110189775D01*
X97803199Y-110223108D01*
X97736533Y-110256441D01*
X97469866Y-110256441D01*
X97469866Y-109556441D01*
X97703199Y-109556441D01*
X97769866Y-109589775D01*
X97803199Y-109623108D01*
X97836533Y-109689775D01*
X97836533Y-109756441D01*
X97803199Y-109823108D01*
X97769866Y-109856441D01*
X97703199Y-109889775D01*
X97469866Y-109889775D01*
X98169866Y-109989775D02*
X98703199Y-109989775D01*
X109387199Y-109889775D02*
X109487199Y-109923108D01*
X109520533Y-109956441D01*
X109553866Y-110023108D01*
X109553866Y-110123108D01*
X109520533Y-110189775D01*
X109487199Y-110223108D01*
X109420533Y-110256441D01*
X109153866Y-110256441D01*
X109153866Y-109556441D01*
X109387199Y-109556441D01*
X109453866Y-109589775D01*
X109487199Y-109623108D01*
X109520533Y-109689775D01*
X109520533Y-109756441D01*
X109487199Y-109823108D01*
X109453866Y-109856441D01*
X109387199Y-109889775D01*
X109153866Y-109889775D01*
X109853866Y-109989775D02*
X110387199Y-109989775D01*
X110120533Y-110256441D02*
X110120533Y-109723108D01*
D10*
X99038166Y-121759666D02*
X98338166Y-121759666D01*
X98338166Y-121593000D01*
X98371500Y-121493000D01*
X98438166Y-121426333D01*
X98504833Y-121393000D01*
X98638166Y-121359666D01*
X98738166Y-121359666D01*
X98871500Y-121393000D01*
X98938166Y-121426333D01*
X99004833Y-121493000D01*
X99038166Y-121593000D01*
X99038166Y-121759666D01*
X98338166Y-121126333D02*
X98338166Y-120693000D01*
X98604833Y-120926333D01*
X98604833Y-120826333D01*
X98638166Y-120759666D01*
X98671500Y-120726333D01*
X98738166Y-120693000D01*
X98904833Y-120693000D01*
X98971500Y-120726333D01*
X99004833Y-120759666D01*
X99038166Y-120826333D01*
X99038166Y-121026333D01*
X99004833Y-121093000D01*
X98971500Y-121126333D01*
X109198666Y-121759666D02*
X108498666Y-121759666D01*
X108498666Y-121593000D01*
X108532000Y-121493000D01*
X108598666Y-121426333D01*
X108665333Y-121393000D01*
X108798666Y-121359666D01*
X108898666Y-121359666D01*
X109032000Y-121393000D01*
X109098666Y-121426333D01*
X109165333Y-121493000D01*
X109198666Y-121593000D01*
X109198666Y-121759666D01*
X108565333Y-121093000D02*
X108532000Y-121059666D01*
X108498666Y-120993000D01*
X108498666Y-120826333D01*
X108532000Y-120759666D01*
X108565333Y-120726333D01*
X108632000Y-120693000D01*
X108698666Y-120693000D01*
X108798666Y-120726333D01*
X109198666Y-121126333D01*
X109198666Y-120693000D01*
M02*
