G04 #@! TF.GenerationSoftware,KiCad,Pcbnew,(5.1.6)-1*
G04 #@! TF.CreationDate,2020-06-11T17:33:57+01:00*
G04 #@! TF.ProjectId,nrfmicro,6e72666d-6963-4726-9f2e-6b696361645f,rev?*
G04 #@! TF.SameCoordinates,Original*
G04 #@! TF.FileFunction,Copper,L2,Bot*
G04 #@! TF.FilePolarity,Positive*
%FSLAX46Y46*%
G04 Gerber Fmt 4.6, Leading zero omitted, Abs format (unit mm)*
G04 Created by KiCad (PCBNEW (5.1.6)-1) date 2020-06-11 17:33:57*
%MOMM*%
%LPD*%
G01*
G04 APERTURE LIST*
G04 #@! TA.AperFunction,SMDPad,CuDef*
%ADD10R,1.060000X0.650000*%
G04 #@! TD*
G04 #@! TA.AperFunction,ComponentPad*
%ADD11R,1.000000X0.650000*%
G04 #@! TD*
G04 #@! TA.AperFunction,ComponentPad*
%ADD12R,0.650000X1.000000*%
G04 #@! TD*
G04 #@! TA.AperFunction,ComponentPad*
%ADD13O,1.000000X2.100000*%
G04 #@! TD*
G04 #@! TA.AperFunction,ComponentPad*
%ADD14O,1.000000X1.600000*%
G04 #@! TD*
G04 #@! TA.AperFunction,ComponentPad*
%ADD15R,1.250000X1.250000*%
G04 #@! TD*
G04 #@! TA.AperFunction,ComponentPad*
%ADD16C,1.270000*%
G04 #@! TD*
G04 #@! TA.AperFunction,SMDPad,CuDef*
%ADD17R,1.270000X1.270000*%
G04 #@! TD*
G04 #@! TA.AperFunction,ComponentPad*
%ADD18R,1.270000X1.270000*%
G04 #@! TD*
G04 #@! TA.AperFunction,SMDPad,CuDef*
%ADD19R,1.000000X0.600000*%
G04 #@! TD*
G04 #@! TA.AperFunction,SMDPad,CuDef*
%ADD20R,1.100000X0.600000*%
G04 #@! TD*
G04 #@! TA.AperFunction,SMDPad,CuDef*
%ADD21R,0.600000X1.000000*%
G04 #@! TD*
G04 #@! TA.AperFunction,SMDPad,CuDef*
%ADD22R,0.800000X0.900000*%
G04 #@! TD*
G04 #@! TA.AperFunction,SMDPad,CuDef*
%ADD23R,0.400000X1.143000*%
G04 #@! TD*
G04 #@! TA.AperFunction,SMDPad,CuDef*
%ADD24R,0.900000X0.800000*%
G04 #@! TD*
G04 #@! TA.AperFunction,ViaPad*
%ADD25C,0.600000*%
G04 #@! TD*
G04 #@! TA.AperFunction,Conductor*
%ADD26C,0.200000*%
G04 #@! TD*
G04 APERTURE END LIST*
D10*
X104267000Y-137433000D03*
X104267000Y-135533000D03*
X102067000Y-135533000D03*
X102067000Y-136483000D03*
X102067000Y-137433000D03*
D11*
X99761000Y-128415000D03*
X99761000Y-129685000D03*
X99761000Y-130955000D03*
X99761000Y-132225000D03*
X99761000Y-133495000D03*
X99761000Y-134765000D03*
X99761000Y-136035000D03*
X99761000Y-137305000D03*
D12*
X106365000Y-125875000D03*
X107635000Y-125875000D03*
X102555000Y-125875000D03*
X105095000Y-125875000D03*
X101285000Y-125875000D03*
X100015000Y-125875000D03*
X103825000Y-125875000D03*
D13*
X108122000Y-115323000D03*
X99482000Y-115323000D03*
D14*
X108122000Y-111143000D03*
X99482000Y-111143000D03*
G04 #@! TA.AperFunction,SMDPad,CuDef*
G36*
G01*
X106598250Y-128513000D02*
X106085750Y-128513000D01*
G75*
G02*
X105867000Y-128294250I0J218750D01*
G01*
X105867000Y-127856750D01*
G75*
G02*
X106085750Y-127638000I218750J0D01*
G01*
X106598250Y-127638000D01*
G75*
G02*
X106817000Y-127856750I0J-218750D01*
G01*
X106817000Y-128294250D01*
G75*
G02*
X106598250Y-128513000I-218750J0D01*
G01*
G37*
G04 #@! TD.AperFunction*
G04 #@! TA.AperFunction,SMDPad,CuDef*
G36*
G01*
X106598250Y-130088000D02*
X106085750Y-130088000D01*
G75*
G02*
X105867000Y-129869250I0J218750D01*
G01*
X105867000Y-129431750D01*
G75*
G02*
X106085750Y-129213000I218750J0D01*
G01*
X106598250Y-129213000D01*
G75*
G02*
X106817000Y-129431750I0J-218750D01*
G01*
X106817000Y-129869250D01*
G75*
G02*
X106598250Y-130088000I-218750J0D01*
G01*
G37*
G04 #@! TD.AperFunction*
G04 #@! TA.AperFunction,SMDPad,CuDef*
G36*
G01*
X106085750Y-133023000D02*
X106598250Y-133023000D01*
G75*
G02*
X106817000Y-133241750I0J-218750D01*
G01*
X106817000Y-133679250D01*
G75*
G02*
X106598250Y-133898000I-218750J0D01*
G01*
X106085750Y-133898000D01*
G75*
G02*
X105867000Y-133679250I0J218750D01*
G01*
X105867000Y-133241750D01*
G75*
G02*
X106085750Y-133023000I218750J0D01*
G01*
G37*
G04 #@! TD.AperFunction*
G04 #@! TA.AperFunction,SMDPad,CuDef*
G36*
G01*
X106085750Y-131448000D02*
X106598250Y-131448000D01*
G75*
G02*
X106817000Y-131666750I0J-218750D01*
G01*
X106817000Y-132104250D01*
G75*
G02*
X106598250Y-132323000I-218750J0D01*
G01*
X106085750Y-132323000D01*
G75*
G02*
X105867000Y-132104250I0J218750D01*
G01*
X105867000Y-131666750D01*
G75*
G02*
X106085750Y-131448000I218750J0D01*
G01*
G37*
G04 #@! TD.AperFunction*
G04 #@! TA.AperFunction,SMDPad,CuDef*
G36*
G01*
X106085750Y-136833000D02*
X106598250Y-136833000D01*
G75*
G02*
X106817000Y-137051750I0J-218750D01*
G01*
X106817000Y-137489250D01*
G75*
G02*
X106598250Y-137708000I-218750J0D01*
G01*
X106085750Y-137708000D01*
G75*
G02*
X105867000Y-137489250I0J218750D01*
G01*
X105867000Y-137051750D01*
G75*
G02*
X106085750Y-136833000I218750J0D01*
G01*
G37*
G04 #@! TD.AperFunction*
G04 #@! TA.AperFunction,SMDPad,CuDef*
G36*
G01*
X106085750Y-135258000D02*
X106598250Y-135258000D01*
G75*
G02*
X106817000Y-135476750I0J-218750D01*
G01*
X106817000Y-135914250D01*
G75*
G02*
X106598250Y-136133000I-218750J0D01*
G01*
X106085750Y-136133000D01*
G75*
G02*
X105867000Y-135914250I0J218750D01*
G01*
X105867000Y-135476750D01*
G75*
G02*
X106085750Y-135258000I218750J0D01*
G01*
G37*
G04 #@! TD.AperFunction*
G04 #@! TA.AperFunction,SMDPad,CuDef*
G36*
G01*
X100277000Y-117811750D02*
X100277000Y-118324250D01*
G75*
G02*
X100058250Y-118543000I-218750J0D01*
G01*
X99620750Y-118543000D01*
G75*
G02*
X99402000Y-118324250I0J218750D01*
G01*
X99402000Y-117811750D01*
G75*
G02*
X99620750Y-117593000I218750J0D01*
G01*
X100058250Y-117593000D01*
G75*
G02*
X100277000Y-117811750I0J-218750D01*
G01*
G37*
G04 #@! TD.AperFunction*
G04 #@! TA.AperFunction,SMDPad,CuDef*
G36*
G01*
X101852000Y-117811750D02*
X101852000Y-118324250D01*
G75*
G02*
X101633250Y-118543000I-218750J0D01*
G01*
X101195750Y-118543000D01*
G75*
G02*
X100977000Y-118324250I0J218750D01*
G01*
X100977000Y-117811750D01*
G75*
G02*
X101195750Y-117593000I218750J0D01*
G01*
X101633250Y-117593000D01*
G75*
G02*
X101852000Y-117811750I0J-218750D01*
G01*
G37*
G04 #@! TD.AperFunction*
G04 #@! TA.AperFunction,SMDPad,CuDef*
G36*
G01*
X107327000Y-118324250D02*
X107327000Y-117811750D01*
G75*
G02*
X107545750Y-117593000I218750J0D01*
G01*
X107983250Y-117593000D01*
G75*
G02*
X108202000Y-117811750I0J-218750D01*
G01*
X108202000Y-118324250D01*
G75*
G02*
X107983250Y-118543000I-218750J0D01*
G01*
X107545750Y-118543000D01*
G75*
G02*
X107327000Y-118324250I0J218750D01*
G01*
G37*
G04 #@! TD.AperFunction*
G04 #@! TA.AperFunction,SMDPad,CuDef*
G36*
G01*
X105752000Y-118324250D02*
X105752000Y-117811750D01*
G75*
G02*
X105970750Y-117593000I218750J0D01*
G01*
X106408250Y-117593000D01*
G75*
G02*
X106627000Y-117811750I0J-218750D01*
G01*
X106627000Y-118324250D01*
G75*
G02*
X106408250Y-118543000I-218750J0D01*
G01*
X105970750Y-118543000D01*
G75*
G02*
X105752000Y-118324250I0J218750D01*
G01*
G37*
G04 #@! TD.AperFunction*
G04 #@! TA.AperFunction,SMDPad,CuDef*
G36*
G01*
X99735250Y-121593000D02*
X100247750Y-121593000D01*
G75*
G02*
X100466500Y-121811750I0J-218750D01*
G01*
X100466500Y-122249250D01*
G75*
G02*
X100247750Y-122468000I-218750J0D01*
G01*
X99735250Y-122468000D01*
G75*
G02*
X99516500Y-122249250I0J218750D01*
G01*
X99516500Y-121811750D01*
G75*
G02*
X99735250Y-121593000I218750J0D01*
G01*
G37*
G04 #@! TD.AperFunction*
G04 #@! TA.AperFunction,SMDPad,CuDef*
G36*
G01*
X99735250Y-120018000D02*
X100247750Y-120018000D01*
G75*
G02*
X100466500Y-120236750I0J-218750D01*
G01*
X100466500Y-120674250D01*
G75*
G02*
X100247750Y-120893000I-218750J0D01*
G01*
X99735250Y-120893000D01*
G75*
G02*
X99516500Y-120674250I0J218750D01*
G01*
X99516500Y-120236750D01*
G75*
G02*
X99735250Y-120018000I218750J0D01*
G01*
G37*
G04 #@! TD.AperFunction*
G04 #@! TA.AperFunction,SMDPad,CuDef*
G36*
G01*
X107868250Y-120893000D02*
X107355750Y-120893000D01*
G75*
G02*
X107137000Y-120674250I0J218750D01*
G01*
X107137000Y-120236750D01*
G75*
G02*
X107355750Y-120018000I218750J0D01*
G01*
X107868250Y-120018000D01*
G75*
G02*
X108087000Y-120236750I0J-218750D01*
G01*
X108087000Y-120674250D01*
G75*
G02*
X107868250Y-120893000I-218750J0D01*
G01*
G37*
G04 #@! TD.AperFunction*
G04 #@! TA.AperFunction,SMDPad,CuDef*
G36*
G01*
X107868250Y-122468000D02*
X107355750Y-122468000D01*
G75*
G02*
X107137000Y-122249250I0J218750D01*
G01*
X107137000Y-121811750D01*
G75*
G02*
X107355750Y-121593000I218750J0D01*
G01*
X107868250Y-121593000D01*
G75*
G02*
X108087000Y-121811750I0J-218750D01*
G01*
X108087000Y-122249250D01*
G75*
G02*
X107868250Y-122468000I-218750J0D01*
G01*
G37*
G04 #@! TD.AperFunction*
G04 #@! TA.AperFunction,SMDPad,CuDef*
G36*
G01*
X107990750Y-129213000D02*
X108503250Y-129213000D01*
G75*
G02*
X108722000Y-129431750I0J-218750D01*
G01*
X108722000Y-129869250D01*
G75*
G02*
X108503250Y-130088000I-218750J0D01*
G01*
X107990750Y-130088000D01*
G75*
G02*
X107772000Y-129869250I0J218750D01*
G01*
X107772000Y-129431750D01*
G75*
G02*
X107990750Y-129213000I218750J0D01*
G01*
G37*
G04 #@! TD.AperFunction*
G04 #@! TA.AperFunction,SMDPad,CuDef*
G36*
G01*
X107990750Y-127638000D02*
X108503250Y-127638000D01*
G75*
G02*
X108722000Y-127856750I0J-218750D01*
G01*
X108722000Y-128294250D01*
G75*
G02*
X108503250Y-128513000I-218750J0D01*
G01*
X107990750Y-128513000D01*
G75*
G02*
X107772000Y-128294250I0J218750D01*
G01*
X107772000Y-127856750D01*
G75*
G02*
X107990750Y-127638000I218750J0D01*
G01*
G37*
G04 #@! TD.AperFunction*
G04 #@! TA.AperFunction,SMDPad,CuDef*
G36*
G01*
X107990750Y-133023000D02*
X108503250Y-133023000D01*
G75*
G02*
X108722000Y-133241750I0J-218750D01*
G01*
X108722000Y-133679250D01*
G75*
G02*
X108503250Y-133898000I-218750J0D01*
G01*
X107990750Y-133898000D01*
G75*
G02*
X107772000Y-133679250I0J218750D01*
G01*
X107772000Y-133241750D01*
G75*
G02*
X107990750Y-133023000I218750J0D01*
G01*
G37*
G04 #@! TD.AperFunction*
G04 #@! TA.AperFunction,SMDPad,CuDef*
G36*
G01*
X107990750Y-131448000D02*
X108503250Y-131448000D01*
G75*
G02*
X108722000Y-131666750I0J-218750D01*
G01*
X108722000Y-132104250D01*
G75*
G02*
X108503250Y-132323000I-218750J0D01*
G01*
X107990750Y-132323000D01*
G75*
G02*
X107772000Y-132104250I0J218750D01*
G01*
X107772000Y-131666750D01*
G75*
G02*
X107990750Y-131448000I218750J0D01*
G01*
G37*
G04 #@! TD.AperFunction*
G04 #@! TA.AperFunction,SMDPad,CuDef*
G36*
G01*
X107990750Y-136833000D02*
X108503250Y-136833000D01*
G75*
G02*
X108722000Y-137051750I0J-218750D01*
G01*
X108722000Y-137489250D01*
G75*
G02*
X108503250Y-137708000I-218750J0D01*
G01*
X107990750Y-137708000D01*
G75*
G02*
X107772000Y-137489250I0J218750D01*
G01*
X107772000Y-137051750D01*
G75*
G02*
X107990750Y-136833000I218750J0D01*
G01*
G37*
G04 #@! TD.AperFunction*
G04 #@! TA.AperFunction,SMDPad,CuDef*
G36*
G01*
X107990750Y-135258000D02*
X108503250Y-135258000D01*
G75*
G02*
X108722000Y-135476750I0J-218750D01*
G01*
X108722000Y-135914250D01*
G75*
G02*
X108503250Y-136133000I-218750J0D01*
G01*
X107990750Y-136133000D01*
G75*
G02*
X107772000Y-135914250I0J218750D01*
G01*
X107772000Y-135476750D01*
G75*
G02*
X107990750Y-135258000I218750J0D01*
G01*
G37*
G04 #@! TD.AperFunction*
D15*
X111422000Y-112353000D03*
D16*
X111422000Y-114893000D03*
X111422000Y-117433000D03*
X111422000Y-119973000D03*
X111422000Y-122513000D03*
X111422000Y-125053000D03*
X111422000Y-127593000D03*
X111422000Y-130133000D03*
X111422000Y-132673000D03*
X111422000Y-135213000D03*
X111422000Y-137753000D03*
X111422000Y-140293000D03*
X96182000Y-140293000D03*
X96182000Y-137753000D03*
X96182000Y-135213000D03*
X96182000Y-132673000D03*
X96182000Y-130133000D03*
X96182000Y-127593000D03*
X96182000Y-125053000D03*
X96182000Y-122513000D03*
X96182000Y-119973000D03*
X96182000Y-117433000D03*
X96182000Y-114893000D03*
X96182000Y-112353000D03*
D17*
X98086533Y-134958775D03*
X98086533Y-137498775D03*
D16*
X111421533Y-109812775D03*
D18*
X96181533Y-109812775D03*
D19*
X107402000Y-111671000D03*
D20*
X107402000Y-109385000D03*
X100202000Y-111671000D03*
D21*
X104502000Y-112378000D03*
X106002000Y-112378000D03*
X101602000Y-112378000D03*
D19*
X100202000Y-109385000D03*
D22*
X103802000Y-118973000D03*
X102852000Y-120973000D03*
X104752000Y-120973000D03*
D23*
X97261000Y-117433000D03*
X97896000Y-117433000D03*
X110342500Y-119973000D03*
X109707500Y-119973000D03*
X97261000Y-112353000D03*
X97896000Y-112353000D03*
X97261000Y-114893000D03*
X97896000Y-114893000D03*
X110342500Y-114893000D03*
X109707500Y-114893000D03*
X110342500Y-117433000D03*
X109707500Y-117433000D03*
X97261000Y-119973000D03*
X97896000Y-119973000D03*
X110342500Y-112353000D03*
X109707500Y-112353000D03*
D24*
X104167000Y-127913000D03*
X104167000Y-129813000D03*
X102167000Y-128863000D03*
D10*
X102067000Y-133623000D03*
X102067000Y-132673000D03*
X102067000Y-131723000D03*
X104267000Y-131723000D03*
X104267000Y-133623000D03*
D25*
X106197500Y-119102400D03*
X108458900Y-134401900D03*
X102479500Y-114924000D03*
X102893700Y-118678400D03*
X109642300Y-125517500D03*
X98467500Y-118632700D03*
X101443700Y-126875400D03*
X107249200Y-130732700D03*
X110151533Y-138260775D03*
X109044900Y-113484000D03*
X108490000Y-109335200D03*
X108303500Y-123155600D03*
X101718800Y-130748800D03*
X107020600Y-123163600D03*
X101199200Y-121968600D03*
X98804200Y-136612900D03*
X98808400Y-134076700D03*
X104470300Y-123161800D03*
X97897400Y-116103300D03*
X106450200Y-119902800D03*
X109810900Y-118869200D03*
X109810900Y-116348300D03*
X104575500Y-136471700D03*
X105506900Y-130741900D03*
D26*
X102852000Y-122613500D02*
X104000600Y-123762100D01*
X104000600Y-123762100D02*
X104786000Y-123762100D01*
X104786000Y-123762100D02*
X105137600Y-123410500D01*
X105137600Y-123410500D02*
X105137600Y-122544700D01*
X105137600Y-122544700D02*
X107226800Y-120455500D01*
X100015000Y-126675300D02*
X100965300Y-127625600D01*
X100965300Y-127625600D02*
X100965300Y-132401600D01*
X100965300Y-132401600D02*
X101236700Y-132673000D01*
X102479500Y-114924000D02*
X102479500Y-115572800D01*
X102479500Y-115572800D02*
X106009100Y-119102400D01*
X106009100Y-119102400D02*
X106197500Y-119102400D01*
X107226800Y-120455500D02*
X107226800Y-119782300D01*
X107226800Y-119782300D02*
X106546900Y-119102400D01*
X106546900Y-119102400D02*
X106197500Y-119102400D01*
X107226800Y-120455500D02*
X107612000Y-120455500D01*
X102852000Y-122613500D02*
X100390800Y-125074700D01*
X100390800Y-125074700D02*
X100015000Y-125074700D01*
X102852000Y-121723300D02*
X102852000Y-122613500D01*
X108247000Y-133460500D02*
X109023200Y-132684300D01*
X109023200Y-132684300D02*
X109023200Y-130426700D01*
X109023200Y-130426700D02*
X108247000Y-129650500D01*
X108247000Y-133460500D02*
X108247000Y-134190000D01*
X108247000Y-134190000D02*
X108458900Y-134401900D01*
X103243200Y-134254400D02*
X102897300Y-134600300D01*
X102897300Y-134600300D02*
X102897300Y-136483000D01*
X102897300Y-132673000D02*
X102897300Y-133908500D01*
X102897300Y-133908500D02*
X103243200Y-134254400D01*
X103243200Y-134254400D02*
X105548100Y-134254400D01*
X105548100Y-134254400D02*
X106342000Y-133460500D01*
X102067000Y-136483000D02*
X102897300Y-136483000D01*
X102067000Y-136483000D02*
X101236700Y-136483000D01*
X106342000Y-137270500D02*
X105530800Y-138081700D01*
X105530800Y-138081700D02*
X101429600Y-138081700D01*
X101429600Y-138081700D02*
X101236700Y-137888800D01*
X101236700Y-137888800D02*
X101236700Y-136483000D01*
X102067000Y-132673000D02*
X102897300Y-132673000D01*
X101651900Y-132673000D02*
X102067000Y-132673000D01*
X108247000Y-129650500D02*
X107917000Y-129650500D01*
X107917000Y-129650500D02*
X106342000Y-128075500D01*
X102479500Y-114924000D02*
X100457200Y-112901700D01*
X100457200Y-112901700D02*
X99786800Y-112901700D01*
X99786800Y-112901700D02*
X99392400Y-113296100D01*
X99392400Y-113296100D02*
X95760100Y-113296100D01*
X95760100Y-113296100D02*
X95246700Y-112782700D01*
X95246700Y-112782700D02*
X95246700Y-111556600D01*
X95246700Y-111556600D02*
X96182000Y-110621300D01*
X100015000Y-125875000D02*
X100015000Y-125074700D01*
X101651900Y-132673000D02*
X101236700Y-132673000D01*
X100015000Y-125875000D02*
X100015000Y-126675300D01*
X106342000Y-133460500D02*
X108247000Y-133460500D01*
X102852000Y-120973000D02*
X102852000Y-121723300D01*
X96182000Y-109686000D02*
X96182000Y-110621300D01*
X101414500Y-118068000D02*
X102024900Y-118678400D01*
X102024900Y-118678400D02*
X102893700Y-118678400D01*
X98179900Y-119973000D02*
X99067800Y-119085100D01*
X99067800Y-119085100D02*
X99067800Y-117598700D01*
X99067800Y-117598700D02*
X99408300Y-117258200D01*
X99408300Y-117258200D02*
X100604700Y-117258200D01*
X100604700Y-117258200D02*
X101414500Y-118068000D01*
X108694400Y-136483000D02*
X109642300Y-135535100D01*
X109642300Y-135535100D02*
X109642300Y-125517500D01*
X108694400Y-136483000D02*
X109059300Y-136847900D01*
X109059300Y-136847900D02*
X109059300Y-137741100D01*
X109059300Y-137741100D02*
X107905000Y-138895400D01*
X107905000Y-138895400D02*
X97468900Y-138895400D01*
X97468900Y-138895400D02*
X97151100Y-138577600D01*
X97151100Y-138577600D02*
X97151100Y-134831500D01*
X97151100Y-134831500D02*
X96288200Y-133968600D01*
X96288200Y-133968600D02*
X96027700Y-133968600D01*
X96027700Y-133968600D02*
X95241200Y-133182100D01*
X95241200Y-133182100D02*
X95241200Y-122130900D01*
X95241200Y-122130900D02*
X96263700Y-121108400D01*
X96263700Y-121108400D02*
X97632400Y-121108400D01*
X97632400Y-121108400D02*
X97896000Y-120844800D01*
X106213200Y-136105100D02*
X106591100Y-136483000D01*
X106591100Y-136483000D02*
X108694400Y-136483000D01*
X106342000Y-135695500D02*
X106213200Y-135824300D01*
X106213200Y-135824300D02*
X106213200Y-136105100D01*
X106213200Y-136105100D02*
X104978900Y-137339400D01*
X104978900Y-137339400D02*
X104978900Y-137433000D01*
X97896000Y-119973000D02*
X97896000Y-120844800D01*
X104267000Y-137433000D02*
X104978900Y-137433000D01*
X98156300Y-119973000D02*
X98179900Y-119973000D01*
X98049700Y-119973000D02*
X98156300Y-119973000D01*
X97896000Y-119973000D02*
X98049700Y-119973000D01*
X97896000Y-117433000D02*
X97896000Y-118304800D01*
X98467500Y-118632700D02*
X98139600Y-118304800D01*
X98139600Y-118304800D02*
X97896000Y-118304800D01*
X103416600Y-127913000D02*
X103416600Y-130872600D01*
X103416600Y-130872600D02*
X104267000Y-131723000D01*
X104167000Y-127913000D02*
X104917300Y-127913000D01*
X104917300Y-127913000D02*
X105545300Y-127285000D01*
X105545300Y-127285000D02*
X107456500Y-127285000D01*
X107456500Y-127285000D02*
X108247000Y-128075500D01*
X103416600Y-127913000D02*
X104167000Y-127913000D01*
X103416600Y-127913000D02*
X102481300Y-127913000D01*
X102481300Y-127913000D02*
X101443700Y-126875400D01*
X102897300Y-131723000D02*
X103522700Y-132348400D01*
X103522700Y-132348400D02*
X105392700Y-132348400D01*
X105392700Y-132348400D02*
X105855600Y-131885500D01*
X105855600Y-131885500D02*
X106342000Y-131885500D01*
X111422000Y-109686000D02*
X110470800Y-108734800D01*
X110470800Y-108734800D02*
X106744000Y-108734800D01*
X106744000Y-108734800D02*
X106338600Y-109140200D01*
X106338600Y-109140200D02*
X106338600Y-110441400D01*
X106338600Y-110441400D02*
X105202300Y-111577700D01*
X105202300Y-111577700D02*
X104502000Y-111577700D01*
X102067000Y-131723000D02*
X102897300Y-131723000D01*
X97896000Y-112353000D02*
X97896000Y-110419400D01*
X97896000Y-110419400D02*
X99530800Y-108784600D01*
X99530800Y-108784600D02*
X101708900Y-108784600D01*
X101708900Y-108784600D02*
X104502000Y-111577700D01*
X104502000Y-112378000D02*
X104502000Y-111577700D01*
X106342000Y-131885500D02*
X106342000Y-131639900D01*
X106342000Y-131639900D02*
X107249200Y-130732700D01*
X110151533Y-138260775D02*
X110786533Y-138895775D01*
X110786533Y-139657533D02*
X111422000Y-140293000D01*
X110786533Y-138895775D02*
X110786533Y-139657533D01*
X99761000Y-130955000D02*
X98960700Y-130955000D01*
X98960700Y-130955000D02*
X98960700Y-130371700D01*
X98960700Y-130371700D02*
X96182000Y-127593000D01*
X96182000Y-122513000D02*
X98960700Y-125291700D01*
X98960700Y-125291700D02*
X98960700Y-128415000D01*
X99761000Y-128415000D02*
X98960700Y-128415000D01*
X99761000Y-129685000D02*
X98960700Y-129685000D01*
X98960700Y-129685000D02*
X98960700Y-129048700D01*
X98960700Y-129048700D02*
X96182000Y-126270000D01*
X96182000Y-126270000D02*
X96182000Y-125053000D01*
X105095000Y-125074700D02*
X106405800Y-123763900D01*
X106405800Y-123763900D02*
X108544200Y-123763900D01*
X108544200Y-123763900D02*
X108903800Y-123404300D01*
X108903800Y-123404300D02*
X108903800Y-123132100D01*
X108903800Y-123132100D02*
X109207200Y-122828700D01*
X109207200Y-122828700D02*
X109207200Y-114893100D01*
X109207200Y-114893100D02*
X109207300Y-114893000D01*
X109207300Y-114893000D02*
X109044900Y-114730600D01*
X109044900Y-114730600D02*
X109044900Y-113484000D01*
X109707500Y-114893000D02*
X109207300Y-114893000D01*
X105095000Y-125875000D02*
X105095000Y-125074700D01*
X106365000Y-125074700D02*
X107799500Y-125074700D01*
X107799500Y-125074700D02*
X109304100Y-123570100D01*
X109304100Y-123570100D02*
X109304100Y-123297900D01*
X109304100Y-123297900D02*
X111693600Y-120908400D01*
X111693600Y-120908400D02*
X111871800Y-120908400D01*
X111871800Y-120908400D02*
X112365800Y-120414400D01*
X112365800Y-120414400D02*
X112365800Y-114487800D01*
X112365800Y-114487800D02*
X111706200Y-113828200D01*
X111706200Y-113828200D02*
X110310900Y-113828200D01*
X110310900Y-113828200D02*
X109707500Y-113224800D01*
X109707500Y-112353000D02*
X109707500Y-110552700D01*
X109707500Y-110552700D02*
X108490000Y-109335200D01*
X106365000Y-125875000D02*
X106365000Y-125074700D01*
X109707500Y-112353000D02*
X109707500Y-113224800D01*
X102167000Y-129563300D02*
X102167000Y-130300600D01*
X102167000Y-130300600D02*
X101718800Y-130748800D01*
X107016600Y-117240900D02*
X108165700Y-117240900D01*
X108165700Y-117240900D02*
X108797000Y-117872200D01*
X108797000Y-117872200D02*
X108797000Y-122662100D01*
X108797000Y-122662100D02*
X108303500Y-123155600D01*
X102167000Y-128863000D02*
X102167000Y-129563300D01*
X107016600Y-117240900D02*
X106189500Y-118068000D01*
X106002000Y-112378000D02*
X106002000Y-116226300D01*
X106002000Y-116226300D02*
X107016600Y-117240900D01*
X110342500Y-112353000D02*
X111422000Y-112353000D01*
X110342500Y-114893000D02*
X111422000Y-114893000D01*
X110342500Y-117433000D02*
X111422000Y-117433000D01*
X110342500Y-119973000D02*
X111422000Y-119973000D01*
X97261000Y-119973000D02*
X96182000Y-119973000D01*
X97261000Y-117433000D02*
X96182000Y-117433000D01*
X97261000Y-114893000D02*
X96182000Y-114893000D01*
X97261000Y-112353000D02*
X96182000Y-112353000D01*
X107612000Y-122030500D02*
X107020600Y-122621900D01*
X107020600Y-122621900D02*
X107020600Y-123163600D01*
X99991500Y-120455500D02*
X101199200Y-121663200D01*
X101199200Y-121663200D02*
X101199200Y-121968600D01*
X102067000Y-133623000D02*
X101236700Y-133623000D01*
X101236700Y-133623000D02*
X100563000Y-132949300D01*
X100563000Y-132949300D02*
X100563000Y-127965000D01*
X100563000Y-127965000D02*
X99375500Y-126777500D01*
X99375500Y-126777500D02*
X99375500Y-122646500D01*
X99375500Y-122646500D02*
X99991500Y-122030500D01*
X98086500Y-136817700D02*
X98599400Y-136817700D01*
X98599400Y-136817700D02*
X98804200Y-136612900D01*
X98086500Y-137753000D02*
X98086500Y-136817700D01*
X98086500Y-134277700D02*
X98607400Y-134277700D01*
X98607400Y-134277700D02*
X98808400Y-134076700D01*
X98086500Y-135213000D02*
X98086500Y-134277700D01*
X104752000Y-121723300D02*
X104470300Y-122005000D01*
X104470300Y-122005000D02*
X104470300Y-123161800D01*
X99839500Y-118068000D02*
X101538500Y-119767000D01*
X101538500Y-119767000D02*
X102933200Y-119767000D01*
X102933200Y-119767000D02*
X104051700Y-120885500D01*
X104051700Y-120885500D02*
X104051700Y-120973000D01*
X104752000Y-120973000D02*
X104051700Y-120973000D01*
X104752000Y-121126200D02*
X104752000Y-120973000D01*
X104752000Y-121126200D02*
X104752000Y-121723300D01*
X104502300Y-118973000D02*
X105432100Y-119902800D01*
X105432100Y-119902800D02*
X106450200Y-119902800D01*
X104152200Y-118973000D02*
X101990800Y-116811600D01*
X101990800Y-116811600D02*
X98605700Y-116811600D01*
X98605700Y-116811600D02*
X97897400Y-116103300D01*
X97897400Y-116103300D02*
X97897400Y-115766200D01*
X97897400Y-115766200D02*
X97896000Y-115764800D01*
X97896000Y-114893000D02*
X97896000Y-115764800D01*
X104152200Y-118973000D02*
X104502300Y-118973000D01*
X103802000Y-118973000D02*
X104152200Y-118973000D01*
X109707500Y-118869200D02*
X109707500Y-118304800D01*
X109707500Y-119973000D02*
X109707500Y-118869200D01*
X109707500Y-118869200D02*
X109810900Y-118869200D01*
X109707500Y-117433000D02*
X109707500Y-116561200D01*
X109707500Y-116561200D02*
X109810900Y-116457800D01*
X109810900Y-116457800D02*
X109810900Y-116348300D01*
X109707500Y-117868900D02*
X109707500Y-117433000D01*
X109707500Y-117868900D02*
X109707500Y-118304800D01*
X108247000Y-137270500D02*
X107035500Y-138482000D01*
X107035500Y-138482000D02*
X101263800Y-138482000D01*
X101263800Y-138482000D02*
X100836400Y-138054600D01*
X100836400Y-138054600D02*
X100836400Y-135933300D01*
X100836400Y-135933300D02*
X101236700Y-135533000D01*
X102067000Y-135533000D02*
X101236700Y-135533000D01*
X105097300Y-133623000D02*
X105097300Y-133483300D01*
X105097300Y-133483300D02*
X105907600Y-132673000D01*
X105907600Y-132673000D02*
X107459500Y-132673000D01*
X107459500Y-132673000D02*
X108247000Y-131885500D01*
X104267000Y-133623000D02*
X105097300Y-133623000D01*
X104167000Y-130513300D02*
X105278300Y-130513300D01*
X105278300Y-130513300D02*
X105506900Y-130741900D01*
X104167000Y-129813000D02*
X104167000Y-130513300D01*
X108247000Y-135695500D02*
X107460500Y-134909000D01*
X107460500Y-134909000D02*
X105847300Y-134909000D01*
X105847300Y-134909000D02*
X105412000Y-135344300D01*
X105412000Y-135344300D02*
X105412000Y-135726500D01*
X105412000Y-135726500D02*
X104666800Y-136471700D01*
X104666800Y-136471700D02*
X104575500Y-136471700D01*
X102897300Y-137433000D02*
X103858600Y-136471700D01*
X103858600Y-136471700D02*
X104575500Y-136471700D01*
X102067000Y-137433000D02*
X102897300Y-137433000D01*
X104917300Y-129813000D02*
X105079800Y-129650500D01*
X105079800Y-129650500D02*
X106342000Y-129650500D01*
X104167000Y-129813000D02*
X104917300Y-129813000D01*
X103825000Y-125074700D02*
X104039500Y-125074700D01*
X104039500Y-125074700D02*
X105537900Y-123576300D01*
X105537900Y-123576300D02*
X105537900Y-122858300D01*
X105537900Y-122858300D02*
X107153200Y-121243000D01*
X107153200Y-121243000D02*
X108048700Y-121243000D01*
X108048700Y-121243000D02*
X108396600Y-120895100D01*
X108396600Y-120895100D02*
X108396600Y-118700100D01*
X108396600Y-118700100D02*
X107764500Y-118068000D01*
X103825000Y-125875000D02*
X103825000Y-125074700D01*
X103825000Y-125875000D02*
X103825000Y-126675300D01*
X107635000Y-125875000D02*
X107635000Y-126675300D01*
X103825000Y-126675300D02*
X107635000Y-126675300D01*
M02*
