G04 #@! TF.GenerationSoftware,KiCad,Pcbnew,(5.1.6)-1*
G04 #@! TF.CreationDate,2020-06-11T17:33:57+01:00*
G04 #@! TF.ProjectId,nrfmicro,6e72666d-6963-4726-9f2e-6b696361645f,rev?*
G04 #@! TF.SameCoordinates,Original*
G04 #@! TF.FileFunction,Soldermask,Top*
G04 #@! TF.FilePolarity,Negative*
%FSLAX46Y46*%
G04 Gerber Fmt 4.6, Leading zero omitted, Abs format (unit mm)*
G04 Created by KiCad (PCBNEW (5.1.6)-1) date 2020-06-11 17:33:57*
%MOMM*%
%LPD*%
G01*
G04 APERTURE LIST*
%ADD10C,0.100000*%
G04 APERTURE END LIST*
D10*
G36*
X111607223Y-139682403D02*
G01*
X111665004Y-139706337D01*
X111722786Y-139730271D01*
X111826786Y-139799761D01*
X111915239Y-139888214D01*
X111984729Y-139992214D01*
X112032597Y-140107778D01*
X112057000Y-140230459D01*
X112057000Y-140355541D01*
X112032597Y-140478222D01*
X111984729Y-140593786D01*
X111915239Y-140697786D01*
X111826786Y-140786239D01*
X111722786Y-140855729D01*
X111665004Y-140879663D01*
X111607223Y-140903597D01*
X111484542Y-140928000D01*
X111359458Y-140928000D01*
X111236777Y-140903597D01*
X111178996Y-140879663D01*
X111121214Y-140855729D01*
X111017214Y-140786239D01*
X110928761Y-140697786D01*
X110859271Y-140593786D01*
X110811403Y-140478222D01*
X110787000Y-140355541D01*
X110787000Y-140230459D01*
X110811403Y-140107778D01*
X110859271Y-139992214D01*
X110928761Y-139888214D01*
X111017214Y-139799761D01*
X111121214Y-139730271D01*
X111178996Y-139706337D01*
X111236777Y-139682403D01*
X111359458Y-139658000D01*
X111484542Y-139658000D01*
X111607223Y-139682403D01*
G37*
G36*
X96367223Y-139682403D02*
G01*
X96425004Y-139706337D01*
X96482786Y-139730271D01*
X96586786Y-139799761D01*
X96675239Y-139888214D01*
X96744729Y-139992214D01*
X96792597Y-140107778D01*
X96817000Y-140230459D01*
X96817000Y-140355541D01*
X96792597Y-140478222D01*
X96744729Y-140593786D01*
X96675239Y-140697786D01*
X96586786Y-140786239D01*
X96482786Y-140855729D01*
X96425004Y-140879663D01*
X96367223Y-140903597D01*
X96244542Y-140928000D01*
X96119458Y-140928000D01*
X95996777Y-140903597D01*
X95938996Y-140879663D01*
X95881214Y-140855729D01*
X95777214Y-140786239D01*
X95688761Y-140697786D01*
X95619271Y-140593786D01*
X95571403Y-140478222D01*
X95547000Y-140355541D01*
X95547000Y-140230459D01*
X95571403Y-140107778D01*
X95619271Y-139992214D01*
X95688761Y-139888214D01*
X95777214Y-139799761D01*
X95881214Y-139730271D01*
X95938996Y-139706337D01*
X95996777Y-139682403D01*
X96119458Y-139658000D01*
X96244542Y-139658000D01*
X96367223Y-139682403D01*
G37*
G36*
X96367223Y-137142403D02*
G01*
X96425004Y-137166337D01*
X96482786Y-137190271D01*
X96586786Y-137259761D01*
X96675239Y-137348214D01*
X96744729Y-137452214D01*
X96792597Y-137567778D01*
X96817000Y-137690459D01*
X96817000Y-137815541D01*
X96792597Y-137938222D01*
X96744729Y-138053786D01*
X96675239Y-138157786D01*
X96586786Y-138246239D01*
X96482786Y-138315729D01*
X96425004Y-138339663D01*
X96367223Y-138363597D01*
X96244542Y-138388000D01*
X96119458Y-138388000D01*
X95996777Y-138363597D01*
X95938996Y-138339663D01*
X95881214Y-138315729D01*
X95777214Y-138246239D01*
X95688761Y-138157786D01*
X95619271Y-138053786D01*
X95571403Y-137938222D01*
X95547000Y-137815541D01*
X95547000Y-137690459D01*
X95571403Y-137567778D01*
X95619271Y-137452214D01*
X95688761Y-137348214D01*
X95777214Y-137259761D01*
X95881214Y-137190271D01*
X95938996Y-137166337D01*
X95996777Y-137142403D01*
X96119458Y-137118000D01*
X96244542Y-137118000D01*
X96367223Y-137142403D01*
G37*
G36*
X111607223Y-137142403D02*
G01*
X111665004Y-137166337D01*
X111722786Y-137190271D01*
X111826786Y-137259761D01*
X111915239Y-137348214D01*
X111984729Y-137452214D01*
X112032597Y-137567778D01*
X112057000Y-137690459D01*
X112057000Y-137815541D01*
X112032597Y-137938222D01*
X111984729Y-138053786D01*
X111915239Y-138157786D01*
X111826786Y-138246239D01*
X111722786Y-138315729D01*
X111665004Y-138339663D01*
X111607223Y-138363597D01*
X111484542Y-138388000D01*
X111359458Y-138388000D01*
X111236777Y-138363597D01*
X111178996Y-138339663D01*
X111121214Y-138315729D01*
X111017214Y-138246239D01*
X110928761Y-138157786D01*
X110859271Y-138053786D01*
X110811403Y-137938222D01*
X110787000Y-137815541D01*
X110787000Y-137690459D01*
X110811403Y-137567778D01*
X110859271Y-137452214D01*
X110928761Y-137348214D01*
X111017214Y-137259761D01*
X111121214Y-137190271D01*
X111178996Y-137166337D01*
X111236777Y-137142403D01*
X111359458Y-137118000D01*
X111484542Y-137118000D01*
X111607223Y-137142403D01*
G37*
G36*
X98183000Y-138138000D02*
G01*
X97183000Y-138138000D01*
X97183000Y-137488000D01*
X98183000Y-137488000D01*
X98183000Y-138138000D01*
G37*
G36*
X110421000Y-138138000D02*
G01*
X109421000Y-138138000D01*
X109421000Y-137488000D01*
X110421000Y-137488000D01*
X110421000Y-138138000D01*
G37*
G36*
X100261000Y-137630000D02*
G01*
X99261000Y-137630000D01*
X99261000Y-136980000D01*
X100261000Y-136980000D01*
X100261000Y-137630000D01*
G37*
G36*
X98183000Y-136868000D02*
G01*
X97183000Y-136868000D01*
X97183000Y-136218000D01*
X98183000Y-136218000D01*
X98183000Y-136868000D01*
G37*
G36*
X110421000Y-136868000D02*
G01*
X109421000Y-136868000D01*
X109421000Y-136218000D01*
X110421000Y-136218000D01*
X110421000Y-136868000D01*
G37*
G36*
X100261000Y-136360000D02*
G01*
X99261000Y-136360000D01*
X99261000Y-135710000D01*
X100261000Y-135710000D01*
X100261000Y-136360000D01*
G37*
G36*
X96367223Y-134602403D02*
G01*
X96425004Y-134626337D01*
X96482786Y-134650271D01*
X96586786Y-134719761D01*
X96675239Y-134808214D01*
X96744729Y-134912214D01*
X96792597Y-135027778D01*
X96817000Y-135150459D01*
X96817000Y-135275541D01*
X96792597Y-135398222D01*
X96744729Y-135513786D01*
X96675239Y-135617786D01*
X96586786Y-135706239D01*
X96482786Y-135775729D01*
X96425004Y-135799663D01*
X96367223Y-135823597D01*
X96244542Y-135848000D01*
X96119458Y-135848000D01*
X95996777Y-135823597D01*
X95938996Y-135799663D01*
X95881214Y-135775729D01*
X95777214Y-135706239D01*
X95688761Y-135617786D01*
X95619271Y-135513786D01*
X95571403Y-135398222D01*
X95547000Y-135275541D01*
X95547000Y-135150459D01*
X95571403Y-135027778D01*
X95619271Y-134912214D01*
X95688761Y-134808214D01*
X95777214Y-134719761D01*
X95881214Y-134650271D01*
X95938996Y-134626337D01*
X95996777Y-134602403D01*
X96119458Y-134578000D01*
X96244542Y-134578000D01*
X96367223Y-134602403D01*
G37*
G36*
X111607223Y-134602403D02*
G01*
X111665004Y-134626337D01*
X111722786Y-134650271D01*
X111826786Y-134719761D01*
X111915239Y-134808214D01*
X111984729Y-134912214D01*
X112032597Y-135027778D01*
X112057000Y-135150459D01*
X112057000Y-135275541D01*
X112032597Y-135398222D01*
X111984729Y-135513786D01*
X111915239Y-135617786D01*
X111826786Y-135706239D01*
X111722786Y-135775729D01*
X111665004Y-135799663D01*
X111607223Y-135823597D01*
X111484542Y-135848000D01*
X111359458Y-135848000D01*
X111236777Y-135823597D01*
X111178996Y-135799663D01*
X111121214Y-135775729D01*
X111017214Y-135706239D01*
X110928761Y-135617786D01*
X110859271Y-135513786D01*
X110811403Y-135398222D01*
X110787000Y-135275541D01*
X110787000Y-135150459D01*
X110811403Y-135027778D01*
X110859271Y-134912214D01*
X110928761Y-134808214D01*
X111017214Y-134719761D01*
X111121214Y-134650271D01*
X111178996Y-134626337D01*
X111236777Y-134602403D01*
X111359458Y-134578000D01*
X111484542Y-134578000D01*
X111607223Y-134602403D01*
G37*
G36*
X98183000Y-135598000D02*
G01*
X97183000Y-135598000D01*
X97183000Y-134948000D01*
X98183000Y-134948000D01*
X98183000Y-135598000D01*
G37*
G36*
X110421000Y-135598000D02*
G01*
X109421000Y-135598000D01*
X109421000Y-134948000D01*
X110421000Y-134948000D01*
X110421000Y-135598000D01*
G37*
G36*
X100261000Y-135090000D02*
G01*
X99261000Y-135090000D01*
X99261000Y-134440000D01*
X100261000Y-134440000D01*
X100261000Y-135090000D01*
G37*
G36*
X110421000Y-134328000D02*
G01*
X109421000Y-134328000D01*
X109421000Y-133678000D01*
X110421000Y-133678000D01*
X110421000Y-134328000D01*
G37*
G36*
X98183000Y-134328000D02*
G01*
X97183000Y-134328000D01*
X97183000Y-133678000D01*
X98183000Y-133678000D01*
X98183000Y-134328000D01*
G37*
G36*
X100261000Y-133820000D02*
G01*
X99261000Y-133820000D01*
X99261000Y-133170000D01*
X100261000Y-133170000D01*
X100261000Y-133820000D01*
G37*
G36*
X96367223Y-132062403D02*
G01*
X96425004Y-132086337D01*
X96482786Y-132110271D01*
X96586786Y-132179761D01*
X96675239Y-132268214D01*
X96744729Y-132372214D01*
X96792597Y-132487778D01*
X96817000Y-132610459D01*
X96817000Y-132735541D01*
X96792597Y-132858222D01*
X96744729Y-132973786D01*
X96675239Y-133077786D01*
X96586786Y-133166239D01*
X96482786Y-133235729D01*
X96425004Y-133259663D01*
X96367223Y-133283597D01*
X96244542Y-133308000D01*
X96119458Y-133308000D01*
X95996777Y-133283597D01*
X95938996Y-133259663D01*
X95881214Y-133235729D01*
X95777214Y-133166239D01*
X95688761Y-133077786D01*
X95619271Y-132973786D01*
X95571403Y-132858222D01*
X95547000Y-132735541D01*
X95547000Y-132610459D01*
X95571403Y-132487778D01*
X95619271Y-132372214D01*
X95688761Y-132268214D01*
X95777214Y-132179761D01*
X95881214Y-132110271D01*
X95938996Y-132086337D01*
X95996777Y-132062403D01*
X96119458Y-132038000D01*
X96244542Y-132038000D01*
X96367223Y-132062403D01*
G37*
G36*
X111607223Y-132062403D02*
G01*
X111665004Y-132086337D01*
X111722786Y-132110271D01*
X111826786Y-132179761D01*
X111915239Y-132268214D01*
X111984729Y-132372214D01*
X112032597Y-132487778D01*
X112057000Y-132610459D01*
X112057000Y-132735541D01*
X112032597Y-132858222D01*
X111984729Y-132973786D01*
X111915239Y-133077786D01*
X111826786Y-133166239D01*
X111722786Y-133235729D01*
X111665004Y-133259663D01*
X111607223Y-133283597D01*
X111484542Y-133308000D01*
X111359458Y-133308000D01*
X111236777Y-133283597D01*
X111178996Y-133259663D01*
X111121214Y-133235729D01*
X111017214Y-133166239D01*
X110928761Y-133077786D01*
X110859271Y-132973786D01*
X110811403Y-132858222D01*
X110787000Y-132735541D01*
X110787000Y-132610459D01*
X110811403Y-132487778D01*
X110859271Y-132372214D01*
X110928761Y-132268214D01*
X111017214Y-132179761D01*
X111121214Y-132110271D01*
X111178996Y-132086337D01*
X111236777Y-132062403D01*
X111359458Y-132038000D01*
X111484542Y-132038000D01*
X111607223Y-132062403D01*
G37*
G36*
X98183000Y-133058000D02*
G01*
X97183000Y-133058000D01*
X97183000Y-132408000D01*
X98183000Y-132408000D01*
X98183000Y-133058000D01*
G37*
G36*
X110421000Y-133058000D02*
G01*
X109421000Y-133058000D01*
X109421000Y-132408000D01*
X110421000Y-132408000D01*
X110421000Y-133058000D01*
G37*
G36*
X100261000Y-132550000D02*
G01*
X99261000Y-132550000D01*
X99261000Y-131900000D01*
X100261000Y-131900000D01*
X100261000Y-132550000D01*
G37*
G36*
X110421000Y-131788000D02*
G01*
X109421000Y-131788000D01*
X109421000Y-131138000D01*
X110421000Y-131138000D01*
X110421000Y-131788000D01*
G37*
G36*
X98183000Y-131788000D02*
G01*
X97183000Y-131788000D01*
X97183000Y-131138000D01*
X98183000Y-131138000D01*
X98183000Y-131788000D01*
G37*
G36*
X100261000Y-131280000D02*
G01*
X99261000Y-131280000D01*
X99261000Y-130630000D01*
X100261000Y-130630000D01*
X100261000Y-131280000D01*
G37*
G36*
X111607223Y-129522403D02*
G01*
X111665004Y-129546337D01*
X111722786Y-129570271D01*
X111826786Y-129639761D01*
X111915239Y-129728214D01*
X111984729Y-129832214D01*
X112032597Y-129947778D01*
X112057000Y-130070459D01*
X112057000Y-130195541D01*
X112032597Y-130318222D01*
X111984729Y-130433786D01*
X111915239Y-130537786D01*
X111826786Y-130626239D01*
X111722786Y-130695729D01*
X111665004Y-130719663D01*
X111607223Y-130743597D01*
X111484542Y-130768000D01*
X111359458Y-130768000D01*
X111236777Y-130743597D01*
X111178996Y-130719663D01*
X111121214Y-130695729D01*
X111017214Y-130626239D01*
X110928761Y-130537786D01*
X110859271Y-130433786D01*
X110811403Y-130318222D01*
X110787000Y-130195541D01*
X110787000Y-130070459D01*
X110811403Y-129947778D01*
X110859271Y-129832214D01*
X110928761Y-129728214D01*
X111017214Y-129639761D01*
X111121214Y-129570271D01*
X111178996Y-129546337D01*
X111236777Y-129522403D01*
X111359458Y-129498000D01*
X111484542Y-129498000D01*
X111607223Y-129522403D01*
G37*
G36*
X96367223Y-129522403D02*
G01*
X96425004Y-129546337D01*
X96482786Y-129570271D01*
X96586786Y-129639761D01*
X96675239Y-129728214D01*
X96744729Y-129832214D01*
X96792597Y-129947778D01*
X96817000Y-130070459D01*
X96817000Y-130195541D01*
X96792597Y-130318222D01*
X96744729Y-130433786D01*
X96675239Y-130537786D01*
X96586786Y-130626239D01*
X96482786Y-130695729D01*
X96425004Y-130719663D01*
X96367223Y-130743597D01*
X96244542Y-130768000D01*
X96119458Y-130768000D01*
X95996777Y-130743597D01*
X95938996Y-130719663D01*
X95881214Y-130695729D01*
X95777214Y-130626239D01*
X95688761Y-130537786D01*
X95619271Y-130433786D01*
X95571403Y-130318222D01*
X95547000Y-130195541D01*
X95547000Y-130070459D01*
X95571403Y-129947778D01*
X95619271Y-129832214D01*
X95688761Y-129728214D01*
X95777214Y-129639761D01*
X95881214Y-129570271D01*
X95938996Y-129546337D01*
X95996777Y-129522403D01*
X96119458Y-129498000D01*
X96244542Y-129498000D01*
X96367223Y-129522403D01*
G37*
G36*
X98183000Y-130518000D02*
G01*
X97183000Y-130518000D01*
X97183000Y-129868000D01*
X98183000Y-129868000D01*
X98183000Y-130518000D01*
G37*
G36*
X110421000Y-130518000D02*
G01*
X109421000Y-130518000D01*
X109421000Y-129868000D01*
X110421000Y-129868000D01*
X110421000Y-130518000D01*
G37*
G36*
X100261000Y-130010000D02*
G01*
X99261000Y-130010000D01*
X99261000Y-129360000D01*
X100261000Y-129360000D01*
X100261000Y-130010000D01*
G37*
G36*
X110421000Y-129248000D02*
G01*
X109421000Y-129248000D01*
X109421000Y-128598000D01*
X110421000Y-128598000D01*
X110421000Y-129248000D01*
G37*
G36*
X98183000Y-129248000D02*
G01*
X97183000Y-129248000D01*
X97183000Y-128598000D01*
X98183000Y-128598000D01*
X98183000Y-129248000D01*
G37*
G36*
X100261000Y-128740000D02*
G01*
X99261000Y-128740000D01*
X99261000Y-128090000D01*
X100261000Y-128090000D01*
X100261000Y-128740000D01*
G37*
G36*
X111607223Y-126982403D02*
G01*
X111665004Y-127006337D01*
X111722786Y-127030271D01*
X111826786Y-127099761D01*
X111915239Y-127188214D01*
X111984729Y-127292214D01*
X112032597Y-127407778D01*
X112057000Y-127530459D01*
X112057000Y-127655541D01*
X112032597Y-127778222D01*
X111984729Y-127893786D01*
X111915239Y-127997786D01*
X111826786Y-128086239D01*
X111722786Y-128155729D01*
X111665004Y-128179663D01*
X111607223Y-128203597D01*
X111484542Y-128228000D01*
X111359458Y-128228000D01*
X111236777Y-128203597D01*
X111178996Y-128179663D01*
X111121214Y-128155729D01*
X111017214Y-128086239D01*
X110928761Y-127997786D01*
X110859271Y-127893786D01*
X110811403Y-127778222D01*
X110787000Y-127655541D01*
X110787000Y-127530459D01*
X110811403Y-127407778D01*
X110859271Y-127292214D01*
X110928761Y-127188214D01*
X111017214Y-127099761D01*
X111121214Y-127030271D01*
X111178996Y-127006337D01*
X111236777Y-126982403D01*
X111359458Y-126958000D01*
X111484542Y-126958000D01*
X111607223Y-126982403D01*
G37*
G36*
X96367223Y-126982403D02*
G01*
X96425004Y-127006337D01*
X96482786Y-127030271D01*
X96586786Y-127099761D01*
X96675239Y-127188214D01*
X96744729Y-127292214D01*
X96792597Y-127407778D01*
X96817000Y-127530459D01*
X96817000Y-127655541D01*
X96792597Y-127778222D01*
X96744729Y-127893786D01*
X96675239Y-127997786D01*
X96586786Y-128086239D01*
X96482786Y-128155729D01*
X96425004Y-128179663D01*
X96367223Y-128203597D01*
X96244542Y-128228000D01*
X96119458Y-128228000D01*
X95996777Y-128203597D01*
X95938996Y-128179663D01*
X95881214Y-128155729D01*
X95777214Y-128086239D01*
X95688761Y-127997786D01*
X95619271Y-127893786D01*
X95571403Y-127778222D01*
X95547000Y-127655541D01*
X95547000Y-127530459D01*
X95571403Y-127407778D01*
X95619271Y-127292214D01*
X95688761Y-127188214D01*
X95777214Y-127099761D01*
X95881214Y-127030271D01*
X95938996Y-127006337D01*
X95996777Y-126982403D01*
X96119458Y-126958000D01*
X96244542Y-126958000D01*
X96367223Y-126982403D01*
G37*
G36*
X110421000Y-127978000D02*
G01*
X109421000Y-127978000D01*
X109421000Y-127328000D01*
X110421000Y-127328000D01*
X110421000Y-127978000D01*
G37*
G36*
X98183000Y-127978000D02*
G01*
X97183000Y-127978000D01*
X97183000Y-127328000D01*
X98183000Y-127328000D01*
X98183000Y-127978000D01*
G37*
G36*
X110421000Y-126708000D02*
G01*
X109421000Y-126708000D01*
X109421000Y-126058000D01*
X110421000Y-126058000D01*
X110421000Y-126708000D01*
G37*
G36*
X98183000Y-126708000D02*
G01*
X97183000Y-126708000D01*
X97183000Y-126058000D01*
X98183000Y-126058000D01*
X98183000Y-126708000D01*
G37*
G36*
X106690000Y-126375000D02*
G01*
X106040000Y-126375000D01*
X106040000Y-125375000D01*
X106690000Y-125375000D01*
X106690000Y-126375000D01*
G37*
G36*
X105420000Y-126375000D02*
G01*
X104770000Y-126375000D01*
X104770000Y-125375000D01*
X105420000Y-125375000D01*
X105420000Y-126375000D01*
G37*
G36*
X102880000Y-126375000D02*
G01*
X102230000Y-126375000D01*
X102230000Y-125375000D01*
X102880000Y-125375000D01*
X102880000Y-126375000D01*
G37*
G36*
X101610000Y-126375000D02*
G01*
X100960000Y-126375000D01*
X100960000Y-125375000D01*
X101610000Y-125375000D01*
X101610000Y-126375000D01*
G37*
G36*
X107960000Y-126375000D02*
G01*
X107310000Y-126375000D01*
X107310000Y-125375000D01*
X107960000Y-125375000D01*
X107960000Y-126375000D01*
G37*
G36*
X104150000Y-126375000D02*
G01*
X103500000Y-126375000D01*
X103500000Y-125375000D01*
X104150000Y-125375000D01*
X104150000Y-126375000D01*
G37*
G36*
X100340000Y-126375000D02*
G01*
X99690000Y-126375000D01*
X99690000Y-125375000D01*
X100340000Y-125375000D01*
X100340000Y-126375000D01*
G37*
G36*
X111607223Y-124442403D02*
G01*
X111665004Y-124466337D01*
X111722786Y-124490271D01*
X111826786Y-124559761D01*
X111915239Y-124648214D01*
X111984729Y-124752214D01*
X112032597Y-124867778D01*
X112057000Y-124990459D01*
X112057000Y-125115541D01*
X112032597Y-125238222D01*
X111984729Y-125353786D01*
X111915239Y-125457786D01*
X111826786Y-125546239D01*
X111722786Y-125615729D01*
X111665004Y-125639663D01*
X111607223Y-125663597D01*
X111484542Y-125688000D01*
X111359458Y-125688000D01*
X111236777Y-125663597D01*
X111178996Y-125639663D01*
X111121214Y-125615729D01*
X111017214Y-125546239D01*
X110928761Y-125457786D01*
X110859271Y-125353786D01*
X110811403Y-125238222D01*
X110787000Y-125115541D01*
X110787000Y-124990459D01*
X110811403Y-124867778D01*
X110859271Y-124752214D01*
X110928761Y-124648214D01*
X111017214Y-124559761D01*
X111121214Y-124490271D01*
X111178996Y-124466337D01*
X111236777Y-124442403D01*
X111359458Y-124418000D01*
X111484542Y-124418000D01*
X111607223Y-124442403D01*
G37*
G36*
X96367223Y-124442403D02*
G01*
X96425004Y-124466337D01*
X96482786Y-124490271D01*
X96586786Y-124559761D01*
X96675239Y-124648214D01*
X96744729Y-124752214D01*
X96792597Y-124867778D01*
X96817000Y-124990459D01*
X96817000Y-125115541D01*
X96792597Y-125238222D01*
X96744729Y-125353786D01*
X96675239Y-125457786D01*
X96586786Y-125546239D01*
X96482786Y-125615729D01*
X96425004Y-125639663D01*
X96367223Y-125663597D01*
X96244542Y-125688000D01*
X96119458Y-125688000D01*
X95996777Y-125663597D01*
X95938996Y-125639663D01*
X95881214Y-125615729D01*
X95777214Y-125546239D01*
X95688761Y-125457786D01*
X95619271Y-125353786D01*
X95571403Y-125238222D01*
X95547000Y-125115541D01*
X95547000Y-124990459D01*
X95571403Y-124867778D01*
X95619271Y-124752214D01*
X95688761Y-124648214D01*
X95777214Y-124559761D01*
X95881214Y-124490271D01*
X95938996Y-124466337D01*
X95996777Y-124442403D01*
X96119458Y-124418000D01*
X96244542Y-124418000D01*
X96367223Y-124442403D01*
G37*
G36*
X100977000Y-124664000D02*
G01*
X100327000Y-124664000D01*
X100327000Y-123664000D01*
X100977000Y-123664000D01*
X100977000Y-124664000D01*
G37*
G36*
X103517000Y-124664000D02*
G01*
X102867000Y-124664000D01*
X102867000Y-123664000D01*
X103517000Y-123664000D01*
X103517000Y-124664000D01*
G37*
G36*
X99707000Y-124664000D02*
G01*
X99057000Y-124664000D01*
X99057000Y-123664000D01*
X99707000Y-123664000D01*
X99707000Y-124664000D01*
G37*
G36*
X104787000Y-124664000D02*
G01*
X104137000Y-124664000D01*
X104137000Y-123664000D01*
X104787000Y-123664000D01*
X104787000Y-124664000D01*
G37*
G36*
X107327000Y-124664000D02*
G01*
X106677000Y-124664000D01*
X106677000Y-123664000D01*
X107327000Y-123664000D01*
X107327000Y-124664000D01*
G37*
G36*
X106057000Y-124664000D02*
G01*
X105407000Y-124664000D01*
X105407000Y-123664000D01*
X106057000Y-123664000D01*
X106057000Y-124664000D01*
G37*
G36*
X108597000Y-124664000D02*
G01*
X107947000Y-124664000D01*
X107947000Y-123664000D01*
X108597000Y-123664000D01*
X108597000Y-124664000D01*
G37*
G36*
X102247000Y-124664000D02*
G01*
X101597000Y-124664000D01*
X101597000Y-123664000D01*
X102247000Y-123664000D01*
X102247000Y-124664000D01*
G37*
G36*
X111607223Y-121902403D02*
G01*
X111665004Y-121926337D01*
X111722786Y-121950271D01*
X111826786Y-122019761D01*
X111915239Y-122108214D01*
X111984729Y-122212214D01*
X111984729Y-122212215D01*
X112032597Y-122327777D01*
X112046610Y-122398223D01*
X112057000Y-122450459D01*
X112057000Y-122575541D01*
X112032597Y-122698222D01*
X111984729Y-122813786D01*
X111915239Y-122917786D01*
X111826786Y-123006239D01*
X111722786Y-123075729D01*
X111665004Y-123099663D01*
X111607223Y-123123597D01*
X111484542Y-123148000D01*
X111359458Y-123148000D01*
X111236777Y-123123597D01*
X111178996Y-123099663D01*
X111121214Y-123075729D01*
X111017214Y-123006239D01*
X110928761Y-122917786D01*
X110859271Y-122813786D01*
X110811403Y-122698222D01*
X110787000Y-122575541D01*
X110787000Y-122450459D01*
X110797390Y-122398223D01*
X110811403Y-122327777D01*
X110859271Y-122212215D01*
X110859271Y-122212214D01*
X110928761Y-122108214D01*
X111017214Y-122019761D01*
X111121214Y-121950271D01*
X111178996Y-121926337D01*
X111236777Y-121902403D01*
X111359458Y-121878000D01*
X111484542Y-121878000D01*
X111607223Y-121902403D01*
G37*
G36*
X96367223Y-121902403D02*
G01*
X96425004Y-121926337D01*
X96482786Y-121950271D01*
X96586786Y-122019761D01*
X96675239Y-122108214D01*
X96744729Y-122212214D01*
X96744729Y-122212215D01*
X96792597Y-122327777D01*
X96806610Y-122398223D01*
X96817000Y-122450459D01*
X96817000Y-122575541D01*
X96792597Y-122698222D01*
X96744729Y-122813786D01*
X96675239Y-122917786D01*
X96586786Y-123006239D01*
X96482786Y-123075729D01*
X96425004Y-123099663D01*
X96367223Y-123123597D01*
X96244542Y-123148000D01*
X96119458Y-123148000D01*
X95996777Y-123123597D01*
X95938996Y-123099663D01*
X95881214Y-123075729D01*
X95777214Y-123006239D01*
X95688761Y-122917786D01*
X95619271Y-122813786D01*
X95571403Y-122698222D01*
X95547000Y-122575541D01*
X95547000Y-122450459D01*
X95557390Y-122398223D01*
X95571403Y-122327777D01*
X95619271Y-122212215D01*
X95619271Y-122212214D01*
X95688761Y-122108214D01*
X95777214Y-122019761D01*
X95881214Y-121950271D01*
X95938996Y-121926337D01*
X95996777Y-121902403D01*
X96119458Y-121878000D01*
X96244542Y-121878000D01*
X96367223Y-121902403D01*
G37*
G36*
X107961116Y-121596595D02*
G01*
X107990311Y-121605452D01*
X108017223Y-121619837D01*
X108040808Y-121639192D01*
X108060163Y-121662777D01*
X108074548Y-121689689D01*
X108083405Y-121718884D01*
X108087000Y-121755390D01*
X108087000Y-122305610D01*
X108083405Y-122342116D01*
X108074548Y-122371311D01*
X108060163Y-122398223D01*
X108040808Y-122421808D01*
X108017223Y-122441163D01*
X107990311Y-122455548D01*
X107961116Y-122464405D01*
X107924610Y-122468000D01*
X107299390Y-122468000D01*
X107262884Y-122464405D01*
X107233689Y-122455548D01*
X107206777Y-122441163D01*
X107183192Y-122421808D01*
X107163837Y-122398223D01*
X107149452Y-122371311D01*
X107140595Y-122342116D01*
X107137000Y-122305610D01*
X107137000Y-121755390D01*
X107140595Y-121718884D01*
X107149452Y-121689689D01*
X107163837Y-121662777D01*
X107183192Y-121639192D01*
X107206777Y-121619837D01*
X107233689Y-121605452D01*
X107262884Y-121596595D01*
X107299390Y-121593000D01*
X107924610Y-121593000D01*
X107961116Y-121596595D01*
G37*
G36*
X100340616Y-121596595D02*
G01*
X100369811Y-121605452D01*
X100396723Y-121619837D01*
X100420308Y-121639192D01*
X100439663Y-121662777D01*
X100454048Y-121689689D01*
X100462905Y-121718884D01*
X100466500Y-121755390D01*
X100466500Y-122305610D01*
X100462905Y-122342116D01*
X100454048Y-122371311D01*
X100439663Y-122398223D01*
X100420308Y-122421808D01*
X100396723Y-122441163D01*
X100369811Y-122455548D01*
X100340616Y-122464405D01*
X100304110Y-122468000D01*
X99678890Y-122468000D01*
X99642384Y-122464405D01*
X99613189Y-122455548D01*
X99586277Y-122441163D01*
X99562692Y-122421808D01*
X99543337Y-122398223D01*
X99528952Y-122371311D01*
X99520095Y-122342116D01*
X99516500Y-122305610D01*
X99516500Y-121755390D01*
X99520095Y-121718884D01*
X99528952Y-121689689D01*
X99543337Y-121662777D01*
X99562692Y-121639192D01*
X99586277Y-121619837D01*
X99613189Y-121605452D01*
X99642384Y-121596595D01*
X99678890Y-121593000D01*
X100304110Y-121593000D01*
X100340616Y-121596595D01*
G37*
G36*
X105902000Y-121843000D02*
G01*
X105002000Y-121843000D01*
X105002000Y-120643000D01*
X105902000Y-120643000D01*
X105902000Y-121843000D01*
G37*
G36*
X102602000Y-121843000D02*
G01*
X101702000Y-121843000D01*
X101702000Y-120643000D01*
X102602000Y-120643000D01*
X102602000Y-121843000D01*
G37*
G36*
X100340616Y-120021595D02*
G01*
X100369811Y-120030452D01*
X100396723Y-120044837D01*
X100420308Y-120064192D01*
X100439663Y-120087777D01*
X100454048Y-120114689D01*
X100462905Y-120143884D01*
X100466500Y-120180390D01*
X100466500Y-120730610D01*
X100462905Y-120767116D01*
X100454048Y-120796311D01*
X100439663Y-120823223D01*
X100420308Y-120846808D01*
X100396723Y-120866163D01*
X100369811Y-120880548D01*
X100340616Y-120889405D01*
X100304110Y-120893000D01*
X99678890Y-120893000D01*
X99642384Y-120889405D01*
X99613189Y-120880548D01*
X99586277Y-120866163D01*
X99562692Y-120846808D01*
X99543337Y-120823223D01*
X99528952Y-120796311D01*
X99520095Y-120767116D01*
X99516500Y-120730610D01*
X99516500Y-120180390D01*
X99520095Y-120143884D01*
X99528952Y-120114689D01*
X99543337Y-120087777D01*
X99562692Y-120064192D01*
X99586277Y-120044837D01*
X99613189Y-120030452D01*
X99642384Y-120021595D01*
X99678890Y-120018000D01*
X100304110Y-120018000D01*
X100340616Y-120021595D01*
G37*
G36*
X107961116Y-120021595D02*
G01*
X107990311Y-120030452D01*
X108017223Y-120044837D01*
X108040808Y-120064192D01*
X108060163Y-120087777D01*
X108074548Y-120114689D01*
X108083405Y-120143884D01*
X108087000Y-120180390D01*
X108087000Y-120730610D01*
X108083405Y-120767116D01*
X108074548Y-120796311D01*
X108060163Y-120823223D01*
X108040808Y-120846808D01*
X108017223Y-120866163D01*
X107990311Y-120880548D01*
X107961116Y-120889405D01*
X107924610Y-120893000D01*
X107299390Y-120893000D01*
X107262884Y-120889405D01*
X107233689Y-120880548D01*
X107206777Y-120866163D01*
X107183192Y-120846808D01*
X107163837Y-120823223D01*
X107149452Y-120796311D01*
X107140595Y-120767116D01*
X107137000Y-120730610D01*
X107137000Y-120180390D01*
X107140595Y-120143884D01*
X107149452Y-120114689D01*
X107163837Y-120087777D01*
X107183192Y-120064192D01*
X107206777Y-120044837D01*
X107233689Y-120030452D01*
X107262884Y-120021595D01*
X107299390Y-120018000D01*
X107924610Y-120018000D01*
X107961116Y-120021595D01*
G37*
G36*
X111607223Y-119362403D02*
G01*
X111665004Y-119386337D01*
X111722786Y-119410271D01*
X111826786Y-119479761D01*
X111915239Y-119568214D01*
X111984729Y-119672214D01*
X111984729Y-119672215D01*
X112032597Y-119787777D01*
X112057000Y-119910458D01*
X112057000Y-120035542D01*
X112041151Y-120115219D01*
X112032597Y-120158222D01*
X111984729Y-120273786D01*
X111915239Y-120377786D01*
X111826786Y-120466239D01*
X111722786Y-120535729D01*
X111665004Y-120559663D01*
X111607223Y-120583597D01*
X111484542Y-120608000D01*
X111359458Y-120608000D01*
X111236777Y-120583597D01*
X111178996Y-120559663D01*
X111121214Y-120535729D01*
X111017214Y-120466239D01*
X110928761Y-120377786D01*
X110859271Y-120273786D01*
X110811403Y-120158222D01*
X110802744Y-120114689D01*
X110790096Y-120051105D01*
X110782983Y-120027657D01*
X110771432Y-120006047D01*
X110755886Y-119987105D01*
X110738699Y-119973000D01*
X110755887Y-119958895D01*
X110771432Y-119939953D01*
X110782983Y-119918342D01*
X110790096Y-119894894D01*
X110811403Y-119787778D01*
X110859271Y-119672214D01*
X110928761Y-119568214D01*
X111017214Y-119479761D01*
X111121214Y-119410271D01*
X111178996Y-119386337D01*
X111236777Y-119362403D01*
X111359458Y-119338000D01*
X111484542Y-119338000D01*
X111607223Y-119362403D01*
G37*
G36*
X96367223Y-119362403D02*
G01*
X96425004Y-119386337D01*
X96482786Y-119410271D01*
X96586786Y-119479761D01*
X96675239Y-119568214D01*
X96744729Y-119672214D01*
X96792597Y-119787778D01*
X96813404Y-119892381D01*
X96820517Y-119915830D01*
X96832068Y-119937440D01*
X96847614Y-119956382D01*
X96866556Y-119971927D01*
X96868563Y-119973000D01*
X96866555Y-119974073D01*
X96847613Y-119989618D01*
X96832068Y-120008560D01*
X96820517Y-120030171D01*
X96813405Y-120053617D01*
X96801151Y-120115219D01*
X96792597Y-120158222D01*
X96744729Y-120273786D01*
X96675239Y-120377786D01*
X96586786Y-120466239D01*
X96482786Y-120535729D01*
X96425004Y-120559663D01*
X96367223Y-120583597D01*
X96244542Y-120608000D01*
X96119458Y-120608000D01*
X95996777Y-120583597D01*
X95938996Y-120559663D01*
X95881214Y-120535729D01*
X95777214Y-120466239D01*
X95688761Y-120377786D01*
X95619271Y-120273786D01*
X95571403Y-120158222D01*
X95562849Y-120115219D01*
X95547000Y-120035542D01*
X95547000Y-119910458D01*
X95571403Y-119787777D01*
X95619271Y-119672215D01*
X95619271Y-119672214D01*
X95688761Y-119568214D01*
X95777214Y-119479761D01*
X95881214Y-119410271D01*
X95938996Y-119386337D01*
X95996777Y-119362403D01*
X96119458Y-119338000D01*
X96244542Y-119338000D01*
X96367223Y-119362403D01*
G37*
G36*
X98096000Y-120544500D02*
G01*
X97061000Y-120544500D01*
X97061000Y-120078006D01*
X97058598Y-120053620D01*
X97051485Y-120030171D01*
X97039934Y-120008560D01*
X97024389Y-119989618D01*
X97005447Y-119974073D01*
X97003440Y-119973000D01*
X97005447Y-119971927D01*
X97024389Y-119956381D01*
X97039934Y-119937439D01*
X97051485Y-119915829D01*
X97058598Y-119892380D01*
X97061000Y-119867994D01*
X97061000Y-119401500D01*
X98096000Y-119401500D01*
X98096000Y-120544500D01*
G37*
G36*
X110542500Y-119870507D02*
G01*
X110544902Y-119894893D01*
X110552015Y-119918342D01*
X110563566Y-119939953D01*
X110579111Y-119958895D01*
X110596298Y-119973000D01*
X110579111Y-119987106D01*
X110563566Y-120006048D01*
X110552015Y-120027659D01*
X110544902Y-120051108D01*
X110542500Y-120075493D01*
X110542500Y-120544500D01*
X109507500Y-120544500D01*
X109507500Y-119401500D01*
X110542500Y-119401500D01*
X110542500Y-119870507D01*
G37*
G36*
X100151116Y-117596595D02*
G01*
X100180311Y-117605452D01*
X100207223Y-117619837D01*
X100230808Y-117639192D01*
X100250163Y-117662777D01*
X100264548Y-117689689D01*
X100273405Y-117718884D01*
X100277000Y-117755390D01*
X100277000Y-118380610D01*
X100273405Y-118417116D01*
X100264548Y-118446311D01*
X100250163Y-118473223D01*
X100230808Y-118496808D01*
X100207223Y-118516163D01*
X100180311Y-118530548D01*
X100151116Y-118539405D01*
X100114610Y-118543000D01*
X99564390Y-118543000D01*
X99527884Y-118539405D01*
X99498689Y-118530548D01*
X99471777Y-118516163D01*
X99448192Y-118496808D01*
X99428837Y-118473223D01*
X99414452Y-118446311D01*
X99405595Y-118417116D01*
X99402000Y-118380610D01*
X99402000Y-117755390D01*
X99405595Y-117718884D01*
X99414452Y-117689689D01*
X99428837Y-117662777D01*
X99448192Y-117639192D01*
X99471777Y-117619837D01*
X99498689Y-117605452D01*
X99527884Y-117596595D01*
X99564390Y-117593000D01*
X100114610Y-117593000D01*
X100151116Y-117596595D01*
G37*
G36*
X108076116Y-117596595D02*
G01*
X108105311Y-117605452D01*
X108132223Y-117619837D01*
X108155808Y-117639192D01*
X108175163Y-117662777D01*
X108189548Y-117689689D01*
X108198405Y-117718884D01*
X108202000Y-117755390D01*
X108202000Y-118380610D01*
X108198405Y-118417116D01*
X108189548Y-118446311D01*
X108175163Y-118473223D01*
X108155808Y-118496808D01*
X108132223Y-118516163D01*
X108105311Y-118530548D01*
X108076116Y-118539405D01*
X108039610Y-118543000D01*
X107489390Y-118543000D01*
X107452884Y-118539405D01*
X107423689Y-118530548D01*
X107396777Y-118516163D01*
X107373192Y-118496808D01*
X107353837Y-118473223D01*
X107339452Y-118446311D01*
X107330595Y-118417116D01*
X107327000Y-118380610D01*
X107327000Y-117755390D01*
X107330595Y-117718884D01*
X107339452Y-117689689D01*
X107353837Y-117662777D01*
X107373192Y-117639192D01*
X107396777Y-117619837D01*
X107423689Y-117605452D01*
X107452884Y-117596595D01*
X107489390Y-117593000D01*
X108039610Y-117593000D01*
X108076116Y-117596595D01*
G37*
G36*
X101726116Y-117596595D02*
G01*
X101755311Y-117605452D01*
X101782223Y-117619837D01*
X101805808Y-117639192D01*
X101825163Y-117662777D01*
X101839548Y-117689689D01*
X101848405Y-117718884D01*
X101852000Y-117755390D01*
X101852000Y-118380610D01*
X101848405Y-118417116D01*
X101839548Y-118446311D01*
X101825163Y-118473223D01*
X101805808Y-118496808D01*
X101782223Y-118516163D01*
X101755311Y-118530548D01*
X101726116Y-118539405D01*
X101689610Y-118543000D01*
X101139390Y-118543000D01*
X101102884Y-118539405D01*
X101073689Y-118530548D01*
X101046777Y-118516163D01*
X101023192Y-118496808D01*
X101003837Y-118473223D01*
X100989452Y-118446311D01*
X100980595Y-118417116D01*
X100977000Y-118380610D01*
X100977000Y-117755390D01*
X100980595Y-117718884D01*
X100989452Y-117689689D01*
X101003837Y-117662777D01*
X101023192Y-117639192D01*
X101046777Y-117619837D01*
X101073689Y-117605452D01*
X101102884Y-117596595D01*
X101139390Y-117593000D01*
X101689610Y-117593000D01*
X101726116Y-117596595D01*
G37*
G36*
X106501116Y-117596595D02*
G01*
X106530311Y-117605452D01*
X106557223Y-117619837D01*
X106580808Y-117639192D01*
X106600163Y-117662777D01*
X106614548Y-117689689D01*
X106623405Y-117718884D01*
X106627000Y-117755390D01*
X106627000Y-118380610D01*
X106623405Y-118417116D01*
X106614548Y-118446311D01*
X106600163Y-118473223D01*
X106580808Y-118496808D01*
X106557223Y-118516163D01*
X106530311Y-118530548D01*
X106501116Y-118539405D01*
X106464610Y-118543000D01*
X105914390Y-118543000D01*
X105877884Y-118539405D01*
X105848689Y-118530548D01*
X105821777Y-118516163D01*
X105798192Y-118496808D01*
X105778837Y-118473223D01*
X105764452Y-118446311D01*
X105755595Y-118417116D01*
X105752000Y-118380610D01*
X105752000Y-117755390D01*
X105755595Y-117718884D01*
X105764452Y-117689689D01*
X105778837Y-117662777D01*
X105798192Y-117639192D01*
X105821777Y-117619837D01*
X105848689Y-117605452D01*
X105877884Y-117596595D01*
X105914390Y-117593000D01*
X106464610Y-117593000D01*
X106501116Y-117596595D01*
G37*
G36*
X96367223Y-116822403D02*
G01*
X96425004Y-116846337D01*
X96482786Y-116870271D01*
X96586786Y-116939761D01*
X96675239Y-117028214D01*
X96744729Y-117132214D01*
X96792597Y-117247778D01*
X96813404Y-117352381D01*
X96820517Y-117375830D01*
X96832068Y-117397440D01*
X96847614Y-117416382D01*
X96866556Y-117431927D01*
X96868563Y-117433000D01*
X96866555Y-117434073D01*
X96847613Y-117449618D01*
X96832068Y-117468560D01*
X96820517Y-117490171D01*
X96813404Y-117513619D01*
X96792597Y-117618222D01*
X96744729Y-117733786D01*
X96675239Y-117837786D01*
X96586786Y-117926239D01*
X96482786Y-117995729D01*
X96425004Y-118019663D01*
X96367223Y-118043597D01*
X96244542Y-118068000D01*
X96119458Y-118068000D01*
X95996777Y-118043597D01*
X95938996Y-118019663D01*
X95881214Y-117995729D01*
X95777214Y-117926239D01*
X95688761Y-117837786D01*
X95619271Y-117733786D01*
X95571403Y-117618222D01*
X95547000Y-117495541D01*
X95547000Y-117370459D01*
X95571403Y-117247778D01*
X95619271Y-117132214D01*
X95688761Y-117028214D01*
X95777214Y-116939761D01*
X95881214Y-116870271D01*
X95938996Y-116846337D01*
X95996777Y-116822403D01*
X96119458Y-116798000D01*
X96244542Y-116798000D01*
X96367223Y-116822403D01*
G37*
G36*
X111607223Y-116822403D02*
G01*
X111665004Y-116846337D01*
X111722786Y-116870271D01*
X111826786Y-116939761D01*
X111915239Y-117028214D01*
X111984729Y-117132214D01*
X112032597Y-117247778D01*
X112057000Y-117370459D01*
X112057000Y-117495541D01*
X112032597Y-117618222D01*
X111984729Y-117733786D01*
X111915239Y-117837786D01*
X111826786Y-117926239D01*
X111722786Y-117995729D01*
X111665004Y-118019663D01*
X111607223Y-118043597D01*
X111484542Y-118068000D01*
X111359458Y-118068000D01*
X111236777Y-118043597D01*
X111178996Y-118019663D01*
X111121214Y-117995729D01*
X111017214Y-117926239D01*
X110928761Y-117837786D01*
X110859271Y-117733786D01*
X110811403Y-117618222D01*
X110790096Y-117511106D01*
X110782983Y-117487657D01*
X110771432Y-117466047D01*
X110755886Y-117447105D01*
X110738699Y-117433000D01*
X110755887Y-117418895D01*
X110771432Y-117399953D01*
X110782983Y-117378342D01*
X110790096Y-117354894D01*
X110811403Y-117247778D01*
X110859271Y-117132214D01*
X110928761Y-117028214D01*
X111017214Y-116939761D01*
X111121214Y-116870271D01*
X111178996Y-116846337D01*
X111236777Y-116822403D01*
X111359458Y-116798000D01*
X111484542Y-116798000D01*
X111607223Y-116822403D01*
G37*
G36*
X110542500Y-117330507D02*
G01*
X110544902Y-117354893D01*
X110552015Y-117378342D01*
X110563566Y-117399953D01*
X110579111Y-117418895D01*
X110596298Y-117433000D01*
X110579111Y-117447106D01*
X110563566Y-117466048D01*
X110552015Y-117487659D01*
X110544902Y-117511108D01*
X110542500Y-117535493D01*
X110542500Y-118004500D01*
X109507500Y-118004500D01*
X109507500Y-116861500D01*
X110542500Y-116861500D01*
X110542500Y-117330507D01*
G37*
G36*
X98096000Y-118004500D02*
G01*
X97061000Y-118004500D01*
X97061000Y-117538006D01*
X97058598Y-117513620D01*
X97051485Y-117490171D01*
X97039934Y-117468560D01*
X97024389Y-117449618D01*
X97005447Y-117434073D01*
X97003440Y-117433000D01*
X97005447Y-117431927D01*
X97024389Y-117416381D01*
X97039934Y-117397439D01*
X97051485Y-117375829D01*
X97058598Y-117352380D01*
X97061000Y-117327994D01*
X97061000Y-116861500D01*
X98096000Y-116861500D01*
X98096000Y-118004500D01*
G37*
G36*
X107327000Y-116963000D02*
G01*
X105952000Y-116963000D01*
X105952000Y-115513000D01*
X107327000Y-115513000D01*
X107327000Y-116963000D01*
G37*
G36*
X101652000Y-116963000D02*
G01*
X100277000Y-116963000D01*
X100277000Y-115513000D01*
X101652000Y-115513000D01*
X101652000Y-116963000D01*
G37*
G36*
X105702000Y-116963000D02*
G01*
X101902000Y-116963000D01*
X101902000Y-115513000D01*
X105702000Y-115513000D01*
X105702000Y-116963000D01*
G37*
G36*
X99580015Y-114280234D02*
G01*
X99674270Y-114308826D01*
X99761128Y-114355253D01*
X99837264Y-114417736D01*
X99899747Y-114493872D01*
X99946174Y-114580730D01*
X99974766Y-114674985D01*
X99982000Y-114748436D01*
X99982000Y-115897564D01*
X99974766Y-115971015D01*
X99946174Y-116065270D01*
X99899747Y-116152128D01*
X99899746Y-116152129D01*
X99837264Y-116228264D01*
X99761129Y-116290746D01*
X99761127Y-116290747D01*
X99674269Y-116337174D01*
X99580014Y-116365766D01*
X99482000Y-116375419D01*
X99383985Y-116365766D01*
X99289730Y-116337174D01*
X99202872Y-116290747D01*
X99189219Y-116279542D01*
X99126736Y-116228264D01*
X99064254Y-116152129D01*
X99017827Y-116065270D01*
X99017826Y-116065269D01*
X98989234Y-115971014D01*
X98982000Y-115897563D01*
X98982001Y-114748436D01*
X98989235Y-114674985D01*
X99017827Y-114580730D01*
X99064254Y-114493872D01*
X99126737Y-114417736D01*
X99202873Y-114355253D01*
X99289731Y-114308826D01*
X99383986Y-114280234D01*
X99482000Y-114270581D01*
X99580015Y-114280234D01*
G37*
G36*
X108220015Y-114280234D02*
G01*
X108314270Y-114308826D01*
X108401128Y-114355253D01*
X108477264Y-114417736D01*
X108539747Y-114493872D01*
X108586174Y-114580730D01*
X108614766Y-114674985D01*
X108622000Y-114748436D01*
X108622000Y-115897564D01*
X108614766Y-115971015D01*
X108586174Y-116065270D01*
X108539747Y-116152128D01*
X108539746Y-116152129D01*
X108477264Y-116228264D01*
X108401129Y-116290746D01*
X108401127Y-116290747D01*
X108314269Y-116337174D01*
X108220014Y-116365766D01*
X108122000Y-116375419D01*
X108023985Y-116365766D01*
X107929730Y-116337174D01*
X107842872Y-116290747D01*
X107829219Y-116279542D01*
X107766736Y-116228264D01*
X107704254Y-116152129D01*
X107657827Y-116065270D01*
X107657826Y-116065269D01*
X107629234Y-115971014D01*
X107622000Y-115897563D01*
X107622001Y-114748436D01*
X107629235Y-114674985D01*
X107657827Y-114580730D01*
X107704254Y-114493872D01*
X107766737Y-114417736D01*
X107842873Y-114355253D01*
X107929731Y-114308826D01*
X108023986Y-114280234D01*
X108122000Y-114270581D01*
X108220015Y-114280234D01*
G37*
G36*
X96367223Y-114282403D02*
G01*
X96425004Y-114306337D01*
X96482786Y-114330271D01*
X96586786Y-114399761D01*
X96675239Y-114488214D01*
X96744729Y-114592214D01*
X96744729Y-114592215D01*
X96792597Y-114707777D01*
X96800685Y-114748436D01*
X96813404Y-114812381D01*
X96820517Y-114835830D01*
X96832068Y-114857440D01*
X96847614Y-114876382D01*
X96866556Y-114891927D01*
X96868563Y-114893000D01*
X96866555Y-114894073D01*
X96847613Y-114909618D01*
X96832068Y-114928560D01*
X96820517Y-114950171D01*
X96813405Y-114973617D01*
X96792597Y-115078223D01*
X96768663Y-115136004D01*
X96744729Y-115193786D01*
X96675239Y-115297786D01*
X96586786Y-115386239D01*
X96482786Y-115455729D01*
X96425004Y-115479663D01*
X96367223Y-115503597D01*
X96244542Y-115528000D01*
X96119458Y-115528000D01*
X95996777Y-115503597D01*
X95938996Y-115479663D01*
X95881214Y-115455729D01*
X95777214Y-115386239D01*
X95688761Y-115297786D01*
X95619271Y-115193786D01*
X95595337Y-115136004D01*
X95571403Y-115078223D01*
X95547000Y-114955542D01*
X95547000Y-114830458D01*
X95571403Y-114707777D01*
X95619271Y-114592215D01*
X95619271Y-114592214D01*
X95688761Y-114488214D01*
X95777214Y-114399761D01*
X95881214Y-114330271D01*
X95938996Y-114306337D01*
X95996777Y-114282403D01*
X96119458Y-114258000D01*
X96244542Y-114258000D01*
X96367223Y-114282403D01*
G37*
G36*
X111607223Y-114282403D02*
G01*
X111665004Y-114306337D01*
X111722786Y-114330271D01*
X111826786Y-114399761D01*
X111915239Y-114488214D01*
X111984729Y-114592214D01*
X111984729Y-114592215D01*
X112032597Y-114707777D01*
X112057000Y-114830458D01*
X112057000Y-114955542D01*
X112032597Y-115078223D01*
X112008663Y-115136004D01*
X111984729Y-115193786D01*
X111915239Y-115297786D01*
X111826786Y-115386239D01*
X111722786Y-115455729D01*
X111665004Y-115479663D01*
X111607223Y-115503597D01*
X111484542Y-115528000D01*
X111359458Y-115528000D01*
X111236777Y-115503597D01*
X111178996Y-115479663D01*
X111121214Y-115455729D01*
X111017214Y-115386239D01*
X110928761Y-115297786D01*
X110859271Y-115193786D01*
X110835337Y-115136004D01*
X110811403Y-115078223D01*
X110790096Y-114971105D01*
X110782983Y-114947657D01*
X110771432Y-114926047D01*
X110755886Y-114907105D01*
X110738699Y-114893000D01*
X110755887Y-114878895D01*
X110771432Y-114859953D01*
X110782983Y-114838342D01*
X110790096Y-114814894D01*
X110803315Y-114748440D01*
X110811403Y-114707777D01*
X110859271Y-114592215D01*
X110859271Y-114592214D01*
X110928761Y-114488214D01*
X111017214Y-114399761D01*
X111121214Y-114330271D01*
X111178996Y-114306337D01*
X111236777Y-114282403D01*
X111359458Y-114258000D01*
X111484542Y-114258000D01*
X111607223Y-114282403D01*
G37*
G36*
X110542500Y-114790507D02*
G01*
X110544902Y-114814893D01*
X110552015Y-114838342D01*
X110563566Y-114859953D01*
X110579111Y-114878895D01*
X110596298Y-114893000D01*
X110579111Y-114907106D01*
X110563566Y-114926048D01*
X110552015Y-114947659D01*
X110544902Y-114971108D01*
X110542500Y-114995493D01*
X110542500Y-115464500D01*
X109507500Y-115464500D01*
X109507500Y-114321500D01*
X110542500Y-114321500D01*
X110542500Y-114790507D01*
G37*
G36*
X98096000Y-115464500D02*
G01*
X97061000Y-115464500D01*
X97061000Y-114998006D01*
X97058598Y-114973620D01*
X97051485Y-114950171D01*
X97039934Y-114928560D01*
X97024389Y-114909618D01*
X97005447Y-114894073D01*
X97003440Y-114893000D01*
X97005447Y-114891927D01*
X97024389Y-114876381D01*
X97039934Y-114857439D01*
X97051485Y-114835829D01*
X97058598Y-114812380D01*
X97061000Y-114787994D01*
X97061000Y-114321500D01*
X98096000Y-114321500D01*
X98096000Y-115464500D01*
G37*
G36*
X106786799Y-114480489D02*
G01*
X106845945Y-114504988D01*
X106899176Y-114540556D01*
X106944444Y-114585824D01*
X106980012Y-114639055D01*
X107004511Y-114698201D01*
X107017000Y-114760990D01*
X107017000Y-114825010D01*
X107004511Y-114887799D01*
X106980012Y-114946945D01*
X106944444Y-115000176D01*
X106899176Y-115045444D01*
X106845945Y-115081012D01*
X106786799Y-115105511D01*
X106724010Y-115118000D01*
X106659990Y-115118000D01*
X106597201Y-115105511D01*
X106538055Y-115081012D01*
X106484824Y-115045444D01*
X106439556Y-115000176D01*
X106403988Y-114946945D01*
X106379489Y-114887799D01*
X106367000Y-114825010D01*
X106367000Y-114760990D01*
X106379489Y-114698201D01*
X106403988Y-114639055D01*
X106439556Y-114585824D01*
X106484824Y-114540556D01*
X106538055Y-114504988D01*
X106597201Y-114480489D01*
X106659990Y-114468000D01*
X106724010Y-114468000D01*
X106786799Y-114480489D01*
G37*
G36*
X101006799Y-114480489D02*
G01*
X101065945Y-114504988D01*
X101119176Y-114540556D01*
X101164444Y-114585824D01*
X101200012Y-114639055D01*
X101224511Y-114698201D01*
X101237000Y-114760990D01*
X101237000Y-114825010D01*
X101224511Y-114887799D01*
X101200012Y-114946945D01*
X101164444Y-115000176D01*
X101119176Y-115045444D01*
X101065945Y-115081012D01*
X101006799Y-115105511D01*
X100944010Y-115118000D01*
X100879990Y-115118000D01*
X100817201Y-115105511D01*
X100758055Y-115081012D01*
X100704824Y-115045444D01*
X100659556Y-115000176D01*
X100623988Y-114946945D01*
X100599489Y-114887799D01*
X100587000Y-114825010D01*
X100587000Y-114760990D01*
X100599489Y-114698201D01*
X100623988Y-114639055D01*
X100659556Y-114585824D01*
X100704824Y-114540556D01*
X100758055Y-114504988D01*
X100817201Y-114480489D01*
X100879990Y-114468000D01*
X100944010Y-114468000D01*
X101006799Y-114480489D01*
G37*
G36*
X96367223Y-111742403D02*
G01*
X96425004Y-111766337D01*
X96482786Y-111790271D01*
X96586786Y-111859761D01*
X96675239Y-111948214D01*
X96744729Y-112052214D01*
X96792597Y-112167778D01*
X96813404Y-112272381D01*
X96820517Y-112295830D01*
X96832068Y-112317440D01*
X96847614Y-112336382D01*
X96866556Y-112351927D01*
X96868563Y-112353000D01*
X96866555Y-112354073D01*
X96847613Y-112369618D01*
X96832068Y-112388560D01*
X96820517Y-112410171D01*
X96813404Y-112433619D01*
X96792597Y-112538222D01*
X96744729Y-112653786D01*
X96675239Y-112757786D01*
X96586786Y-112846239D01*
X96482786Y-112915729D01*
X96425004Y-112939663D01*
X96367223Y-112963597D01*
X96244542Y-112988000D01*
X96119458Y-112988000D01*
X95996777Y-112963597D01*
X95938996Y-112939663D01*
X95881214Y-112915729D01*
X95777214Y-112846239D01*
X95688761Y-112757786D01*
X95619271Y-112653786D01*
X95571403Y-112538222D01*
X95547000Y-112415541D01*
X95547000Y-112290459D01*
X95571403Y-112167778D01*
X95619271Y-112052214D01*
X95688761Y-111948214D01*
X95777214Y-111859761D01*
X95881214Y-111790271D01*
X95938996Y-111766337D01*
X95996777Y-111742403D01*
X96119458Y-111718000D01*
X96244542Y-111718000D01*
X96367223Y-111742403D01*
G37*
G36*
X112047000Y-112978000D02*
G01*
X110797000Y-112978000D01*
X110797000Y-111728000D01*
X112047000Y-111728000D01*
X112047000Y-112978000D01*
G37*
G36*
X98096000Y-112924500D02*
G01*
X97061000Y-112924500D01*
X97061000Y-112458006D01*
X97058598Y-112433620D01*
X97051485Y-112410171D01*
X97039934Y-112388560D01*
X97024389Y-112369618D01*
X97005447Y-112354073D01*
X97003440Y-112353000D01*
X97005447Y-112351927D01*
X97024389Y-112336381D01*
X97039934Y-112317439D01*
X97051485Y-112295829D01*
X97058598Y-112272380D01*
X97061000Y-112247994D01*
X97061000Y-111781500D01*
X98096000Y-111781500D01*
X98096000Y-112924500D01*
G37*
G36*
X110542500Y-112924500D02*
G01*
X109507500Y-112924500D01*
X109507500Y-111781500D01*
X110542500Y-111781500D01*
X110542500Y-112924500D01*
G37*
G36*
X108220015Y-110350234D02*
G01*
X108314270Y-110378826D01*
X108401128Y-110425253D01*
X108477264Y-110487736D01*
X108539747Y-110563872D01*
X108586174Y-110650730D01*
X108614766Y-110744985D01*
X108622000Y-110818436D01*
X108622000Y-111467564D01*
X108614766Y-111541015D01*
X108586174Y-111635270D01*
X108539747Y-111722128D01*
X108539746Y-111722129D01*
X108477264Y-111798264D01*
X108401129Y-111860746D01*
X108401127Y-111860747D01*
X108314269Y-111907174D01*
X108220014Y-111935766D01*
X108122000Y-111945419D01*
X108023985Y-111935766D01*
X107929730Y-111907174D01*
X107842872Y-111860747D01*
X107829219Y-111849542D01*
X107766736Y-111798264D01*
X107704254Y-111722129D01*
X107657827Y-111635270D01*
X107657826Y-111635269D01*
X107629234Y-111541014D01*
X107622000Y-111467563D01*
X107622000Y-110818436D01*
X107629234Y-110744985D01*
X107657825Y-110650732D01*
X107704255Y-110563870D01*
X107766737Y-110487736D01*
X107842873Y-110425253D01*
X107929731Y-110378826D01*
X108023986Y-110350234D01*
X108122000Y-110340581D01*
X108220015Y-110350234D01*
G37*
G36*
X99580015Y-110350234D02*
G01*
X99674270Y-110378826D01*
X99761128Y-110425253D01*
X99837264Y-110487736D01*
X99899747Y-110563872D01*
X99946174Y-110650730D01*
X99974766Y-110744985D01*
X99982000Y-110818436D01*
X99982000Y-111467564D01*
X99974766Y-111541015D01*
X99946174Y-111635270D01*
X99899747Y-111722128D01*
X99899746Y-111722129D01*
X99837264Y-111798264D01*
X99761129Y-111860746D01*
X99761127Y-111860747D01*
X99674269Y-111907174D01*
X99580014Y-111935766D01*
X99482000Y-111945419D01*
X99383985Y-111935766D01*
X99289730Y-111907174D01*
X99202872Y-111860747D01*
X99189219Y-111849542D01*
X99126736Y-111798264D01*
X99064254Y-111722129D01*
X99017827Y-111635270D01*
X99017826Y-111635269D01*
X98989234Y-111541014D01*
X98982000Y-111467563D01*
X98982000Y-110818436D01*
X98989234Y-110744985D01*
X99017825Y-110650732D01*
X99064255Y-110563870D01*
X99126737Y-110487736D01*
X99202873Y-110425253D01*
X99289731Y-110378826D01*
X99383986Y-110350234D01*
X99482000Y-110340581D01*
X99580015Y-110350234D01*
G37*
G36*
X105303377Y-110181362D02*
G01*
X105354091Y-110191450D01*
X105417787Y-110217834D01*
X105475112Y-110256137D01*
X105523863Y-110304888D01*
X105562166Y-110362213D01*
X105588550Y-110425909D01*
X105602000Y-110493528D01*
X105602000Y-110562472D01*
X105588550Y-110630091D01*
X105562166Y-110693787D01*
X105523863Y-110751112D01*
X105475112Y-110799863D01*
X105417787Y-110838166D01*
X105354091Y-110864550D01*
X105303377Y-110874637D01*
X105286473Y-110878000D01*
X105217527Y-110878000D01*
X105200623Y-110874637D01*
X105149909Y-110864550D01*
X105086213Y-110838166D01*
X105028888Y-110799863D01*
X104980137Y-110751112D01*
X104941834Y-110693787D01*
X104915450Y-110630091D01*
X104902000Y-110562472D01*
X104902000Y-110493528D01*
X104915450Y-110425909D01*
X104941834Y-110362213D01*
X104980137Y-110304888D01*
X105028888Y-110256137D01*
X105086213Y-110217834D01*
X105149909Y-110191450D01*
X105200623Y-110181362D01*
X105217527Y-110178000D01*
X105286473Y-110178000D01*
X105303377Y-110181362D01*
G37*
G36*
X102403377Y-110181362D02*
G01*
X102454091Y-110191450D01*
X102517787Y-110217834D01*
X102575112Y-110256137D01*
X102623863Y-110304888D01*
X102662166Y-110362213D01*
X102688550Y-110425909D01*
X102702000Y-110493528D01*
X102702000Y-110562472D01*
X102688550Y-110630091D01*
X102662166Y-110693787D01*
X102623863Y-110751112D01*
X102575112Y-110799863D01*
X102517787Y-110838166D01*
X102454091Y-110864550D01*
X102403377Y-110874637D01*
X102386473Y-110878000D01*
X102317527Y-110878000D01*
X102300623Y-110874637D01*
X102249909Y-110864550D01*
X102186213Y-110838166D01*
X102128888Y-110799863D01*
X102080137Y-110751112D01*
X102041834Y-110693787D01*
X102015450Y-110630091D01*
X102002000Y-110562472D01*
X102002000Y-110493528D01*
X102015450Y-110425909D01*
X102041834Y-110362213D01*
X102080137Y-110304888D01*
X102128888Y-110256137D01*
X102186213Y-110217834D01*
X102249909Y-110191450D01*
X102300623Y-110181362D01*
X102317527Y-110178000D01*
X102386473Y-110178000D01*
X102403377Y-110181362D01*
G37*
G36*
X111606756Y-109202178D02*
G01*
X111664537Y-109226112D01*
X111722319Y-109250046D01*
X111826319Y-109319536D01*
X111914772Y-109407989D01*
X111984262Y-109511989D01*
X112032130Y-109627553D01*
X112056533Y-109750234D01*
X112056533Y-109875316D01*
X112032130Y-109997997D01*
X111984262Y-110113561D01*
X111914772Y-110217561D01*
X111826319Y-110306014D01*
X111722319Y-110375504D01*
X111664537Y-110399438D01*
X111606756Y-110423372D01*
X111484075Y-110447775D01*
X111358991Y-110447775D01*
X111236310Y-110423372D01*
X111178529Y-110399438D01*
X111120747Y-110375504D01*
X111016747Y-110306014D01*
X110928294Y-110217561D01*
X110858804Y-110113561D01*
X110810936Y-109997997D01*
X110786533Y-109875316D01*
X110786533Y-109750234D01*
X110810936Y-109627553D01*
X110858804Y-109511989D01*
X110928294Y-109407989D01*
X111016747Y-109319536D01*
X111120747Y-109250046D01*
X111178529Y-109226112D01*
X111236310Y-109202178D01*
X111358991Y-109177775D01*
X111484075Y-109177775D01*
X111606756Y-109202178D01*
G37*
G36*
X96816533Y-110447775D02*
G01*
X95546533Y-110447775D01*
X95546533Y-109177775D01*
X96816533Y-109177775D01*
X96816533Y-110447775D01*
G37*
M02*
