M48
; DRILL file {KiCad (5.1.6)-1} date 06/11/20 17:33:46
; FORMAT={-:-/ absolute / inch / decimal}
; #@! TF.CreationDate,2020-06-11T17:33:46+01:00
; #@! TF.GenerationSoftware,Kicad,Pcbnew,(5.1.6)-1
FMAT,2
INCH
T1C0.0157
T2C0.0197
T3C0.0236
T4C0.0335
T5C0.0256
T6C0.0276
%
G90
G05
T1
X3.8542Y-4.571
X3.8767Y-4.6706
X3.8899Y-5.3785
X3.8901Y-5.2786
X3.9842Y-4.8019
X3.9938Y-4.9951
X4.0047Y-5.1476
X4.0346Y-4.5246
X4.0509Y-4.6724
X4.113Y-4.8489
X4.1171Y-5.3729
X4.1538Y-5.1473
X4.181Y-4.6891
X4.191Y-4.7206
X4.2134Y-4.849
X4.2224Y-5.147
X4.2639Y-4.8486
X4.27Y-5.2914
X4.2713Y-4.3045
X4.2931Y-4.4679
X4.3166Y-4.9416
X4.3233Y-4.5806
X4.3233Y-4.6799
X4.3367Y-5.4433
T2
X3.9276Y-5.0557
X3.9276Y-5.1057
X3.9276Y-5.1557
X3.9276Y-5.2057
X3.9276Y-5.2557
X3.9276Y-5.3057
X3.9276Y-5.3557
X3.9276Y-5.4057
X3.9376Y-4.9557
X3.9876Y-4.9557
X4.0376Y-4.9557
X4.0876Y-4.9557
X4.1376Y-4.9557
X4.1876Y-4.9557
X4.2376Y-4.9557
T4
X3.7867Y-4.4233
X3.7867Y-4.5233
X3.7867Y-4.6233
X3.7867Y-4.7233
X3.7867Y-4.8233
X3.7867Y-4.9233
X3.7867Y-5.0233
X3.7867Y-5.1233
X3.7867Y-5.2233
X3.7867Y-5.3233
X3.7867Y-5.4233
X3.7867Y-5.5233
X4.3867Y-4.4233
X4.3867Y-4.5233
X4.3867Y-4.6233
X4.3867Y-4.7233
X4.3867Y-4.8233
X4.3867Y-4.9233
X4.3867Y-5.0233
X4.3867Y-5.1233
X4.3867Y-5.2233
X4.3867Y-5.3233
X4.3867Y-5.4233
X4.3867Y-5.5233
X3.7867Y-4.3233
X4.3867Y-4.3233
T5
X3.9729Y-4.5194
X4.2005Y-4.5194
T6
X4.0296Y-4.3515
X4.1438Y-4.3515
T3
G00X3.9166Y-4.3875
M15
G01X3.9166Y-4.3639
M16
G05
G00X3.9166Y-4.5619
M15
G01X3.9166Y-4.5186
M16
G05
G00X4.2568Y-4.3875
M15
G01X4.2568Y-4.3639
M16
G05
G00X4.2568Y-4.5619
M15
G01X4.2568Y-4.5186
M16
G05
T0
M30
