G04 #@! TF.GenerationSoftware,KiCad,Pcbnew,(5.1.6)-1*
G04 #@! TF.CreationDate,2020-06-11T17:33:57+01:00*
G04 #@! TF.ProjectId,nrfmicro,6e72666d-6963-4726-9f2e-6b696361645f,rev?*
G04 #@! TF.SameCoordinates,Original*
G04 #@! TF.FileFunction,Copper,L1,Top*
G04 #@! TF.FilePolarity,Positive*
%FSLAX46Y46*%
G04 Gerber Fmt 4.6, Leading zero omitted, Abs format (unit mm)*
G04 Created by KiCad (PCBNEW (5.1.6)-1) date 2020-06-11 17:33:57*
%MOMM*%
%LPD*%
G01*
G04 APERTURE LIST*
G04 #@! TA.AperFunction,ComponentPad*
%ADD10R,1.000000X0.650000*%
G04 #@! TD*
G04 #@! TA.AperFunction,SMDPad,CuDef*
%ADD11R,1.000000X0.650000*%
G04 #@! TD*
G04 #@! TA.AperFunction,SMDPad,CuDef*
%ADD12R,0.650000X1.000000*%
G04 #@! TD*
G04 #@! TA.AperFunction,ComponentPad*
%ADD13R,0.650000X1.000000*%
G04 #@! TD*
G04 #@! TA.AperFunction,SMDPad,CuDef*
%ADD14R,0.600000X1.450000*%
G04 #@! TD*
G04 #@! TA.AperFunction,SMDPad,CuDef*
%ADD15R,0.300000X1.450000*%
G04 #@! TD*
G04 #@! TA.AperFunction,ComponentPad*
%ADD16O,1.000000X2.100000*%
G04 #@! TD*
G04 #@! TA.AperFunction,ComponentPad*
%ADD17O,1.000000X1.600000*%
G04 #@! TD*
G04 #@! TA.AperFunction,SMDPad,CuDef*
%ADD18R,0.900000X1.200000*%
G04 #@! TD*
G04 #@! TA.AperFunction,ComponentPad*
%ADD19R,1.250000X1.250000*%
G04 #@! TD*
G04 #@! TA.AperFunction,ComponentPad*
%ADD20C,1.270000*%
G04 #@! TD*
G04 #@! TA.AperFunction,ComponentPad*
%ADD21R,1.270000X1.270000*%
G04 #@! TD*
G04 #@! TA.AperFunction,SMDPad,CuDef*
%ADD22R,0.400000X1.143000*%
G04 #@! TD*
G04 #@! TA.AperFunction,ViaPad*
%ADD23C,0.600000*%
G04 #@! TD*
G04 #@! TA.AperFunction,Conductor*
%ADD24C,0.200000*%
G04 #@! TD*
G04 APERTURE END LIST*
D10*
X99761000Y-128415000D03*
D11*
X109921000Y-126383000D03*
X109921000Y-127653000D03*
X109921000Y-128923000D03*
X109921000Y-130193000D03*
X109921000Y-131463000D03*
X109921000Y-132733000D03*
X109921000Y-134003000D03*
X109921000Y-135273000D03*
X109921000Y-136543000D03*
X109921000Y-137813000D03*
X97683000Y-130193000D03*
X97683000Y-137813000D03*
X97683000Y-131463000D03*
X97683000Y-136543000D03*
X97683000Y-135273000D03*
X97683000Y-134003000D03*
X97683000Y-128923000D03*
X97683000Y-132733000D03*
X97683000Y-127653000D03*
X97683000Y-126383000D03*
D12*
X100652000Y-124164000D03*
X108272000Y-124164000D03*
X101922000Y-124164000D03*
X107002000Y-124164000D03*
X105732000Y-124164000D03*
X104462000Y-124164000D03*
X99382000Y-124164000D03*
X103192000Y-124164000D03*
D10*
X99761000Y-129685000D03*
X99761000Y-130955000D03*
X99761000Y-132225000D03*
X99761000Y-133495000D03*
X99761000Y-134765000D03*
X99761000Y-136035000D03*
X99761000Y-137305000D03*
D13*
X106365000Y-125875000D03*
X107635000Y-125875000D03*
X102555000Y-125875000D03*
X105095000Y-125875000D03*
X101285000Y-125875000D03*
X100015000Y-125875000D03*
X103825000Y-125875000D03*
D14*
X100577000Y-116238000D03*
X107027000Y-116238000D03*
X101352000Y-116238000D03*
X106252000Y-116238000D03*
D15*
X105552000Y-116238000D03*
X102052000Y-116238000D03*
X105052000Y-116238000D03*
X102552000Y-116238000D03*
X104552000Y-116238000D03*
X103052000Y-116238000D03*
X103552000Y-116238000D03*
X104052000Y-116238000D03*
D16*
X108122000Y-115323000D03*
X99482000Y-115323000D03*
D17*
X108122000Y-111143000D03*
X99482000Y-111143000D03*
D18*
X102152000Y-121243000D03*
X105452000Y-121243000D03*
G04 #@! TA.AperFunction,SMDPad,CuDef*
G36*
G01*
X107327000Y-118324250D02*
X107327000Y-117811750D01*
G75*
G02*
X107545750Y-117593000I218750J0D01*
G01*
X107983250Y-117593000D01*
G75*
G02*
X108202000Y-117811750I0J-218750D01*
G01*
X108202000Y-118324250D01*
G75*
G02*
X107983250Y-118543000I-218750J0D01*
G01*
X107545750Y-118543000D01*
G75*
G02*
X107327000Y-118324250I0J218750D01*
G01*
G37*
G04 #@! TD.AperFunction*
G04 #@! TA.AperFunction,SMDPad,CuDef*
G36*
G01*
X105752000Y-118324250D02*
X105752000Y-117811750D01*
G75*
G02*
X105970750Y-117593000I218750J0D01*
G01*
X106408250Y-117593000D01*
G75*
G02*
X106627000Y-117811750I0J-218750D01*
G01*
X106627000Y-118324250D01*
G75*
G02*
X106408250Y-118543000I-218750J0D01*
G01*
X105970750Y-118543000D01*
G75*
G02*
X105752000Y-118324250I0J218750D01*
G01*
G37*
G04 #@! TD.AperFunction*
G04 #@! TA.AperFunction,SMDPad,CuDef*
G36*
G01*
X100277000Y-117811750D02*
X100277000Y-118324250D01*
G75*
G02*
X100058250Y-118543000I-218750J0D01*
G01*
X99620750Y-118543000D01*
G75*
G02*
X99402000Y-118324250I0J218750D01*
G01*
X99402000Y-117811750D01*
G75*
G02*
X99620750Y-117593000I218750J0D01*
G01*
X100058250Y-117593000D01*
G75*
G02*
X100277000Y-117811750I0J-218750D01*
G01*
G37*
G04 #@! TD.AperFunction*
G04 #@! TA.AperFunction,SMDPad,CuDef*
G36*
G01*
X101852000Y-117811750D02*
X101852000Y-118324250D01*
G75*
G02*
X101633250Y-118543000I-218750J0D01*
G01*
X101195750Y-118543000D01*
G75*
G02*
X100977000Y-118324250I0J218750D01*
G01*
X100977000Y-117811750D01*
G75*
G02*
X101195750Y-117593000I218750J0D01*
G01*
X101633250Y-117593000D01*
G75*
G02*
X101852000Y-117811750I0J-218750D01*
G01*
G37*
G04 #@! TD.AperFunction*
D19*
X111422000Y-112353000D03*
D20*
X111422000Y-114893000D03*
X111422000Y-117433000D03*
X111422000Y-119973000D03*
X111422000Y-122513000D03*
X111422000Y-125053000D03*
X111422000Y-127593000D03*
X111422000Y-130133000D03*
X111422000Y-132673000D03*
X111422000Y-135213000D03*
X111422000Y-137753000D03*
X111422000Y-140293000D03*
X96182000Y-140293000D03*
X96182000Y-137753000D03*
X96182000Y-135213000D03*
X96182000Y-132673000D03*
X96182000Y-130133000D03*
X96182000Y-127593000D03*
X96182000Y-125053000D03*
X96182000Y-122513000D03*
X96182000Y-119973000D03*
X96182000Y-117433000D03*
X96182000Y-114893000D03*
X96182000Y-112353000D03*
X111421533Y-109812775D03*
D21*
X96181533Y-109812775D03*
D22*
X97261000Y-112353000D03*
X97896000Y-112353000D03*
X97261000Y-117433000D03*
X97896000Y-117433000D03*
X110342500Y-112353000D03*
X109707500Y-112353000D03*
X110342500Y-119973000D03*
X109707500Y-119973000D03*
X97261000Y-114893000D03*
X97896000Y-114893000D03*
X97261000Y-119973000D03*
X97896000Y-119973000D03*
X110342500Y-114893000D03*
X109707500Y-114893000D03*
X110342500Y-117433000D03*
X109707500Y-117433000D03*
G04 #@! TA.AperFunction,SMDPad,CuDef*
G36*
G01*
X100247750Y-120893000D02*
X99735250Y-120893000D01*
G75*
G02*
X99516500Y-120674250I0J218750D01*
G01*
X99516500Y-120236750D01*
G75*
G02*
X99735250Y-120018000I218750J0D01*
G01*
X100247750Y-120018000D01*
G75*
G02*
X100466500Y-120236750I0J-218750D01*
G01*
X100466500Y-120674250D01*
G75*
G02*
X100247750Y-120893000I-218750J0D01*
G01*
G37*
G04 #@! TD.AperFunction*
G04 #@! TA.AperFunction,SMDPad,CuDef*
G36*
G01*
X100247750Y-122468000D02*
X99735250Y-122468000D01*
G75*
G02*
X99516500Y-122249250I0J218750D01*
G01*
X99516500Y-121811750D01*
G75*
G02*
X99735250Y-121593000I218750J0D01*
G01*
X100247750Y-121593000D01*
G75*
G02*
X100466500Y-121811750I0J-218750D01*
G01*
X100466500Y-122249250D01*
G75*
G02*
X100247750Y-122468000I-218750J0D01*
G01*
G37*
G04 #@! TD.AperFunction*
G04 #@! TA.AperFunction,SMDPad,CuDef*
G36*
G01*
X107868250Y-120893000D02*
X107355750Y-120893000D01*
G75*
G02*
X107137000Y-120674250I0J218750D01*
G01*
X107137000Y-120236750D01*
G75*
G02*
X107355750Y-120018000I218750J0D01*
G01*
X107868250Y-120018000D01*
G75*
G02*
X108087000Y-120236750I0J-218750D01*
G01*
X108087000Y-120674250D01*
G75*
G02*
X107868250Y-120893000I-218750J0D01*
G01*
G37*
G04 #@! TD.AperFunction*
G04 #@! TA.AperFunction,SMDPad,CuDef*
G36*
G01*
X107868250Y-122468000D02*
X107355750Y-122468000D01*
G75*
G02*
X107137000Y-122249250I0J218750D01*
G01*
X107137000Y-121811750D01*
G75*
G02*
X107355750Y-121593000I218750J0D01*
G01*
X107868250Y-121593000D01*
G75*
G02*
X108087000Y-121811750I0J-218750D01*
G01*
X108087000Y-122249250D01*
G75*
G02*
X107868250Y-122468000I-218750J0D01*
G01*
G37*
G04 #@! TD.AperFunction*
D23*
X106197500Y-119102400D03*
X108458900Y-134401900D03*
X102479500Y-114924000D03*
X102893700Y-118678400D03*
X109642300Y-125517500D03*
X98467500Y-118632700D03*
X101443700Y-126875400D03*
X107249200Y-130732700D03*
X110151533Y-138260775D03*
X109044900Y-113484000D03*
X108490000Y-109335200D03*
X108303500Y-123155600D03*
X101718800Y-130748800D03*
X107020600Y-123163600D03*
X101199200Y-121968600D03*
X98804200Y-136612900D03*
X98808400Y-134076700D03*
X104470300Y-123161800D03*
X97897400Y-116103300D03*
X106450200Y-119902800D03*
X109810900Y-118869200D03*
X109810900Y-116348300D03*
X104575500Y-136471700D03*
X105506900Y-130741900D03*
D24*
X107764500Y-118068000D02*
X106730100Y-119102400D01*
X106730100Y-119102400D02*
X106197500Y-119102400D01*
X100015000Y-125074700D02*
X100015000Y-123504800D01*
X100015000Y-123504800D02*
X99204100Y-122693900D01*
X99204100Y-122693900D02*
X99204100Y-118703400D01*
X99204100Y-118703400D02*
X99839500Y-118068000D01*
X101922000Y-124164000D02*
X101011300Y-125074700D01*
X101011300Y-125074700D02*
X100015000Y-125074700D01*
X100015000Y-125875000D02*
X100015000Y-125074700D01*
X107764500Y-118068000D02*
X107027000Y-117330500D01*
X107027000Y-117330500D02*
X107027000Y-116238000D01*
X109120700Y-132733000D02*
X108458900Y-133394800D01*
X108458900Y-133394800D02*
X108458900Y-134401900D01*
X109921000Y-132733000D02*
X109120700Y-132733000D01*
X102502000Y-113817000D02*
X102502000Y-114901500D01*
X102502000Y-114901500D02*
X102479500Y-114924000D01*
X100577000Y-116238000D02*
X99839500Y-116975500D01*
X99839500Y-116975500D02*
X99839500Y-118068000D01*
X102893700Y-118678400D02*
X103192000Y-118976700D01*
X103192000Y-118976700D02*
X103192000Y-124164000D01*
X109707500Y-120844800D02*
X109642300Y-120910000D01*
X109642300Y-120910000D02*
X109642300Y-125517500D01*
X109707500Y-119973000D02*
X109707500Y-120844800D01*
X98483300Y-118632700D02*
X98467500Y-118632700D01*
X109207200Y-117433000D02*
X109207200Y-114495200D01*
X109207200Y-114495200D02*
X108444600Y-113732600D01*
X108444600Y-113732600D02*
X108444600Y-113505500D01*
X108444600Y-113505500D02*
X107832500Y-112893400D01*
X107832500Y-112893400D02*
X106480300Y-112893400D01*
X106480300Y-112893400D02*
X106080100Y-112493200D01*
X106080100Y-112493200D02*
X100180900Y-112493200D01*
X100180900Y-112493200D02*
X98581500Y-114092600D01*
X98581500Y-114092600D02*
X98581500Y-118534500D01*
X98581500Y-118534500D02*
X98483300Y-118632700D01*
X98483300Y-126383000D02*
X98483300Y-118632700D01*
X109707500Y-117433000D02*
X109207200Y-117433000D01*
X97683000Y-126383000D02*
X98483300Y-126383000D01*
X109921000Y-130193000D02*
X111362000Y-130193000D01*
X111362000Y-130193000D02*
X111422000Y-130133000D01*
X109921000Y-128923000D02*
X110721300Y-128923000D01*
X110721300Y-128923000D02*
X110721300Y-128293700D01*
X110721300Y-128293700D02*
X111422000Y-127593000D01*
X109921000Y-126383000D02*
X110297500Y-126006500D01*
X110297500Y-126006500D02*
X110297500Y-123637500D01*
X110297500Y-123637500D02*
X111422000Y-122513000D01*
X109921000Y-127653000D02*
X111422000Y-126152000D01*
X111422000Y-126152000D02*
X111422000Y-125053000D01*
X97683000Y-137813000D02*
X96242000Y-137813000D01*
X96242000Y-137813000D02*
X96182000Y-137753000D01*
X97683000Y-136543000D02*
X96882700Y-136543000D01*
X96882700Y-136543000D02*
X96882700Y-135913700D01*
X96882700Y-135913700D02*
X96182000Y-135213000D01*
X105102000Y-113817000D02*
X105102000Y-114717300D01*
X105102000Y-114717300D02*
X105350600Y-114717300D01*
X105350600Y-114717300D02*
X106252000Y-115618700D01*
X106252000Y-115618700D02*
X106252000Y-116238000D01*
X105102000Y-113810600D02*
X105102000Y-113817000D01*
X101401700Y-121243000D02*
X100675800Y-120517100D01*
X100675800Y-120517100D02*
X100675800Y-120455500D01*
X100675800Y-120455500D02*
X100675800Y-117597500D01*
X100675800Y-117597500D02*
X101010000Y-117263300D01*
X101010000Y-117263300D02*
X101352000Y-117263300D01*
X100675800Y-120455500D02*
X99991500Y-120455500D01*
X101352000Y-116238000D02*
X101352000Y-117263300D01*
X102152000Y-121243000D02*
X101401700Y-121243000D01*
X101443700Y-126875400D02*
X101560500Y-126875400D01*
X101560500Y-126875400D02*
X101910400Y-126525500D01*
X101910400Y-126525500D02*
X101910400Y-125265600D01*
X101910400Y-125265600D02*
X102101400Y-125074600D01*
X102101400Y-125074600D02*
X102324500Y-125074600D01*
X102324500Y-125074600D02*
X102547300Y-124851800D01*
X102547300Y-124851800D02*
X102547300Y-122538600D01*
X102547300Y-122538600D02*
X102152000Y-122143300D01*
X101443700Y-126875400D02*
X99260900Y-126875400D01*
X99260900Y-126875400D02*
X98483300Y-127653000D01*
X97683000Y-127653000D02*
X98483300Y-127653000D01*
X102152000Y-121243000D02*
X102152000Y-122143300D01*
X105102000Y-112916700D02*
X102090400Y-112916700D01*
X102090400Y-112916700D02*
X101696200Y-113310900D01*
X101696200Y-113310900D02*
X101696200Y-115191600D01*
X101696200Y-115191600D02*
X101352000Y-115535800D01*
X101352000Y-115535800D02*
X101352000Y-116238000D01*
X105102000Y-113810600D02*
X105102000Y-112916700D01*
X111422000Y-109686000D02*
X111422000Y-109766700D01*
X111422000Y-109766700D02*
X109707500Y-111481200D01*
X109707500Y-112353000D02*
X109707500Y-111481200D01*
X111138200Y-113278800D02*
X109761500Y-113278800D01*
X112357400Y-114498000D02*
X111138200Y-113278800D01*
X107249200Y-137771442D02*
X108373533Y-138895775D01*
X107249200Y-130732700D02*
X107249200Y-137771442D01*
X108373533Y-138895775D02*
X112056533Y-138895775D01*
X109707500Y-113224800D02*
X109707500Y-112353000D01*
X112056533Y-138895775D02*
X112357400Y-138594908D01*
X109761500Y-113278800D02*
X109707500Y-113224800D01*
X112357400Y-138594908D02*
X112357400Y-114498000D01*
X98483300Y-130193000D02*
X98483300Y-129645900D01*
X98483300Y-129645900D02*
X99069600Y-129059600D01*
X99069600Y-129059600D02*
X100632000Y-129059600D01*
X100632000Y-129059600D02*
X103180400Y-126511200D01*
X103180400Y-126511200D02*
X103180400Y-125265600D01*
X103180400Y-125265600D02*
X103371400Y-125074600D01*
X103371400Y-125074600D02*
X103594500Y-125074600D01*
X103594500Y-125074600D02*
X103817300Y-124851800D01*
X103817300Y-124851800D02*
X103817300Y-118582300D01*
X103817300Y-118582300D02*
X103052000Y-117817000D01*
X103052000Y-117817000D02*
X103052000Y-116238000D01*
X97683000Y-130193000D02*
X98483300Y-130193000D01*
X103052000Y-115212700D02*
X103497600Y-115212700D01*
X103497600Y-115212700D02*
X103774800Y-114935500D01*
X103802000Y-113817000D02*
X103802000Y-114908300D01*
X103802000Y-114908300D02*
X103774800Y-114935500D01*
X104052000Y-115212700D02*
X103774800Y-114935500D01*
X104052000Y-116238000D02*
X104052000Y-115212700D01*
X103052000Y-116238000D02*
X103052000Y-115212700D01*
X104158400Y-117656900D02*
X104512500Y-118011100D01*
X104512500Y-118011100D02*
X104512500Y-118827600D01*
X104512500Y-118827600D02*
X106208400Y-120523500D01*
X106208400Y-120523500D02*
X106208400Y-123385800D01*
X106208400Y-123385800D02*
X106357300Y-123534700D01*
X106357300Y-123534700D02*
X106357300Y-124851800D01*
X106357300Y-124851800D02*
X106134500Y-125074600D01*
X106134500Y-125074600D02*
X105911400Y-125074600D01*
X105911400Y-125074600D02*
X105720400Y-125265600D01*
X105720400Y-125265600D02*
X105720400Y-126501200D01*
X105720400Y-126501200D02*
X102135800Y-130085800D01*
X102135800Y-130085800D02*
X101532900Y-130085800D01*
X101532900Y-130085800D02*
X101118500Y-130500200D01*
X101118500Y-130500200D02*
X101118500Y-130997400D01*
X101118500Y-130997400D02*
X101470200Y-131349100D01*
X101470200Y-131349100D02*
X101977900Y-131349100D01*
X101977900Y-131349100D02*
X102040600Y-131286400D01*
X102040600Y-131286400D02*
X103407100Y-131286400D01*
X103407100Y-131286400D02*
X104422900Y-130270600D01*
X104422900Y-130270600D02*
X105052900Y-130270600D01*
X105052900Y-130270600D02*
X105089600Y-130233900D01*
X105089600Y-130233900D02*
X105098900Y-130233900D01*
X105098900Y-130233900D02*
X105191200Y-130141600D01*
X105191200Y-130141600D02*
X105755600Y-130141600D01*
X105755600Y-130141600D02*
X106107200Y-130493200D01*
X106107200Y-130493200D02*
X106107200Y-130990600D01*
X106107200Y-130990600D02*
X106065300Y-131032500D01*
X106065300Y-131032500D02*
X106065300Y-131082900D01*
X106065300Y-131082900D02*
X105877400Y-131270800D01*
X105877400Y-131270800D02*
X105877400Y-131290600D01*
X105877400Y-131290600D02*
X105175800Y-131992200D01*
X105175800Y-131992200D02*
X105175800Y-136720400D01*
X105175800Y-136720400D02*
X104824200Y-137072000D01*
X104824200Y-137072000D02*
X104318500Y-137072000D01*
X104318500Y-137072000D02*
X103506000Y-136259500D01*
X103506000Y-136259500D02*
X103506000Y-136144800D01*
X103506000Y-136144800D02*
X102566600Y-135205400D01*
X102566600Y-135205400D02*
X102566600Y-135010100D01*
X102566600Y-135010100D02*
X100426100Y-132869600D01*
X100426100Y-132869600D02*
X98837500Y-132869600D01*
X98837500Y-132869600D02*
X98547300Y-133159800D01*
X98547300Y-133159800D02*
X98510000Y-133159800D01*
X98510000Y-133159800D02*
X98509800Y-133160000D01*
X98509800Y-133160000D02*
X98508700Y-133160000D01*
X98508700Y-133160000D02*
X98504500Y-133164200D01*
X98504500Y-133164200D02*
X98504400Y-133164200D01*
X98504400Y-133164200D02*
X98291000Y-133377600D01*
X98291000Y-133377600D02*
X96800400Y-133377600D01*
X96800400Y-133377600D02*
X96550000Y-133628000D01*
X96550000Y-133628000D02*
X95792700Y-133628000D01*
X95792700Y-133628000D02*
X95240500Y-133075800D01*
X95240500Y-133075800D02*
X95240500Y-129733400D01*
X95240500Y-129733400D02*
X96050900Y-128923000D01*
X96050900Y-128923000D02*
X97683000Y-128923000D01*
X103552000Y-117263300D02*
X103764700Y-117263300D01*
X103764700Y-117263300D02*
X104158400Y-117656900D01*
X104158400Y-117656900D02*
X104552000Y-117263300D01*
X103552000Y-116238000D02*
X103552000Y-117263300D01*
X104552000Y-116238000D02*
X104552000Y-117263300D01*
X104452000Y-114267100D02*
X104452000Y-113817000D01*
X104452000Y-114267100D02*
X104452000Y-114717300D01*
X104552000Y-116238000D02*
X104552000Y-114817300D01*
X104552000Y-114817300D02*
X104452000Y-114717300D01*
X109921000Y-131463000D02*
X110721300Y-131463000D01*
X110721300Y-131463000D02*
X110721300Y-131972300D01*
X110721300Y-131972300D02*
X111422000Y-132673000D01*
X111202532Y-140073532D02*
X111422000Y-140293000D01*
X109921000Y-137813000D02*
X109921000Y-137903242D01*
X109921000Y-137813000D02*
X109921000Y-138030242D01*
X109921000Y-138030242D02*
X110151533Y-138260775D01*
X97683000Y-131463000D02*
X96882700Y-131463000D01*
X96882700Y-131463000D02*
X96882700Y-130833700D01*
X96882700Y-130833700D02*
X96182000Y-130133000D01*
X97683000Y-132733000D02*
X96882700Y-132733000D01*
X96882700Y-132733000D02*
X96822700Y-132673000D01*
X96822700Y-132673000D02*
X96182000Y-132673000D01*
X109120700Y-136543000D02*
X107858600Y-135280900D01*
X107858600Y-135280900D02*
X107858600Y-131485000D01*
X107858600Y-131485000D02*
X108936900Y-130406700D01*
X108936900Y-130406700D02*
X108936900Y-121780400D01*
X108936900Y-121780400D02*
X107612000Y-120455500D01*
X109921000Y-136543000D02*
X109120700Y-136543000D01*
X109921000Y-135273000D02*
X110721300Y-135273000D01*
X110721300Y-135273000D02*
X110781300Y-135213000D01*
X110781300Y-135213000D02*
X111422000Y-135213000D01*
X109921000Y-134003000D02*
X109120700Y-134003000D01*
X109120700Y-134003000D02*
X109120700Y-135722500D01*
X109120700Y-135722500D02*
X109296600Y-135898400D01*
X109296600Y-135898400D02*
X110548000Y-135898400D01*
X110548000Y-135898400D02*
X111422000Y-136772400D01*
X111422000Y-136772400D02*
X111422000Y-137753000D01*
X97896000Y-114893000D02*
X97896000Y-114021200D01*
X109044900Y-113484000D02*
X107854000Y-112293100D01*
X107854000Y-112293100D02*
X106646400Y-112293100D01*
X106646400Y-112293100D02*
X106445800Y-112092500D01*
X106445800Y-112092500D02*
X100015300Y-112092500D01*
X100015300Y-112092500D02*
X98086600Y-114021200D01*
X98086600Y-114021200D02*
X97896000Y-114021200D01*
X97896000Y-112353000D02*
X97896000Y-110824100D01*
X97896000Y-110824100D02*
X99670900Y-109049200D01*
X99670900Y-109049200D02*
X108204000Y-109049200D01*
X108204000Y-109049200D02*
X108490000Y-109335200D01*
X108303500Y-123155600D02*
X108030700Y-123155600D01*
X108030700Y-123155600D02*
X107646700Y-123539600D01*
X107646700Y-123539600D02*
X107646700Y-124769000D01*
X107646700Y-124769000D02*
X107451400Y-124964300D01*
X107451400Y-124964300D02*
X107263900Y-124964300D01*
X107263900Y-124964300D02*
X106990400Y-125237800D01*
X106990400Y-125237800D02*
X106990400Y-126513900D01*
X106990400Y-126513900D02*
X102755500Y-130748800D01*
X102755500Y-130748800D02*
X101718800Y-130748800D01*
X110342500Y-112353000D02*
X111422000Y-112353000D01*
X110342500Y-114893000D02*
X111422000Y-114893000D01*
X110342500Y-117433000D02*
X111422000Y-117433000D01*
X110342500Y-119973000D02*
X111422000Y-119973000D01*
X97261000Y-119973000D02*
X96182000Y-119973000D01*
X97261000Y-117433000D02*
X96182000Y-117433000D01*
X97261000Y-114893000D02*
X96182000Y-114893000D01*
X97261000Y-112353000D02*
X96182000Y-112353000D01*
X107612000Y-122030500D02*
X107020600Y-122621900D01*
X107020600Y-122621900D02*
X107020600Y-123163600D01*
X99761000Y-137305000D02*
X98960700Y-137305000D01*
X98960700Y-137305000D02*
X98960700Y-137826300D01*
X98960700Y-137826300D02*
X96494000Y-140293000D01*
X96494000Y-140293000D02*
X96182000Y-140293000D01*
X99991500Y-122030500D02*
X101137300Y-122030500D01*
X101137300Y-122030500D02*
X101199200Y-121968600D01*
X98483300Y-135273000D02*
X98483300Y-136292000D01*
X98483300Y-136292000D02*
X98804200Y-136612900D01*
X97683000Y-135273000D02*
X98483300Y-135273000D01*
X98483300Y-134003000D02*
X98734700Y-134003000D01*
X98734700Y-134003000D02*
X98808400Y-134076700D01*
X97683000Y-134003000D02*
X98483300Y-134003000D01*
X104462000Y-124164000D02*
X104462000Y-123170100D01*
X104462000Y-123170100D02*
X104470300Y-123161800D01*
X109810900Y-118869200D02*
X107593200Y-118869200D01*
X107593200Y-118869200D02*
X106559600Y-119902800D01*
X106559600Y-119902800D02*
X106450200Y-119902800D01*
X97896000Y-116561200D02*
X97896000Y-116104700D01*
X97896000Y-116104700D02*
X97897400Y-116103300D01*
X97896000Y-117433000D02*
X97896000Y-116561200D01*
X97896000Y-119973000D02*
X97896000Y-119101200D01*
X97896000Y-117433000D02*
X97896000Y-118304800D01*
X97896000Y-118304800D02*
X97867200Y-118333600D01*
X97867200Y-118333600D02*
X97867200Y-119072400D01*
X97867200Y-119072400D02*
X97896000Y-119101200D01*
X109707500Y-114893000D02*
X109707500Y-116244900D01*
X109707500Y-116244900D02*
X109810900Y-116348300D01*
X105452000Y-122143300D02*
X105104200Y-122491100D01*
X105104200Y-122491100D02*
X105104200Y-124834900D01*
X105104200Y-124834900D02*
X104864500Y-125074600D01*
X104864500Y-125074600D02*
X104641400Y-125074600D01*
X104641400Y-125074600D02*
X104450400Y-125265600D01*
X104450400Y-125265600D02*
X104450400Y-126538700D01*
X104450400Y-126538700D02*
X100718200Y-130270900D01*
X100718200Y-130270900D02*
X100718200Y-131163200D01*
X100718200Y-131163200D02*
X101453200Y-131898200D01*
X101453200Y-131898200D02*
X103361400Y-131898200D01*
X103361400Y-131898200D02*
X104517700Y-130741900D01*
X104517700Y-130741900D02*
X105506900Y-130741900D01*
X103361400Y-131898200D02*
X103361400Y-135257600D01*
X103361400Y-135257600D02*
X104575500Y-136471700D01*
X105452000Y-121243000D02*
X105452000Y-122143300D01*
X101414500Y-118068000D02*
X102052000Y-117430500D01*
X102052000Y-117430500D02*
X102052000Y-116238000D01*
X105052000Y-116238000D02*
X105052000Y-117263300D01*
X106189500Y-118068000D02*
X105856700Y-118068000D01*
X105856700Y-118068000D02*
X105052000Y-117263300D01*
M02*
