G04 #@! TF.GenerationSoftware,KiCad,Pcbnew,(5.1.6)-1*
G04 #@! TF.CreationDate,2020-06-11T17:33:57+01:00*
G04 #@! TF.ProjectId,nrfmicro,6e72666d-6963-4726-9f2e-6b696361645f,rev?*
G04 #@! TF.SameCoordinates,Original*
G04 #@! TF.FileFunction,Paste,Bot*
G04 #@! TF.FilePolarity,Positive*
%FSLAX46Y46*%
G04 Gerber Fmt 4.6, Leading zero omitted, Abs format (unit mm)*
G04 Created by KiCad (PCBNEW (5.1.6)-1) date 2020-06-11 17:33:57*
%MOMM*%
%LPD*%
G01*
G04 APERTURE LIST*
%ADD10R,1.060000X0.650000*%
%ADD11R,1.270000X1.270000*%
%ADD12R,1.000000X0.600000*%
%ADD13R,1.100000X0.600000*%
%ADD14R,0.600000X1.000000*%
%ADD15R,0.800000X0.900000*%
%ADD16R,0.400000X1.143000*%
%ADD17R,0.900000X0.800000*%
G04 APERTURE END LIST*
D10*
X104267000Y-137433000D03*
X104267000Y-135533000D03*
X102067000Y-135533000D03*
X102067000Y-136483000D03*
X102067000Y-137433000D03*
G36*
G01*
X106598250Y-128513000D02*
X106085750Y-128513000D01*
G75*
G02*
X105867000Y-128294250I0J218750D01*
G01*
X105867000Y-127856750D01*
G75*
G02*
X106085750Y-127638000I218750J0D01*
G01*
X106598250Y-127638000D01*
G75*
G02*
X106817000Y-127856750I0J-218750D01*
G01*
X106817000Y-128294250D01*
G75*
G02*
X106598250Y-128513000I-218750J0D01*
G01*
G37*
G36*
G01*
X106598250Y-130088000D02*
X106085750Y-130088000D01*
G75*
G02*
X105867000Y-129869250I0J218750D01*
G01*
X105867000Y-129431750D01*
G75*
G02*
X106085750Y-129213000I218750J0D01*
G01*
X106598250Y-129213000D01*
G75*
G02*
X106817000Y-129431750I0J-218750D01*
G01*
X106817000Y-129869250D01*
G75*
G02*
X106598250Y-130088000I-218750J0D01*
G01*
G37*
G36*
G01*
X106085750Y-133023000D02*
X106598250Y-133023000D01*
G75*
G02*
X106817000Y-133241750I0J-218750D01*
G01*
X106817000Y-133679250D01*
G75*
G02*
X106598250Y-133898000I-218750J0D01*
G01*
X106085750Y-133898000D01*
G75*
G02*
X105867000Y-133679250I0J218750D01*
G01*
X105867000Y-133241750D01*
G75*
G02*
X106085750Y-133023000I218750J0D01*
G01*
G37*
G36*
G01*
X106085750Y-131448000D02*
X106598250Y-131448000D01*
G75*
G02*
X106817000Y-131666750I0J-218750D01*
G01*
X106817000Y-132104250D01*
G75*
G02*
X106598250Y-132323000I-218750J0D01*
G01*
X106085750Y-132323000D01*
G75*
G02*
X105867000Y-132104250I0J218750D01*
G01*
X105867000Y-131666750D01*
G75*
G02*
X106085750Y-131448000I218750J0D01*
G01*
G37*
G36*
G01*
X106085750Y-136833000D02*
X106598250Y-136833000D01*
G75*
G02*
X106817000Y-137051750I0J-218750D01*
G01*
X106817000Y-137489250D01*
G75*
G02*
X106598250Y-137708000I-218750J0D01*
G01*
X106085750Y-137708000D01*
G75*
G02*
X105867000Y-137489250I0J218750D01*
G01*
X105867000Y-137051750D01*
G75*
G02*
X106085750Y-136833000I218750J0D01*
G01*
G37*
G36*
G01*
X106085750Y-135258000D02*
X106598250Y-135258000D01*
G75*
G02*
X106817000Y-135476750I0J-218750D01*
G01*
X106817000Y-135914250D01*
G75*
G02*
X106598250Y-136133000I-218750J0D01*
G01*
X106085750Y-136133000D01*
G75*
G02*
X105867000Y-135914250I0J218750D01*
G01*
X105867000Y-135476750D01*
G75*
G02*
X106085750Y-135258000I218750J0D01*
G01*
G37*
G36*
G01*
X100277000Y-117811750D02*
X100277000Y-118324250D01*
G75*
G02*
X100058250Y-118543000I-218750J0D01*
G01*
X99620750Y-118543000D01*
G75*
G02*
X99402000Y-118324250I0J218750D01*
G01*
X99402000Y-117811750D01*
G75*
G02*
X99620750Y-117593000I218750J0D01*
G01*
X100058250Y-117593000D01*
G75*
G02*
X100277000Y-117811750I0J-218750D01*
G01*
G37*
G36*
G01*
X101852000Y-117811750D02*
X101852000Y-118324250D01*
G75*
G02*
X101633250Y-118543000I-218750J0D01*
G01*
X101195750Y-118543000D01*
G75*
G02*
X100977000Y-118324250I0J218750D01*
G01*
X100977000Y-117811750D01*
G75*
G02*
X101195750Y-117593000I218750J0D01*
G01*
X101633250Y-117593000D01*
G75*
G02*
X101852000Y-117811750I0J-218750D01*
G01*
G37*
G36*
G01*
X107327000Y-118324250D02*
X107327000Y-117811750D01*
G75*
G02*
X107545750Y-117593000I218750J0D01*
G01*
X107983250Y-117593000D01*
G75*
G02*
X108202000Y-117811750I0J-218750D01*
G01*
X108202000Y-118324250D01*
G75*
G02*
X107983250Y-118543000I-218750J0D01*
G01*
X107545750Y-118543000D01*
G75*
G02*
X107327000Y-118324250I0J218750D01*
G01*
G37*
G36*
G01*
X105752000Y-118324250D02*
X105752000Y-117811750D01*
G75*
G02*
X105970750Y-117593000I218750J0D01*
G01*
X106408250Y-117593000D01*
G75*
G02*
X106627000Y-117811750I0J-218750D01*
G01*
X106627000Y-118324250D01*
G75*
G02*
X106408250Y-118543000I-218750J0D01*
G01*
X105970750Y-118543000D01*
G75*
G02*
X105752000Y-118324250I0J218750D01*
G01*
G37*
G36*
G01*
X99735250Y-121593000D02*
X100247750Y-121593000D01*
G75*
G02*
X100466500Y-121811750I0J-218750D01*
G01*
X100466500Y-122249250D01*
G75*
G02*
X100247750Y-122468000I-218750J0D01*
G01*
X99735250Y-122468000D01*
G75*
G02*
X99516500Y-122249250I0J218750D01*
G01*
X99516500Y-121811750D01*
G75*
G02*
X99735250Y-121593000I218750J0D01*
G01*
G37*
G36*
G01*
X99735250Y-120018000D02*
X100247750Y-120018000D01*
G75*
G02*
X100466500Y-120236750I0J-218750D01*
G01*
X100466500Y-120674250D01*
G75*
G02*
X100247750Y-120893000I-218750J0D01*
G01*
X99735250Y-120893000D01*
G75*
G02*
X99516500Y-120674250I0J218750D01*
G01*
X99516500Y-120236750D01*
G75*
G02*
X99735250Y-120018000I218750J0D01*
G01*
G37*
G36*
G01*
X107868250Y-120893000D02*
X107355750Y-120893000D01*
G75*
G02*
X107137000Y-120674250I0J218750D01*
G01*
X107137000Y-120236750D01*
G75*
G02*
X107355750Y-120018000I218750J0D01*
G01*
X107868250Y-120018000D01*
G75*
G02*
X108087000Y-120236750I0J-218750D01*
G01*
X108087000Y-120674250D01*
G75*
G02*
X107868250Y-120893000I-218750J0D01*
G01*
G37*
G36*
G01*
X107868250Y-122468000D02*
X107355750Y-122468000D01*
G75*
G02*
X107137000Y-122249250I0J218750D01*
G01*
X107137000Y-121811750D01*
G75*
G02*
X107355750Y-121593000I218750J0D01*
G01*
X107868250Y-121593000D01*
G75*
G02*
X108087000Y-121811750I0J-218750D01*
G01*
X108087000Y-122249250D01*
G75*
G02*
X107868250Y-122468000I-218750J0D01*
G01*
G37*
G36*
G01*
X107990750Y-129213000D02*
X108503250Y-129213000D01*
G75*
G02*
X108722000Y-129431750I0J-218750D01*
G01*
X108722000Y-129869250D01*
G75*
G02*
X108503250Y-130088000I-218750J0D01*
G01*
X107990750Y-130088000D01*
G75*
G02*
X107772000Y-129869250I0J218750D01*
G01*
X107772000Y-129431750D01*
G75*
G02*
X107990750Y-129213000I218750J0D01*
G01*
G37*
G36*
G01*
X107990750Y-127638000D02*
X108503250Y-127638000D01*
G75*
G02*
X108722000Y-127856750I0J-218750D01*
G01*
X108722000Y-128294250D01*
G75*
G02*
X108503250Y-128513000I-218750J0D01*
G01*
X107990750Y-128513000D01*
G75*
G02*
X107772000Y-128294250I0J218750D01*
G01*
X107772000Y-127856750D01*
G75*
G02*
X107990750Y-127638000I218750J0D01*
G01*
G37*
G36*
G01*
X107990750Y-133023000D02*
X108503250Y-133023000D01*
G75*
G02*
X108722000Y-133241750I0J-218750D01*
G01*
X108722000Y-133679250D01*
G75*
G02*
X108503250Y-133898000I-218750J0D01*
G01*
X107990750Y-133898000D01*
G75*
G02*
X107772000Y-133679250I0J218750D01*
G01*
X107772000Y-133241750D01*
G75*
G02*
X107990750Y-133023000I218750J0D01*
G01*
G37*
G36*
G01*
X107990750Y-131448000D02*
X108503250Y-131448000D01*
G75*
G02*
X108722000Y-131666750I0J-218750D01*
G01*
X108722000Y-132104250D01*
G75*
G02*
X108503250Y-132323000I-218750J0D01*
G01*
X107990750Y-132323000D01*
G75*
G02*
X107772000Y-132104250I0J218750D01*
G01*
X107772000Y-131666750D01*
G75*
G02*
X107990750Y-131448000I218750J0D01*
G01*
G37*
G36*
G01*
X107990750Y-136833000D02*
X108503250Y-136833000D01*
G75*
G02*
X108722000Y-137051750I0J-218750D01*
G01*
X108722000Y-137489250D01*
G75*
G02*
X108503250Y-137708000I-218750J0D01*
G01*
X107990750Y-137708000D01*
G75*
G02*
X107772000Y-137489250I0J218750D01*
G01*
X107772000Y-137051750D01*
G75*
G02*
X107990750Y-136833000I218750J0D01*
G01*
G37*
G36*
G01*
X107990750Y-135258000D02*
X108503250Y-135258000D01*
G75*
G02*
X108722000Y-135476750I0J-218750D01*
G01*
X108722000Y-135914250D01*
G75*
G02*
X108503250Y-136133000I-218750J0D01*
G01*
X107990750Y-136133000D01*
G75*
G02*
X107772000Y-135914250I0J218750D01*
G01*
X107772000Y-135476750D01*
G75*
G02*
X107990750Y-135258000I218750J0D01*
G01*
G37*
D11*
X98086533Y-134958775D03*
X98086533Y-137498775D03*
D12*
X107402000Y-111671000D03*
D13*
X107402000Y-109385000D03*
X100202000Y-111671000D03*
D14*
X104502000Y-112378000D03*
X106002000Y-112378000D03*
X101602000Y-112378000D03*
D12*
X100202000Y-109385000D03*
D15*
X103802000Y-118973000D03*
X102852000Y-120973000D03*
X104752000Y-120973000D03*
D16*
X97261000Y-117433000D03*
X97896000Y-117433000D03*
X110342500Y-119973000D03*
X109707500Y-119973000D03*
X97261000Y-112353000D03*
X97896000Y-112353000D03*
X97261000Y-114893000D03*
X97896000Y-114893000D03*
X110342500Y-114893000D03*
X109707500Y-114893000D03*
X110342500Y-117433000D03*
X109707500Y-117433000D03*
X97261000Y-119973000D03*
X97896000Y-119973000D03*
X110342500Y-112353000D03*
X109707500Y-112353000D03*
D17*
X104167000Y-127913000D03*
X104167000Y-129813000D03*
X102167000Y-128863000D03*
D10*
X102067000Y-133623000D03*
X102067000Y-132673000D03*
X102067000Y-131723000D03*
X104267000Y-131723000D03*
X104267000Y-133623000D03*
M02*
