G04 #@! TF.GenerationSoftware,KiCad,Pcbnew,(5.1.6)-1*
G04 #@! TF.CreationDate,2020-06-11T17:33:57+01:00*
G04 #@! TF.ProjectId,nrfmicro,6e72666d-6963-4726-9f2e-6b696361645f,rev?*
G04 #@! TF.SameCoordinates,Original*
G04 #@! TF.FileFunction,Paste,Top*
G04 #@! TF.FilePolarity,Positive*
%FSLAX46Y46*%
G04 Gerber Fmt 4.6, Leading zero omitted, Abs format (unit mm)*
G04 Created by KiCad (PCBNEW (5.1.6)-1) date 2020-06-11 17:33:57*
%MOMM*%
%LPD*%
G01*
G04 APERTURE LIST*
%ADD10R,1.000000X0.650000*%
%ADD11R,0.650000X1.000000*%
%ADD12R,0.600000X1.450000*%
%ADD13R,0.300000X1.450000*%
%ADD14R,0.900000X1.200000*%
%ADD15R,0.400000X1.143000*%
G04 APERTURE END LIST*
D10*
X109921000Y-126383000D03*
X109921000Y-127653000D03*
X109921000Y-128923000D03*
X109921000Y-130193000D03*
X109921000Y-131463000D03*
X109921000Y-132733000D03*
X109921000Y-134003000D03*
X109921000Y-135273000D03*
X109921000Y-136543000D03*
X109921000Y-137813000D03*
X97683000Y-130193000D03*
X97683000Y-137813000D03*
X97683000Y-131463000D03*
X97683000Y-136543000D03*
X97683000Y-135273000D03*
X97683000Y-134003000D03*
X97683000Y-128923000D03*
X97683000Y-132733000D03*
X97683000Y-127653000D03*
X97683000Y-126383000D03*
D11*
X100652000Y-124164000D03*
X108272000Y-124164000D03*
X101922000Y-124164000D03*
X107002000Y-124164000D03*
X105732000Y-124164000D03*
X104462000Y-124164000D03*
X99382000Y-124164000D03*
X103192000Y-124164000D03*
D12*
X100577000Y-116238000D03*
X107027000Y-116238000D03*
X101352000Y-116238000D03*
X106252000Y-116238000D03*
D13*
X105552000Y-116238000D03*
X102052000Y-116238000D03*
X105052000Y-116238000D03*
X102552000Y-116238000D03*
X104552000Y-116238000D03*
X103052000Y-116238000D03*
X103552000Y-116238000D03*
X104052000Y-116238000D03*
D14*
X102152000Y-121243000D03*
X105452000Y-121243000D03*
G36*
G01*
X107327000Y-118324250D02*
X107327000Y-117811750D01*
G75*
G02*
X107545750Y-117593000I218750J0D01*
G01*
X107983250Y-117593000D01*
G75*
G02*
X108202000Y-117811750I0J-218750D01*
G01*
X108202000Y-118324250D01*
G75*
G02*
X107983250Y-118543000I-218750J0D01*
G01*
X107545750Y-118543000D01*
G75*
G02*
X107327000Y-118324250I0J218750D01*
G01*
G37*
G36*
G01*
X105752000Y-118324250D02*
X105752000Y-117811750D01*
G75*
G02*
X105970750Y-117593000I218750J0D01*
G01*
X106408250Y-117593000D01*
G75*
G02*
X106627000Y-117811750I0J-218750D01*
G01*
X106627000Y-118324250D01*
G75*
G02*
X106408250Y-118543000I-218750J0D01*
G01*
X105970750Y-118543000D01*
G75*
G02*
X105752000Y-118324250I0J218750D01*
G01*
G37*
G36*
G01*
X100277000Y-117811750D02*
X100277000Y-118324250D01*
G75*
G02*
X100058250Y-118543000I-218750J0D01*
G01*
X99620750Y-118543000D01*
G75*
G02*
X99402000Y-118324250I0J218750D01*
G01*
X99402000Y-117811750D01*
G75*
G02*
X99620750Y-117593000I218750J0D01*
G01*
X100058250Y-117593000D01*
G75*
G02*
X100277000Y-117811750I0J-218750D01*
G01*
G37*
G36*
G01*
X101852000Y-117811750D02*
X101852000Y-118324250D01*
G75*
G02*
X101633250Y-118543000I-218750J0D01*
G01*
X101195750Y-118543000D01*
G75*
G02*
X100977000Y-118324250I0J218750D01*
G01*
X100977000Y-117811750D01*
G75*
G02*
X101195750Y-117593000I218750J0D01*
G01*
X101633250Y-117593000D01*
G75*
G02*
X101852000Y-117811750I0J-218750D01*
G01*
G37*
D15*
X97261000Y-112353000D03*
X97896000Y-112353000D03*
X97261000Y-117433000D03*
X97896000Y-117433000D03*
X110342500Y-112353000D03*
X109707500Y-112353000D03*
X110342500Y-119973000D03*
X109707500Y-119973000D03*
X97261000Y-114893000D03*
X97896000Y-114893000D03*
X97261000Y-119973000D03*
X97896000Y-119973000D03*
X110342500Y-114893000D03*
X109707500Y-114893000D03*
X110342500Y-117433000D03*
X109707500Y-117433000D03*
G36*
G01*
X100247750Y-120893000D02*
X99735250Y-120893000D01*
G75*
G02*
X99516500Y-120674250I0J218750D01*
G01*
X99516500Y-120236750D01*
G75*
G02*
X99735250Y-120018000I218750J0D01*
G01*
X100247750Y-120018000D01*
G75*
G02*
X100466500Y-120236750I0J-218750D01*
G01*
X100466500Y-120674250D01*
G75*
G02*
X100247750Y-120893000I-218750J0D01*
G01*
G37*
G36*
G01*
X100247750Y-122468000D02*
X99735250Y-122468000D01*
G75*
G02*
X99516500Y-122249250I0J218750D01*
G01*
X99516500Y-121811750D01*
G75*
G02*
X99735250Y-121593000I218750J0D01*
G01*
X100247750Y-121593000D01*
G75*
G02*
X100466500Y-121811750I0J-218750D01*
G01*
X100466500Y-122249250D01*
G75*
G02*
X100247750Y-122468000I-218750J0D01*
G01*
G37*
G36*
G01*
X107868250Y-120893000D02*
X107355750Y-120893000D01*
G75*
G02*
X107137000Y-120674250I0J218750D01*
G01*
X107137000Y-120236750D01*
G75*
G02*
X107355750Y-120018000I218750J0D01*
G01*
X107868250Y-120018000D01*
G75*
G02*
X108087000Y-120236750I0J-218750D01*
G01*
X108087000Y-120674250D01*
G75*
G02*
X107868250Y-120893000I-218750J0D01*
G01*
G37*
G36*
G01*
X107868250Y-122468000D02*
X107355750Y-122468000D01*
G75*
G02*
X107137000Y-122249250I0J218750D01*
G01*
X107137000Y-121811750D01*
G75*
G02*
X107355750Y-121593000I218750J0D01*
G01*
X107868250Y-121593000D01*
G75*
G02*
X108087000Y-121811750I0J-218750D01*
G01*
X108087000Y-122249250D01*
G75*
G02*
X107868250Y-122468000I-218750J0D01*
G01*
G37*
M02*
